<mxfile host="Electron" modified="2023-09-17T06:14:28.806Z" agent="Mozilla/5.0 (Windows NT 10.0; Win64; x64) AppleWebKit/537.36 (KHTML, like Gecko) draw.io/21.7.5 Chrome/114.0.5735.289 Electron/25.8.1 Safari/537.36" etag="BedjgAwFGQ7KyjSGf03u" version="21.7.5" type="device">
  <diagram name="Page-1" id="NzcZIM6vAPl_HCRVivZ6">
    <mxGraphModel dx="1036" dy="606" grid="1" gridSize="10" guides="1" tooltips="1" connect="1" arrows="1" fold="1" page="1" pageScale="1" pageWidth="827" pageHeight="1169" math="0" shadow="0">
      <root>
        <mxCell id="0" />
        <mxCell id="1" parent="0" />
        <mxCell id="4Tri3SdzJJmmYmNvO1V--1" value="" style="shape=image;verticalLabelPosition=bottom;labelBackgroundColor=default;verticalAlign=top;aspect=fixed;imageAspect=0;image=data:image/jpeg,/9j/4AAQSkZJRgABAQAAAQABAAD/4gHYSUNDX1BST0ZJTEUAAQEAAAHIAAAAAAQwAABtbnRyUkdCIFhZWiAH4AABAAEAAAAAAABhY3NwAAAAAAAAAAAAAAAAAAAAAAAAAAAAAAAAAAAAAQAA9tYAAQAAAADTLQAAAAAAAAAAAAAAAAAAAAAAAAAAAAAAAAAAAAAAAAAAAAAAAAAAAAAAAAAAAAAAAAAAAAlkZXNjAAAA8AAAACRyWFlaAAABFAAAABRnWFlaAAABKAAAABRiWFlaAAABPAAAABR3dHB0AAABUAAAABRyVFJDAAABZAAAAChnVFJDAAABZAAAAChiVFJDAAABZAAAAChjcHJ0AAABjAAAADxtbHVjAAAAAAAAAAEAAAAMZW5VUwAAAAgAAAAcAHMAUgBHAEJYWVogAAAAAAAAb6IAADj1AAADkFhZWiAAAAAAAABimQAAt4UAABjaWFlaIAAAAAAAACSgAAAPhAAAts9YWVogAAAAAAAA9tYAAQAAAADTLXBhcmEAAAAAAAQAAAACZmYAAPKnAAANWQAAE9AAAApbAAAAAAAAAABtbHVjAAAAAAAAAAEAAAAMZW5VUwAAACAAAAAcAEcAbwBvAGcAbABlACAASQBuAGMALgAgADIAMAAxADb/2wBDAAMCAgICAgMCAgIDAwMDBAYEBAQEBAgGBgUGCQgKCgkICQkKDA8MCgsOCwkJDRENDg8QEBEQCgwSExIQEw8QEBD/2wBDAQMDAwQDBAgEBAgQCwkLEBAQEBAQEBAQEBAQEBAQEBAQEBAQEBAQEBAQEBAQEBAQEBAQEBAQEBAQEBAQEBAQEBD/wAARCAVQAwcDASIAAhEBAxEB/8QAHQABAAMBAQEBAQEAAAAAAAAAAAUGBwQIAwIBCf/EAGkQAAEDAgQBBAoKDAoIBAQCCwIAAwQFBgEHEhMiCBEUMhUWFyNCUlVXltQYITFWdZSVl7TVJDM0NlhicrKztdLTCSY1N0FRVGF0giVDU3GBkqPDY2WRoUSDhKKkc8FFSGSTwnZ3scTF/8QAGQEBAQEBAQEAAAAAAAAAAAAAAAIDBAEF/8QAKBEBAQACAgAHAAICAwEAAAAAAAIDMgESBBETFCIxUkLwIUFhYoHR/9oADAMBAAIRAxEAPwD/AFTREQEREBERAREQEREBERAREQEREBERAREQEREBERAREQEREBERAREQEREBERAREQEREBERAREQEREBERAREQEREBERAREQEREBERAREQEREBERAREQEREBERAREQEREBERAREQEREBERAREQEREBERAREQEREBERAREQEREBERAREQEREBERAREQEXBUKlEpjQnLeIMXCwABECcMi/qERw1Eubtnp39nq3yTK/dIJhFD9s9O/s9W+SZX7pO2enf2erfJMr90gmEUP2z07+z1b5Jlfuk7Z6d/Z6t8kyv3SCYRQ/bPTv7PVvkmV+6Ttnp39nq3yTK/dIJhFD9s9O/s9W+SZX7pO2enf2erfJMr90gmEUP2z07+z1b5Jlfuk7Z6d/Z6t8kyv3SCYRQ/bPTv7PVvkmV+6Ttnp39nq3yTK/dIJhFD9s9O/s9W+SZX7pO2enf2erfJMr90gmEURHuOlSnm2MOksOOcLWEmG6xiX5O4I86l0BERAREQEREBERAREQEREBERARfgjEBxMi0iKhhuukkOBNjUnx5ufBximSXAL8khb0l/wQTiKH7Z6d/Z6t8kyv3Sds9O/s9W+SZX7pBMIoftnp39nq3yTK/dJ2z07+z1b5JlfukEwih+2enf2erfJMr90nbPTv7PVvkmV+6QTCKH7Z6d/Z6t8kyv3Sds9O/s9W+SZX7pBMIoftnp39nq3yTK/dJ2z07+z1b5JlfukEwihm7mpROA24U5nEi0YFJgPsDiX5RgIqZQEREBERAREQEREBERAREQEREBERARFFzq/ToL3RnSkG/gOom48V18hw/G2hLT/xQSiKH7Z6d/Z6t8kyv3Sds9O/s9W+SZX7pBMIoftop39nq3yTK/dJ2z07+z1b5JlfukEwih+2enf2erfJMr90nbPTv7PVvkmV+6QTCKH7Z6d/Z6t8kyv3Sds9O/s9W+SZX7pBMIoftnp39nq3yTK/dJ2z07+z1b5JlfukEwih+2enf2erfJMr90v520Uvm441VH/fSZX7tBMovhHkMTY7cmK6LrTg6hIeqWC+6AiIgIiICIiAiIgIiICIiAiIgIiICIiAiIghZuPNdVN+D5pf9WMpPcURUy03RTcf/L5v6WMu3dQdOJr+7mH9a5N1efrapwDctNpcWl1NnM+FJiSrlq5AW0/F3fsgyf6jrD4AQtND1e9cDWwW1vhw+p2582GbN6XV6M3E3FC12uMW/RZ1alRpb7VPjuyTaiRjffdAR1aWmg4zP8UVj+HK7y5iUG6q3ctBuq3ZFnxYU2bS6pAaCY61NLTF2hadMCIz4dJEJAXX0qJxVWqqyxi2b1uJuLyy3yvHaBdeZNSvy163RrYsulUKZjTpEBoamw7NfNo8T0uk0Y8TRcB9XV4XCpupctXLqjuVpms2Tf0EranxIVb36OI9jGpWnosp/vvA07qHR/rfxFp7XJ+Wfu8H6ei8XE3F5/n8pq27OrF1hdMqtVNimXlT7Sjx4VGATjSJUcXQEdD5FIH8bQBcenQanLc5Slq3LR6pUGrRvCJNodeat2o0h+l6p8WQ7o0GQNGY7Wk9evV1VPpZPyr3GLz69mybibio2beYULKrLO5cwpwCTdDpzsptsv8AXu/6pr/M6QB/mWY5Y8o+ezlleVx5/R6ZbtwZdzTYuONTm3doGjbB2KbTRmZ99F0B63EYkpnDVT2lVZ4iutPQ2vBNeC84ZgcrrC1LAq93RMo71i1KmTKbFxplYgNRuduaelqRug6QEHg6QLWJmAmIatQzNy8rCybWmVOPMtC9JDduxYMq6JMSntOtW90oBMGpXfdWJiBajFjd0qvb5Pyz91i/Td9xNxZNQ8/rUujNWpZT0ChXDUJ1HGO7PqTMMCp0VqRD6VHdKRr6pgWADw6tf4nEtP3VnU1Ozeam9XHcpfYEfD/zGn/SmlOquXCeqHH+Eaf9KaVjUqEREBERAREQEREBERAREQEREEPdxabUrRD1ux0jH/pEpETAB0DwiCjrv+9OtfBsj9ES++6g6txfzFzD+lc26sRudvLGiXFe1xZq2bjKaalDUG6lJtWTUGmoDVOi6z3wYcARE25HDq8ZaYcfq8+THxGb0Z7N3wdw/oX93FjNmUuzY2ZlOqdjWVIo0YaFU4897G2n6U0ZlIgk0JE6w3rLgdx/5lmuZ/KazCtjNq5MuoFcy7stuix4jtG7dGpTY3Hutaj2pQutMMCB968PjWnPhvOussvdT17U9YbibixmqcpSzrXh3f23w50KdYtGp9ZqjTOl5qUzKDh6CeoekDuiTWotHGvnF5TFs1G+ZFiUuybznS6c9FiVZ+JTmnW6Y7IaAwB9oXekcO6OsxaJoeLjUejk/LT3OL9Np14JrwXm+3+WFRHYF4Va7bHuGjs0K8e1ClsC00TtTmnpEGB77p39Woi1EACGni6ymMeVzl6NOpchqgXQ/PqdekWxjSWIbTkyPUmmsXdh0Bd0cQ6NJgZBxjxadRD77fJ+Ue7xfpvO4m4sBsflfZeXzW7YpEK3rvp43VMlUuNLqFMBqOxUo+BE7DdLBwu+6R8DWH43W5t03Vnkx1j2a48s5flLju4v4q1j/ASC/wCkSnVWLqd/ivWP8BI/RErOpaiIiAiIgIiICIiAiIgIiICIiAiIgKDpB4YVWvY//v4D/wDhWFOKvU49NWr3+PD6KwgmtxNznXLurP8ANiBT6gFsdnaHIq1GjVs3alGaprtQ52ugTBEjYaEyMd0mvB62klcR3ryZ5Mnpz2aTgeGGKYuf1Y83/Bebbuh5HVu07to9m5cYu12LClwWhjWFMadj1A4uDrQaui96PS6wf+YCVp5ROblw5St5eyqJE6S3cV5RKJPZai7z78d1h8yBgf8AakbQaVtfh/Ly4n/f/jlx+J7dqr/X/ratxNxYnTOU9bVZtyZWqVYl7zKlTa8dtTrfapbRVGHNEdffe+7DTWni3Sd0fjL4NcrLL6pUC2KpbtAuevVK7XZrUChU+G12RE4R6ZW6Jui0G0X/AIvF4GtR6OT8t/c4v03LXgmvBeZKzytqfRMyaM5U+kw7PqVhu3C3DkUw26s7U+ntRmooNHx7pazDa8fwtPErNd/KzsGyKpJpFbt+5QkUinxKncGLMZg8KCzKx730nvvEfhELG7w8Se3y/lPu8X6btucy/mvDn51gV28sLLm0KpcUCdb11y4tpToUKt1SFTmnYUAZQNEzIN3d+1Fuh1BI/wAVVzlBcrPCzrZvaHlzQaxLrFlzadBk1k6eLlJYlvyGNccz3deradLwdAlp4tWlJ8PkquvV5XisUzVdnqHcTcXLupurF1cPha3N2Kc/x87D/wDFOqYULan8lOf4+f8ASnVNICIiAiIgIiICIiAiIgIiICIiAiIgIiICIiCu1stNz0zH/wDcJv6WKvruriul5uDVadVJWODcUY8hgnC6gmRNGOrxftZLg7aLe8vU/wCNAg6rk7Au0GoBdXRuw/Rz6Z0ktLW14er8VYZHsCwYFXev+vZTUqJZ1SaaitNvQg3acAEZBPfa08Au7vH4bQg0R+HtbT20W95ep/xoE7aLe8vU/wCNAujDnrDPWXNm8NOWu1IzMuxxzJyxrmX0SuyaKFapxwGqhEx1kwBj1+txj+Jq4gXnzHkNc9PuGH2/Uends1Hp8J8aPaowWos6BIF2LKYEH+rw99A9RHxFrDqj6W7aLe8vU/40CdtFveXqf8aBTj8TkxaqyeHx5flUsHubkm3PfMW/3bxzbjSqtf8ABosOQ/Gt/ZYhdAlC/wB6a3y1AenTxH1tZavBU5mJyYe37uvfx56D3VRoQfyXu9juxun/AMUd3d0/i6fxlrnbRb3l6n/GgTtot7y9T/jQK/c5P7/f+E+0xfn+/wCf/rIq1yXuy9yVG4e3na7IZh0e/tjsXq09AaEei6t3w9H23wfEJWGmZOXPbtx3vc9p5kNU2XetwQqy7gdGF/Yjx2gadi8bvHuiH23h0a+qSvnbRb3l6n/GgTtot7y9T/jQKPWycq9ti4VbO7KNrO6g0ez6tWyh0GPWYlUrEIY5l2Vjxy1dF1AYbQGektXF1Vm9W5FVgu9ulHteqybete+Lfj0mo0lsHXz6bHkbseeD7rpdXqbWni8YVuPbRb3l6n/GgTtot7y9T/jQJPiMmOes0ZPDY8tdqlkt2ZA5kZiZfXJaV/Z3BUJ1VKmHAfjUEGIdOOFIF0S2N0jdJ0w4++j+IIqNuvkwXTcUi7wh5rRqZAzJiwm7xjNULUUh5poWnXYJE/8AYu6A9Q9/T4y2ztot7y9T/jQJ20W95ep/xoEnxOSdU14PFWyq5b5OxMtr8va8KbWN+LdrVHajwNjT0FqBD6KAbuot3Vp1dUdP4y0bdUH20W95ep/xoE7aLe8vU/40Czqqr5U3mZj4y7a4eqNG+Eaf9KaVsVDdqsCsOxIFLmMTHsJkV3Sw6DugAfEjMtPU4BV8UqEREBERAREQEREBERAREQEREEPd/wB6da+DZH6Il8t1dFxxXplvVSFFDU7JhvtND4xkBYcyrY3RQdPfaxDYLw2n3QaMfyhNBObqrmZcaqVLLq6oNEanv1KXRJrUNqDLGLKKQTBiANPl9qd16dJ+CXEvv20W95ep/wAaBO2i3vL1P+NAqmutdk1Paeqc3ViWZ2SGZl+SLkpdNzljM2rdbW1IpFYtpqp9B71pPobu61o1dfjA9BcS1Htot7y9T/jQJ20W95ep/wAaBMeWsfylGTFGWetPN125COVzNbKuxrfoNwBbNj0aPTrlrM0B6LVqZCJh+FF1f60+lMCR6BHTqNW7MjkxTMxcxGbymXfQ4rceqRKlHmM20DVehixp+x2qi06Pei0l9tadIQMlsfbRb3l6n/GgTtot7y9T/jQLb3WT+LPjwmP5dmFXJyQnrjh3VSpV8wXINYvkMwKSxLoIyRh1LqutShN3RKYIOHa0Ndfrkpyi8mnGBJsmoyLjoUaVatyyLjkN0S1WKZFk7rBMBHFpo+ARA/trpOkX5us9tFveXqf8aBO2i3vL1P8AjQKfcZXntMW3VkVB5MPYTC0Q7ed/tXvep3l/JenpXSt37F+28Gjd63Fq09VbzuqD7aLe8vU/40CdtFveXqf8aBTkyVl2a4sU4tXVdDv8Wat/gJH6Ilb1nlXrVMq1KmUumVOLLlSo5sNNsOg4REQafAWhrNqIiICIiAiIgIiICIiAiIgIiICIiAqtEPRWa9/jw+isK0qkzKhCpFbqnZSU1EGVIF9gny0i4Ow0PCX5Qkgmd1N1QfbRb3l6n/GgTtot7y9T/jQJwPjaseqRa5eT09mc3HlVxp2AUmUDrTsfsbDHUwP+qa3RdHT44un4arGdOU9SzYZtI6Td+NuTLPuSPccd7GB0wXXWmnQBoh1jwd94vyf8ytvbRb3l6n/GgTtot7y9T/jQLT1K7dpZelFT1p5+qPI5qdWYwqlXzIp1SuGVdki6qnhPtsX6TON1jYFg4Jv9RoOICJ0uPWvpa3JCuDL9q3Z1j5qRI1XtKoVh2kyZdu7jRQqlxuxX2gfATIT4hda2g/EW+9tFveXqf8aBO2i3vL1P+NAtPdZNezH2WDbqxC7+R/EzCqMCsX9mLMr9Rptpu2+1UH4ABMZqBSuktVRp0CDaJouEBEer4fW1fG4OSVUa/d7l8Tb2tioVitUunwLgk1ayItQN96KOnpUMX3SCKRhwmBi6HheCK3Xtot7y9T/jQJ20W95ep/xoE91k/SvaYPyx68eSuzdNtZt22xewwW80pVPkAQ0vUNMCKDAaNO6O7r2PxdOpRd+8k2vXYGYNDoma40a2swqpEr0+A7QekyGprRNEel/fDvR7Alo0a+pxdbXuvbRb3l6n/GgTtot7y9T/AI0CTnyT/IrwmOv4/wB/vKc3U3VB9tFveXqf8aBO2i3vAr1OL/6oFzulO2f/ACKX+PnfSnVOKDtNtxmhtk8BDi9IkPjgQ6SwBx8zH/7SFTiAiIgIiICIiAiIgIiICIiAiIgIiICIiAiIgIiICIiAiIgL+L+ogh63/KNA+ET+ivqYXHK6DvROladzfx6Nq/2u0XV/ya//AHXYgIiICIiAiIgIiICIiAiIgIiICIiAiIgIiICIiAiIgIiICIiCHu/70618GyP0RKYXHUuhdjpfT9HQ9g9/V1drTxc/+XnXYgIiICIiAiIgIiICIiAiIgIiICIiAiIgIiICIiAiIgIiICIiAoet/wAo0D4RP6K+phccroO9E6Vp3N/Ho2r/AGu0XV/ya/8A3QdiIiAiIgIiICIiAiIgIiICIiAiIgIiICIiAiIgIiICIiAiIgIiICIiAiIgIi55c2JBjnJmyW2GQw4nHD0iP+bFBH1v+UqB8In9FfUvzf34qvP3rZ4uxxxuGlGWLunAhlNFtY6S4i9vh/pH/MqxmVyh8k8oLexujMPMyiUem4FtgRP77rpeK001qddL8gSUdpPJpKL/ADZzg/ho8s6J0inZJ5c1a6JQYm0FSrDvY+Hq8FwGh1uuh+KW0S3jkv8ALqyrzMyOtq985s4MrrUvGqdNxqVHK4Y0Hou3Mfaa7xIfJ0NTQNHx48WrVh7WOCserkWUeyx5LP4S+VfplTv3qeyx5LP4S+VfplTv3qDV0WUeyx5LP4S+VfplTv3qeyx5LP4S+VfplTv3qDV0WUeyx5LP4S+VfplTv3qeyx5LP4S+VfplTv3qDV0WUeyx5LP4S+VfplTv3qeyx5LP4S+VfplTv3qDQ62NacpMtu3n4keqGyYw35cc32G3cR4CcaAwIhwL3R1j7WHWFZ1ybLku66srcJ97XFjXKxFuW5KS7UCitx99uFW5kVnvbQiI96YbH/8AzqUdXOU5yaKpSJlLp3K1y6okmQ1ttVGDd9GN+KX9Bti+TrWr8tsh/FWcZeXpyZcu7dn2xTeX1SZ8SdVTrIFMu+2G3Yz7s850raJiM1wSHXXRdE9WkDIWtr3UG93jf42dclh265SzmHe9edogvb2jomIU2ZOxdxHTjr+4tGnh+2avB045PdHKwwoTzLLdqUWCDtw1y3yqly3GVLpDR019toBdmdGd0PyN3U00Qf6p7j4eL9Zl5x8lDMdq33MOVxYlu1K2asNbpdUpV40bCQxI6O/GLhkbrRgTUl8SEg8JVKlXLyVbepDlLtbl30elnLn1KpVKT262/J7IOz3Rdkb7Uho2OuPDoaEgwMx6haUE7mByzKbY1TnUw7aomEig2/Cr9cg1C7GIs0sZDRO9FpzQNuhPfEAx/wBY00WJtCBlr4dHy4zdq+Yl/XdblOs9qPb9pyY8Eq05Uud2Y+/AhzmxajbXCO3Mx14k7hp0hp16i2sUpM3kd2nHiQcueWjb1mxW6JT7fnN0u/KIWNQiwgIGCM3xdNp3QZjuME0WnHDxA0X+1M9OSHaNbvCt0zlNZdHIvGrtVmf0m9aYQtvhAiwxFrvvU2obRcWrHWR8XNzCIf13PirxL8reXlp2qdcuKTfL1vwmavW+iw22WKFBqD7+6EZ02WhF8RFrQ6Runq1CBcE7ydr0ue7svK/X70CRjUYd4XPC6M442ZRWYtXlNNMCfMIGLQNiAnj4qy+s3HyOZ1wTLxpHK+tChXFJuc7qaqcK9KIbkWQ7TGKc6wAP4G0Uc48VrnEwMsC4hMeHTM2hmDyNLRy2rWV+HKlsKq0y4H6vJqL9RvqmHJfOpPOuysdwDHD2yfc5uFBxRuWvGZpN1VGpWpbkuRQbIn3zGYt28WquLjEQmhdiyHgYAGH9T7X2rfaLj0GenistwcpW6bNqlbta7srYsW4mmqA7QIUWv77VROr1EoEduQ6TAdFMJAd90C+AhxCTvVWSViFyNapRXodzcuGnVJtuzahY7h4Xjb+oqJKBocWhaaY06wJhoxdAN0j6+JjpDC65g3fyLsxq1UrkqvKssWDU51PpUNiTAvekicF2nVA50WUxqIu+i+fPjr1AQiI6etqC/ZM3pmBcmaOalAvqExTioMqjtxqfGndMjMbsHBwyYfJpozAi4uNoeLUtqXmnLfNTkoZe1m5bo9l9ZlxVm73YsiqS6telHwxM47W01tAxtA2OjSOkR5uHDHrasSv/ALLHks/hL5V+mVO/eoNXRZR7LHks/hL5V+mVO/ep7LHks/hL5V+mVO/eoNXRZR7LHks/hL5V+mVO/ep7LHks/hL5V+mVO/eoNXRZR7LHks/hL5V+mVO/ep7LHks/hL5V+mVO/eoL/d/3p1r4NkfoiUwsjPlV8mF4CZa5QuWU1wsMRGOxdlPdce/FERd4iLxVriAiIgIiICIiAiIgIiICIiAiIgIiICIiAiIgIiICIiAiIgIiICh63/KNA+ET+ivqYXJJlRWH4bT+HHIfxaY4fD2jL80SQdaIiAiIgIiICIiAiIgIiICIiAiIgIiICIiAiIgIiICIiAiIgIiICIiAiIg/mPuKEr2AlUKAJYc+GNRL6K+pvH3FB3B/KNA+ES+ivqK1ez9prWqvd9JpNwOUel1ykQ6lDlzXWn40tgHmnQxiv44iQHhpIeEVYNai6qeqq2/8JH9DfU8vfp5nzd/gxeSnmvi7MjWa9Z1Rdww+ybde2G+Hqh0c9TQB+K0AflLYeTRkjH5OWStu5OxK9jWmqAc7anFF6OToPzH5Ijo1n1d/R1uLTq9r3FqyLXhIiIgIiICIiAiIgIiIPD+b1/yIF7Z5bGblwQb2t24aE1YVut3BIZafkO0umH0dqCBaJouuulutGDoDq1aA1kR/G486ZETOWLcUK9ZlNxiZoDblXhT74lOux6YLpQzJ+jA0MKFDM9o2n3e+nutFu63dC9e25YdCtu47puan72M67KkxU5+6YmIvNQmIgbfDwjtRW/a8bV/WrMIAJYmIjhiXWxQeGrfv6bElXDbg57Sp1Xq9u3E6N30m6JlVGlkPED9ToD4/6KJjUAj0fTxAYHpX8puc2Nj0iq3xFuqo1CkZb1ihVS43aNf0q7KJUKdPGZBdFqVI7+DoE41KdjGRA1tRzDrkZ+5BaACIxARI+tj4y/rTQNDoaARH8VB4LdvPlF0a2bhy9Zui4pd5ZdWrVbvnyBxN6Q+9Pp0YorWn/Wg0/MrGy0eriprXDwgpG+7y6I1ctJyDzouKs2o7SrWOXWmLqfrRU+qSLhjMd7mPOOm067FN3Wxq0aQDvQ6+P3Ovk2y23hzNgI4Ylq4UHgflOTqFSLTz7sq8Mzrlp0y37TjRbHpMu6ZpFUYDsEyfdJh13/SRG/0lp110XTaBrrBp1L36vmQARYGQDzj1SX0QEREBERAREQEREEPdgmdrVltscSI4EgRHD+vaJTC4apPCmUuZU3G8TGGwb5CPhaB1LuQEREBERAREQEREBERAREQEREBERAREQEREBERAREQEREBERAUPWhMqjQiwDHHAZ5kX4v2K+phcMya3ElQWTDEimyCYDHxe9G5/20HciIgIiICIiAiIgIiICIiAiIgIiICIiAiIgIiICIiAiIgIiICIiAiIgIiIP4XuKCuP7toPwiX0V9Tpe4oC6Puug/CJfRX1GTV7P27dajaieqr2/wD48/or66ta4Jha6xQP8cf0V9YcW05WpERdXDIREQEREBERAREQEREBERAREQEREBERAREQEREBERAREQRFzR3pVuVaJFDFx1+C+22OHhGQFhhh/wCql1H1qoFTKPPqLYCRRIzsgRx8LQOpSCAiIgIiICIiAiIgIiICIiAiIgIiICIiAiIgIiICIiAiIgIiICiavHffqFEeZHEgjzzdex8UOjPj+cQqWUfPn4wpdNjYAJYTpRMY4+L3pxzn/wCmgkEREBERAREQEREBERAREQEREBERAREQEREBERAREQEREBERAREQEREBERB/MPdxVeuvHTIoXwif0V9WH+nFVy78dLtD+ET+ivrLLqqNn93f71xPnrrdB/x7v0V9fXd/vXMR6q7Qf8a79FfWXDXn6XRERdXDAREQEREBEXmHPjLOyc077nWfa9sNVPMafHp7sq6JPO72jwgc1tyIzpcUeSWl0mmGNJOnxu6Wh1oPTyLkZlxpDrzLDzbpxz2nREtRNnp1aS8XhIcf8y8q5Y5r8oC9bnod2mzVAodVvGrUOdTprtEZpbEKPIlsCEXSXZI5jXRwI9eoT0yO9AOnQHrVF4dg5nZ3zcpLFumt5u1OXLzJy6rlSmgzS6dHCnS41OGUw/EMGNYn1hPdJ0MdeoRa4V0R8x8/BjN2TZdx3PJctPLehXA1Ui7XwGbLmhJLdqRzdr7DHo4NfYoCfA6Ru6tKD20iwvJ+6Myr2zWvty6roKLSLYepMSLb0SNFJgHpVHhyn9crSTruAOuno0mHWLVrHRprOYmdl623S89JTFxtRXrPuq36VQtxhjmYjzIVKIg5iHvmt2VK9stXW5h6iD00i8tSs081LOzAl1C8a5W5VEqNeqsC3WqXGpc6gVAGmJJx4G61pqMWf3jjJ3U1utOh4QaaJTM6+Ugzk/OzSk1SpExVcrK3djUmqY0DBiLUGoAyYr9LYimUh2OBFpIJQulxM4kQ8QmHtaTKjQY7sqS82yy0BOOOGWkQEesREkmXEiM78mQ2y1w4azLSPOWPMKxjNCqXhZnJOv8AuaqXP2fuKDZFYqvSp1Oi4tb/AEN10G9gWto2ALhEXBPUA8ZHxEWNZw3ZeN5Wff8AVqpmE7T6ZbGZNsWxFtnCHDxjOtdNo7u66e10jfI5BuhodANAhwdYkHtZFkGe921+iv2hZ1oVu5INcuiqPg01b8CnPzX47EVx13S7Ui6LHAcdoiMwcIsOAA1FrHI8rM1s3M4nMtaAGZ8yhN1qmX5jVqjT4FNfmSTo9bhwYboETTsUHSadIjxADaLWekeoQh62cdbabJ14xABHURFjwiv4y8zJbF5lwXG3R1CQlqEhXian5sZoZtZbV1uu5k9rQUHJ9q5pmManQ8Wq1LkHU2H3X8HWjMGAGAGoWCaLAny4+ovVGSH8ytgf/wBL0n6I0gu6IiAiIgIiIIy4Ib1ToVSp0bTuyYjzDerxiAhUmoy4Jj1MoVSqMbTuxojz7erxhAiUmgIiICIiAiIgIiwHlG2TaOYb7tOYtKyr0vaBQpLkKi3dUjahwoDrmh2e01tOjvCYAGvvRc3Dut4IN+XI/LjMPMNPPtgcg8W2hI9JOHoxLSPjcIkX+VeeMM1X7W5G9qXrZNzSps07btdhiqVtoCmNR5rsWGVSlNaiHEwF118uIgImi4jFQmYlJuosy8rbLwz1erdUiZiyBColT4HZakNO2rVSNp8Gmxik6QazaMo46RMNQO6eIPVqLxlGzhzyqtw0HKyn1q5KlLGq3rGlVqiRqIxVKi1SKkxFijzTxGEJ7UrW7tNai2hxAQHXpnLfzGznvaWzbV1ZoQsu5tAsEbpm1SExTZ0adIxnzI+6/ie610VpqG066DDoFqlad0NIoPUzEpiSbwMvNulGc2XREtWLZ6cC0l+NpIf+Zda8d5ZZkXG1yhrwsSNUMKNQrizDOe7czTDTsWsS2rco5BSYurXtG6AOvmZ/6prQ0RmRG1uddvWt0rP+0bH7JgxQatZ9xVWUy42OGLsuJKpINHuY4ah0tSpHDgXNx85dUEGoovFNPzszrqmWVuZrTL5qmFtM2THrlYm2xDo8p+DL3ZJuzKlBlCLpwdhprSMIhd73I/FMZwM4M+bnvm461aWFU7DW7fMS3WoTrtEj0d+n6ou70g5BDUOlOtSCda2tIaijhpPj1B66XJGlsTmN+LIbdb1k3iTZah1CWkh/5hIVk3J2rN+XfSbivC870k1Rt26bgo9Np3QozDEGJArM2M1jqabFw3SBoRIjLT3oOYcC1keU5a5j5h3zcMOzG8wG7Mgwmb0rsiZApdPDCaUO55MNpp0XWjEWGmh1Ok3odM3RInRLVrD1jFlRp0duXDktvMOhrbcbPUJD42BYLpXl/KW83bB5AFkXeFVepj8awKSESUxACc6zJdYabY0MG40LpYuuhpEjEPGLSqi5nRnVTqheWXpXbWYtTo9y5fwY824IlGk1KG1W6l0aS06FPHopDtBgQcIn33rdUkHs5crMuNKwcKNIB3aMmj2y1aTHrD+UvK0jMTNmLmSeRJ5qVPbk5iNUELqep9O7JNU8rZ7LbGjCN0TdKQO0Jkx9q1cJHhrV65JuMnC3b/B+sjWHmsx7ijnPwER3yCVoxMhDg18PFo0jq1aRHqoN5REQEREBEVdh3tZ9WuOo2dTbso8m4aPgB1CksTmjmQxMRICdYwLEwwIDAh1D4QoLEo2pw3pM2kutadMWYTzv5Gw6H5xipJRtTmPRptJaa06ZUwmXfyNh0/zgFBJIiICIiAiIgIiICIiAiIgIiICIiAiIgIiICIiAiIgIiICIiAiIgIiICIiD+Y+4q1eWPOVD+Ecfor6spe4o6p0uDVY/RpzOLg4FqHSRAQl4wkOOoVFT2l7wo12XBVbcpBVKk2bWbnkCYB0Ckuw2nyDx9Up9hrQH5SowZt37jWaQ4XJhzNEm5ZmAYz7a1OfYz+HNh/pX/j7fN7i1KqWpSI8+kMsnUMBlTDae/wBKSuIOjvn/ALTxhFTMC2KRTZGEqOy+bw+0JPyXX9P5Osi0rGcdL7SoXdizF/BPzV+UrV+uU7sWYv4J+avylav1ytWRdLNlPdizF/BPzV+UrV+uU7sWYv4J+avylav1ytWRBlPdizF/BPzV+UrV+uU7sWYv4J+avylav1ytWRBlPdizF/BPzV+UrV+uVnt0W9Zd81yRc17fwc9WuGry8BF+oVWmWVMlO4AOAjqddqpGWkREcOfH+hemEQYvTsx7qpEqozaVyPMx4kirSAlTnY0m1GylvC0DQuukNYw1nttNhqLwQAfcHBQsWotQbuezAhchO8WLofxI3Ky2NoDNMyDSWOMjstrx1Dw+77a9BIg8/S7+atiiQnqlyNLtpVHtuMUWET8iz2I1MjmODRNNYlV9DIEOkNI6R5uYVQouYeQlftQJ0TkfQ6nbNja2d9qXYjsGhai3TDV2Y0RuPjIeHi4lqXLOjdL5L+YkfozUjcpOnadLSDnfR4Sx8VZpfdj5w3Rddz5g2xlPPoEOTBtKiHTH+w0mpSWqfUZMmRMhtOuuwt1gX2xjk+WrUBkI8LWsLFC5UtqUygTMzoORtbiUOsSwGXcLVy2Y3GmSQAWhF2V2b0OuiDQhhqLVgIafBUBdmc+Sj9UpeYN98lltydcEcApdZq9VsUnai0HV2H3azzuiOrwSLrKHpeU2aMeZdlXuHLnMJyVJv6Pd9v1qlV6g9mYOB0NqAbu0ZDCdd706060YaND4kJPmOtfarZb51YWzTq1jl5cEa+Co9UpeEu3XLfwizGHJ77rEWsU6UfRe+gTTrrkUy767I0kPDqC1sX9ZNPu0MwYfI3q8a5Z9Vdpo1lmVZgTX6mQkLscX+zGs39IGJhz6uYC5+qoOdmxkhl4FUl1TkmNW2FzlLodTKRUrFiDUy1fZUN3VWB3uI++tF43GPtqPunILOKfdNZfj2vTip9MitZgUNqFMaailejTVPbCGwBmJtNaoEotZaQ+z+t11J2ZllmZldVYN71LKmXesq5bKfgVumwJsDXBrkqoyajNFwpT7QGw67M2iIDL7lDg06UFur3KHpz+JZb3PydrnfxqsB1l2hz65ZxdLhEwZOgUY61xtbAuEWGI6dAl4POqRRs68o82sw3pFv8j2XedwNUxioO1eG9Z1Rd2QdxbawxlBVTDgIOAd3UPiiPEo6iclnM2nZU5iWNMjQZNdquUFu2XTqoUkdEybFhzGpTGv7aDRG60GogHUJ+FpWqZdUK86vygarmjVcp51l0Z+x6fQG258qAcp2UxMfdIMQiPujoAHQEC1eN/RpQf27bnnZgRItOvvkRXzcUaI/wBJZYqp2jKbbe0EOsQdq5YCWgzH8kiwX5o1ectipFVrc5Dd50uoGUtwpcIbRYeI5BNFILWFW1d9KOxr8baa1dQebe0Qecqk1RKuFLbqv8H/AHLMbojZN00X4tnOBDAi1EDQlVeAdXMWkfCVrp+aN70uBGp1O5I+ZkSJEaBhiOzNtVtppoRwEQERrHMIiPuCtiRBlPdizF/BPzV+UrV+uU7sWYv4J+avylav1ytWRBlPdizF/BPzV+UrV+uU7sWYv4J+avylav1ytWRB/kby/eVzymcteUzbj+Wb9+5cOvWhG57cqb1OntSz6ZN55PRo0iXGLUOGjUXfe9e5gOklqfJh/hDuVDmCLEW9eS3Pu+AOOIyq/apdGGKDXtO9IbkHsC7+ITzHhcK9rXbyfsm79vlvMW98vqXX6/HgsUtp6pCUpkY7TrrrWGweOLWoTfdLVo18XWVoueJGhWVV4cOM2zHapcgG2mg0iI7RcIjgornrIjKzOrtdtibAhWjV6fLnwHWmikYRD2CNvER1gMni5tXtjqWfvHyq4TZSJ+YFgxYzY87jx5cSCBsfGLTcREtt3FE3gX8U618HSP0RKa7KUbtd5U3njyq+bSo/XqdrvKm88eVXzaVH69WrItUsp7XeVN548qvm0qP16na7ypvPHlV82lR+vVqyIMp7XeVN548qvm0qP16na7ypvPHlV82lR+vVqyIMp7XeVN548qvm0qP16qpeuROa+ZPRBzFuDIe58IBEUbCs5Qypmxq62jdrRadX9y9Aogwt7KfPGSUrGRemSTvTaaNGk4FlPMLfp469EU/9NcTA7rneseHjL2uLFcFuZHZt2hFgwLVr+RFJYpk12owm4GUMpkIss2SYN9vRWsNDpNEbRGPFoIh6uK9Bog8913IfNW56bjSLjruQ1TgOTnapjGlZPynW8ZrurdkaSrXNunrPUfWLUXOqpHtTDNl+mWpGzd5Ld2v2zBCTTqY3lrjOKmRSENJNNDXS2mtO17Y8PU/FXq9eC8l7LzSvHInJZ6xMrGKY9Z9gVeVFqVXdhlTqvLn0k2ozG2DpukLr7oOv7rQB3rwuFBqdKKuXlTq/VKNygeTPXIECoNVyvSItgFJZYmtCG1MkmNeIQdAYrel0+IcGA9vg9rkurB7MK14d8Xryg+S/cVu0iZizFq9UsIpkOLKIebSD518gFwhx6urViqrHyczTq1Ymy7oysvWt0CpWCxbhRZ1Yt+mzo8qPNafAGBgGEdoQw1FH6wa2tJbQFrKdHL/NmpQn6vctl33LkUq5o9Tt6tRpFuxLui4jTXYxynxaLsbNAd02BF3j2jPHQekUH3nZbhcNKYr9SzG5LVQpVsU1qSxOdyv3Y9LgEZk0eB41zS0wRg4Q+4GJCWOHtipG67OrtJuh/Me+s2OTVDr1FGJIfrdWy0calQhPWEVwpDtc1tasQdFssS8E8A8NVvuEZt3a5ZkW77QgNUu5xk07MAWuhxSGnwqyVSpZvsRy2jffEn2pAsaw3ZR49TUvnZWT2c1vOWdmjfNmSK9cVvXQJVGjxZ0MpEimxaCdJiymCN0GCLdJ2Ztm6JCMx3wxwDEL1T61ftt0Wny6PylOTzS6LX3X5lNdj2O8zFqDr0nDedaMK/gDpHIkDqIes6/hz8Zqh3I09V72tDKzC+uTfdlWduOoQm4UbLDGWVBqBxZlRkPOtdnCOObpRXNfDqJ0tRKy5a5JXxHzZtnMW5LLbp8DCrXvXehPSIzjlFxqJwBitFoMhxddFiS6e1qATdPDX40VllldmtSatkTbVXyqkQwyqrNa7MXI7PgE1LZkU6e0MiKIvnIMJDr7Bu6wAhMg4S0kYBo5ZUZ6OWt2hle+ShWzjE6B2H7k83oHRdOjY2Ozmjb0+Bp0qIp/J3zGpRx3qVN5P0N2ELIR3WMm5AG0LMjpTWksK14Ejv4+K7x9biXotEGAVvJPOC6YlRh3NcuRdVZqslmbUG5uUcp4ZMhoRFp13VWuMwAQESLiERHD+hSNvZZZ+2dTsaTaV+ZL0WDge70Wm5UzYzWrxtAVwR5+HBbciDKe13lTeePKr5tKj9ep2u8qbzx5VfNpUfr1asiDKe13lTeePKr5tKj9ep2u8qbzx5VfNpUfr1asiDKe13lTeePKr5tKj9er/I7laZF8o3Mzlw32FsQiuS5Ib9IGRVrapEqEwy92JiE0W1uyXYuGkgHcN3Rr9vUPVH/cdEHgrkx5W/wjOXTNPmZpZ50l+3sHWGnaNdUfszUdbrwN49/ad1j1uEulH/8AlL2hKo9yzJEOQ7WqVgUGRjIaxwpbvWxaNvi7/wCK4S6bp/kpr4Sp/wBMaUju/wB6yrZSGkyrgpODUmfUadKYOTHjk21DNksN10W9WrF0vCL+pWRV65HdVPj/AAjT/pTSsKSUIiLVIiIgIiICIiAiIgIiICIiAiIgIiICq/dSyy84tsfK8f8AbVoVWys/mztH4Bp/0cEH97qWWXnFtj5Xj/tp3UssvOLbHyvH/bVoRBV+6lll5xbY+V4/7ad1LLLzi2x8rx/21aFyy5kWG1uyZDbQYEI6jx5h1EWkcP8AiSCB7qWWXnFtj5Xj/tp3UssvOLbHyvH/AG1OM1CA/JfhszWXH42IbzQOCRtaurqHwV2IKv3UssvOLbHyvH/bTupZZecW2PleP+2rQiCr91LLLzi2x8rx/wBtO6lll5xbY+V4/wC2rQuWJMizGt2NIbdDEiHUGPOOoS0lh/wJBA91LLLzi2x8rx/207qWWXnFtj5Xj/tq0Igq/dSyy84tsfK8f9tO6lll5xbY+V4/7anW5ceQ880zIbM4x7bwiXPi2eI6tJeLwkJf8V1oKXMzEyvmSYMg8yLaHGE+UgP9LR+LvRteN/4q7O6lll5xbY+V4/7akK0RjUaEOB44YFPMS/G+xX1MIKv3UssvOLbHyvH/AG07qWWXnFtj5Xj/ALanWJcaSbwR3wcOM5tOiJc+2ekS0l4paSHH/MutBV+6lll5xbY+V4/7ad1LLLzi2x8rx/21aEQVfupZZecW2PleP+2ndSyy84tsfK8f9tfzKz+bO0fgGn/RwVpQVfupZZecW2PleP8Atp3UssvOLbHyvH/bVoRBV+6lll5xbY+V4/7ad1LLLzi2x8rx/wBtWhEFKqV/5QVmC7TKte9nzYkkNLseTUYrrTg/jCRcWC7e6lll5xbY+V4/7atCIKv3UssvOLbHyvH/AG07qWWXnFtj5Xj/ALatCIKv3UssvOLbHyvH/bTupZZecW2PleP+2rQiCr91LLLzi2x8rx/207qWWXnFtj5Xj/tq0Igq/dSyy84tsfK8f9tO6lll5xbY+V4/7atCIKv3UssvOLbHyvH/AG07qWWXnFtj5Xj/ALatCIKv3UssvOLbHyvH/bTupZZecW2PleP+2rQiCr91LLLzi2x8rx/207qWWXnFtj5Xj/tq0Igq/dSyy84tsfK8f9tQ9z5j5eT7dqsCHfduvyJEGQ00y1VGCNwyaLSIjr4i/uWgKFvL70638HSf0RKK1ezs69xRN3H/ABVrXwbI/REuzdUXdR/xXrH+AkfoiWNV8Wkvr3UssvOLbHyvH/bTupZZecW2PleP+2rQi6eGSr91LLLzi2x8rx/207qWWXnFtj5Xj/tq0Igq/dSyy84tsfK8f9tO6lll5xbY+V4/7atCIKv3UssvOLbHyvH/AG07qWWXnFtj5Xj/ALatCIKv3UssvOLbHyvH/bTupZZecW2PleP+2rQiCr91LLLzi2x8rx/21w0y/soaNT49Lo16WfBgxWhaYjRqlFbaaAeqIiJaRFTs+4aHS6vTKDUq5AiVGtG6FOivSgbfmE0G66LAFjqd0hgRFp6o+2plBV+6lll5xbY+V4/7ad1LLLzi2x8rx/212wbnt6o1upWxTrgpsqsUbBg6jT2JTZyYYOiRNE60OOprAxEtOrDDVgPtKbQVfupZZecW2PleP+2ndSyy84tsfK8f9tWhEFX7qWWXnFtj5Xj/ALad1LLLzi2x8rx/21aEQVfupZZecW2PleP+2ndSyy84tsfK8f8AbVoRBV+6lll5xbY+V4/7ad1LLLzi2x8rx/21aEQVfupZZecW2PleP+2ndSyy84tsfK8f9tWhEFX7qWWXnFtj5Xj/ALad1LLLzi2x8rx/21aEQVfupZZecW2PleP+2ndSyy84tsfK8f8AbVoRBQq5f1j1iPHplFvahTpjs+Fi1HjVFlxw8BktEWkRLn6qs24vheP8ih/j4H0ppfLd/vWFV8mk6OK7J8aHSQmTJDbMdidCddecLSLYhKaIiIvBFdHdSyy84tsfK8f9tc1ad1R4vwlT/pTSuKrEmlX7qWWXnFtj5Xj/ALad1LLLzi2x8rx/21aEWqUVR7goVxRSnUKtwalHE9k3oUkHwE/F1Bj1uIVKqrWh98F8fDzX6rgq0oCIiAiIgIiICIiAiIgIiICIiAqtlZ/NnaPwDT/o4K0rMMuL9okPL22IbsG4iOPRoLJk3btRdDULAdUhj6TH8YfaQecKBn7nZQc+GIWZF5zHbWuC8KlQ7cbodOpNUt+otgD/AEWH0lh0Z8Obztce7ujrAh0AKouUfK25UtctWNm/WAh1akVa1bsrbtJmSaIy0xIgMvuxRpzEd3sk6Im0DDoviZd918K9cU+28g6VebuY1OydYiXZJMjerjOXspueZn1yKQMXXiRe3qLUvrRKLkVbNyVG8bbylwpNcrWvCo1KDl/MYlTNZ6j3XQi4Geoutq6yDzXlDnTnVcF/ZSWvXeUbDrUXMvLWpXdUnGaLTmjo802Gia0aWvtTBEekXfbImnd3V1Q9IZ+16sWnlCxUoM6PNl4V22IpypMNp8HwfrMFh0sGiEg1EDpacebhLHAh04iKoOGRmQsLNO38wLYsc6BTKVSazTJ9vU7LiUzCquFRFoHSf0RhE+BrRpIC1CS1yXcGX9SpbdAqFoVaRS2CYNqE/Z082AKOYusaGyjacNs2wMPFIB0+2KDPOSbbb1GbzOqku4KhVpNQzCrjbrstiGBY7EowAsSYYaItQ83tFqEdPBp9zGjwuUFmI5ljk/W+2iL2auy2LhqdU54sfU/IhUt10S0aeDQ+I6sB/JJegabddk0RuQFHtmuQhkynZj+Eaz6i1uyHT1uulojcRGXEReF/eq1TbcyDpNQmVSlZNsRJk83nZclnL2UDkgnRMXdRYRectYuu4F426fu6i5wx7HOTM+wafTqveea8ypM3RlPKu4iK34bvYqrg/TmGuhsNCwTrRnUftUh0uIQ76A6lzxM8M3Lcr112dWrire9b1dy5bJ64WqMdQYj1qtlFmx3exo9F0bDWGnh3R3Sx1dQ1vs5/KaqxhhVDLyTKjhSnqGLMixJhhhTXdG7D0lF+5z2mtTXULaH2uH2oYLT5O7UF6lN5IxBhyIJUl5nDLqVgDsInd4mC+xOJrd75o6uvi6yDLcx74vm6c4itCmZlVWj02h5qUKiNDSW4WoWX6CUx1p0nWHdXffBLxvyNMLlbcWYeX9uWLXqZd02oUe5MzbzoT9sdBi4RSY6ZXZIGDu10jf34Y/63RpLRteEty7XMgcKI7bI5NsYUd2Q1Kcp+GXsro5yGvtTpNdF0kQ+CSmWqrljHjQo0exZ7bNMnvVSA2FkTxGLMd3d19oejcDp9If1GPEW674xIPNFp518o2ZlezmpNmzyh3Dl7WLlMqkVBGLDmtQOksFTGopnKNpp3vRjK3S5iAj0lqFf3OS8M4KPZNxUKdnDWpJVzLZi6sJLECBFdp0vpkZl1qKQMaujmD+P23ddHT9tXoCBQsh6XKrFRpWULMSVcMd2LVnGcv5QlPZd+2tP44Re+CfhiXW8JSNSlZVVlt2LWMv5k1mRTXKM6EixpzglTz68UsDjfaC0jzt9ThQYw/fuYTGbVVyihXo/TG6rmDDtt2526ZA7I4NNWdGqGPusdHOS++GPGbRCIaxAB0hp+eYuaV+02m427amctYrtTte26vXKtVrbpNDbYIY8x9iO7OdnmbXAUV9l1qK0JE6y6WpjDQ0tbfo+RkqgyLVk5RYO0WW5HORT8cv5fR3CjsttMGY9F0kTTTLQAXgi0Aj1R5vy7QMh5B0TF3KBksbaa2KPhjl7K/wBHNasD0MfYveh1gJaQ5uIcEHm2s5wZlsFdudEe7ai9UHbDy4m02i4BDwp1Ol1mTLjPyWhdES70Dr7o7rujHUe6RALW1dpGYWftCmDZFcrlXo7Nduy36JAr1Y7BP1uC1LblHKEmoWuIPP0ZoWDdj/8AxRcJ6Fpjlt5Gwp1HOl5SxYrceK7QyBuwn2eekk0+RQgHo3EwTp68WB4fbI9PWJdsS3shIFsTbIh5PNsW5U3QfmUtrL6YMWS6GjSbrXRtBkOgOIsPBHxUEFyXGZrFczwizrlOvvsZmOsHUSbabcf0UKkD3wWhFrdHToPSIjrEuEerhvqzi1qjlnZEORTbNsSfb8OQ8L7jNLsifGbdeFoG9ZC1GHUW000GrxQAfB5lPd0ageT7n9Fap6ugtKgbhuGNb0YXHxdekPnsw4bOGp2U7/QID/8Ap6ojzkWKjncxadi2XQaJdEt/HHHBpjC3JzOLheLrdaAA/KMhFfe3qBMCaVz3KTT9afDRgLfE1Ba/2DX/APMfWIvxcAAQ6bJpEi3rNoNCm4t4yaZTIsN3bLUOtpoQLT/xFT6IgIi8z5gZ/XTRM5LhsjDMyxrKodvjSR3q5aU+pE+coSMydlNTo7EQPaABJ0ebUXWQemERYkHKjtN+BLqMaybueALkkWhSxwjxQKtViO/JakMRcDfHhawhuuk67tNaPC1CYCG2oqTlzmTQ8xaLPq0CHNpb9EnvUusQKjtjIp8toRM2nCaM2i4DbPUBkBAYlgSoFL5WVgz4Tdcdtm56fR6nRKhcFBqMliLg1XYcVjfdKKAPk6BE130BkAxqDiQbqi853hyvqdRLLuG4Kdlbd+FQg2qN20aLURhsDVYBuA10gCGSRNCBut6wd23dJcIErDXOU/a1uS6hGqlm3THi26cFq6KhpglHt2RLbadFiVpk4m6YA+0bpRQfABPVrQbWiz+xc2KbmHcVzW/RLZrwR7UqL9ImVWW0w1DKa0eAmw13zdPHSQnq0aNJYcWrhXJ3dLM7H41LodU2e3XtF5tgNXZDpXRdfX+1a/C62nwUGlosXofKYs2s0CrXvJtm5qXZlKhVKoYXPIYYdgSGYRY7/NhHfdfZPgLSD7TRHpxwHDVwrln8q+zaBTKvNvCzbwtyVSIEKrYU2ZGivypUKVKCMD7QxZDo8LrgibRELo6h4OIecNyRZzeuZDlvZYt33VadV7bN6ZTY7kSTFYlS4+MiczH0EDT+LXFu9YXS0iWvi06FQrq5SUqRW7ZptlWrWsKTUcwGrOkXFLisFTphtOvtTGmND/SBIHWHQ3TaFrU0Wkj4dYeg0REBERAREQFC3l96db+DpP6IlNKFvL70638HSf0RKK1ezs+G6q7mJcdEtmxa9W7jrEOlU+PAkbsuW+LDTXAXWI11VrGsP0eYzb0+HEqhsEEOTLilJYad08Jk0BgZh+LrH8peR5lLueyCnV7lQbVTr0eLI7HXjUIDtVt+HI1loJhpp1oKV3rh1OxxPX/8U71Fz/xbvbNtXJSbuosW4aBKdep85vByM45HcZxcDH3C0OiJ4f8AophVeMVz1RhqpUm7KBIhysZD8V0KU66BsGGHReYxk6T0lxEeHtOjjw7XWX1bhXkLg7lwUYh3Y+JCNKdEiEQ7+H3TjxGfEBeAPCWDvXXXw51jRVroWYHRtPbJQOkbGnc7CP6OkbnW0dM6m1w6NXPr4tXNwL9OQryJwtu4KMI7sjERKlOkQiQd4D7pw4gPiMvDHhHBrroLGirjcK8hcHcuCjEO7HxIRpTokQiHfw+6ceIz4gLwB4Swd66/PQswOjae2SgdI2NO52Ef0dI3Oto6Z1Nrh0aufXxaubgQWVFXHIV5E4W3cFGEd2RiIlSnSIRIO8B904cQHxGXhjwjg110bhXkLg7lwUYh3Y+JCNKdEiEQ7+H3TjxGfEBeAPCWDvXQWNFWuhZgdG09slA6RsadzsI/o6RudbR0zqbXDo1c+vi1c3Av05CvInC27gowjuyMREqU6RCJB3gPunDiA+Iy8MeEcGuug8q3KeYb3Kby0va+snrqj1KRe1SpFDewn0h2JEoo0apgGDWmdu63NRTXyMBLSANDqJpoT9Ru5jWU1ZlUzEG4Ij9u0VqoPTag0WppoIRuhK58ef8A1ZMOiX4wYr7twryFwdy4KMQ7sfEhGlOiRCId/D7px4jPiAvAHhLB3rrGs1+UU5l1GqVHhXPSaxcdLmUqkSmgtepDAjzpk+OAg5MF0mAd6LKA+ik7ulwn1T0oMny1PNPLy9rOz5zBy6boUTMKpyod31HswL7uA1mQ12IF1jSO10UmoUPVqLSDprnouZM3HJepXVbubV2zs73LNq0y5baZqL9SGnTmjDpBFAPdagOxS1CwIC1u+K6vRLWdFEl3qVkQ8wKVjPOqTaS04VrVHoOM0WtTULCfudFOU0QnutC7rPSQaWiHFQ9G5Q9pXC80FAzGorxzoxz4sp60qpGhzmoTRFPFqUZ7TrokOJaAIjaASEgc06kGQ5h31blKtdpjIvOys3HbEi6qHGuuo1C9JrsGkwnWJZ8Fd0OyIu663DB7S8W0LgfaN3WXLIr1xYWNS3p/KBth6hhdtUxpsR3MSrQYVQhBGa+w8bnFoJDrrEgnyHVui6BaS1bBaNldz8odLplPZrWZdvNypdGg1OXJhWhVJNOhYTHdTUiU6DuiIw63qEelG0Wrnc1aeBceanKFZsp1+36FW6RVqpEuilW87EK2J/QmDnzYbDUcpoudF6Sw1K3ya16zAR4GusgxG7c2W2beoOYb+ZNd6E1ZcKTHtebfcii3EJg/J+zYO0HRK+7I0tADTo6T2mv9voL3cy5g8yD2AEOodWkh5iUD2Mu8nWnZFdojuDTsc8f9EO4FpEMcH8BLpXCRF1C8AeEsHesv50LMDo2ntkoHSNjTudhH9HSNzraOmdTa4dGrn18Wrm4EFlRVxyFeROFt3BRhHdkYiJUp0iESDvAfdOHEB8Rl4Y8I4NddG4V5C4O5cFGId2PiQjSnRIhEO/h9048RnxAXgDwlg710FjRVroWYHRtPbJQOkbGnc7CP6OkbnW0dM6m1w6NXPr4tXNwL9OQryJwtu4KMI7sjERKlOkQiQd4D7pw4gPiMvDHhHBrroLGirjcK8hcHcuCjEO7HxIRpTokQiHfw+6ceIz4gLwB4Swd66/PQswOjae2SgdI2NO52Ef0dI3Oto6Z1Nrh0aufXxaubgQWVFXHIV5E4W3cFGEd2RiIlSnSIRIO8B904cQHxGXhjwjg110bhXkLg7lwUYh3Y+JCNKdEiEQ7+H3TjxGfEBeAPCWDvXQWNFWuhZgdG09slA6RsadzsI/o6RudbR0zqbXDo1c+vi1c3Av05CvInC27gowjuyMREqU6RCJB3gPunDiA+Iy8MeEcGuug+l6489C/+thfSmlw7q/NVt68qvCxhSblowYE9Dd1t0d7DHvXE7/8AFeE6IEPiDhpLB3rLlm0e4Ykmnx+zVPLpsg4+rsafD3px3V9v/wDD/wDuXLlmu3xaRU8P5VXdbUT4Rp/0ppXdVVu1KkT7BVOsxX2GX2pGLbMMmyIgLAh4idPwhFWz3MFeKbjZ5deb+oiLdCrWh98F8fDzX6rgq0qrWh98F8fDzX6rgq0oCIiAiIgIiICIiAiIgIiICIiAqtlZ/NnaPwDT/o4K0qrZWfzZ2j8A0/6OCC0oiICIiAiIgIiICIiAiIgIiIKLmpmjlrlDQWLrzOuSJRoYScGYZOgbjr8ohLQ0w0AkbrpDr4AEi91Z/TszcwMzahDdodWoGXFuFIiBgdUmRZ1fqO+GDjDTUYHCjwt8OcgJ0n3TH/Uhj7eGm37blvXhGpdt3VQ6fWaVNnG3JhVCKD7D4dFf4SA+ElTImVt85cS2Tyivt06ELob1rXO47OiNN8/FhDme3Ki/iiWL7WHVFoMEF67oNg7HTO3egdH2el7vZNjR0fc2t3Vr6m73rV7mvh91fQ72s5p02Xbvo4G07IaISnNYEJxw1vj1us0PEfij1lYkQV0L2s510GWrvo5m67HaERnNYkRyA1sD1us6PEHjD1V8+6DYOx0zt3oHR9npe72TY0dH3Nrd1a+pu961e5r4fdVmRBXTvazmnTZdu+jgbTshohKc1gQnHDW+PW6zQ8R+KPWQL2s510GWrvo5m67HaERnNYkRyA1sD1us6PEHjD1VYkQVnug2DsdM7d6B0fZ6Xu9k2NHR9za3dWvqbvetXua+H3Vk+cNs1jMdi6LKDlCWvTbMuuDJolYpMqlsSZ8RptjTPGHJCQ0LR7R6z6Q0/tYlr4R4FvyIKRQrlo0OZPiysxLfnQ5EqCzR4bLjTbsVp6K3ssEe6W+bpg66BaR1AeAiJadZYxXsm8saxlpTbdkZpWXNfod41bMKnS6tGYmU0+nVKfrakxTf76wPZF2Nq3R76AFwlhpXp5EGTZa0yx8vLUmWpUrlsJt6ZNqBTmKDAi0aEBtNjvtDHFwj1NMiGsjMj8ItI6RHI7I5N1hWrbb1iwswcr+hjbj1q0idAtWGxWywnxiahuyZnSCKQ7jH1faxa3+cyX8rOa+a0J2+L4i5mGbFn5qU20ItrhToWxMgypVOaNp09rpG/pnOE0QOj1Q1iXEvxSc9b8ezQsqpRrtrMy0b4uyv0VgKtBpMSmFEiRZzgOxQaMqgO07DaA3Xy0nqMtDWpoEE9f2U1hXxQujY53UCC1hlrJtAZPeXQwB2VF0VHn3xw2xfi7WjwiPTuiWC5KnkTaU2/K1d9VvvKSZOuSazKuMqnaUWdKbmwIjDUwYLsiUXRQ2GGiNp0H9rUZ+EoWh5k59w6FLtuv33IjX/AFq1SqdJ7Mt0YrfnPjJhtOyqPOijzi19mADTU8CMjkR+sInr/szlDXlllGfrd3V+6ZMW2KnIh3NRrmplLaqMYJFJclQT36b9jviciLtNE1pLHpWkxMxFBt2WsWz7EK4WI+YdFqTlzXQ9WxAJDTZNHUcBcYY+2lrIhHUBe1rHqisxk5XU12ouPR+URabFnY3wzmW1E6E0cvX00SdaKZjM0YxikaxAxaEgMgHUWnSdFn8oHPahWzULbqtywzuzL6A7DvSaVPY2glz6tFi0uUYadAiEJyVKMR0iW0PgKx37mLnDY141bKWj5qS6u4FSsgWLhqFMgFMghWalJiSorosMNRzIWooOtd6Eu+8WvhQLh5PtjXHVrjlZh5vWJFZrdJrtu1iTQqWxRqjVidZ0unU3ekm1IdiiQu/ag0npPgHgUhCyLtOZbdVtuXmDlPT5dZ7CQ2JNq2lDpRkQym5jW7pkmbpyhYDQAmAcOoBJUzOSt3zcFi5n9nM1Z4wbFvS2rUZo8qDAwCohrpDpypJiwLu++7KMg2iaa5hDvXWXtlBlGbHaFmjYMm2cczqDTo78mmVnCd0pl4BjxKmw7q5t0OA3WNjXq4TP+vDSs5ZyhYp9WpVDHPi2Y9p21mBUL0h0nCCHTgf335kyE9K6Vp2mjmOl9pEwHFrV1eP06iCuhe1nOugy1d9HM3XY7QiM5rEiOQGtget1nR4g8Yeqvn3QbB2Omdu9A6Ps9L3eybGjo+5tburX1N3vWr3NfD7qsyIK6d7Wc06bLt30cDadkNEJTmsCE44a3x63WaHiPxR6yBe1nOugy1d9HM3XY7QiM5rEiOQGtget1nR4g8YeqrEiCs90GwdjpnbvQOj7PS93smxo6PubW7q19Td71q9zXw+6vod7Wc06bLt30cDadkNEJTmsCE44a3x63WaHiPxR6ysSIK63etnOOgy1d9HM3HY7QiE5rEiOQGtget1nR4g8Yeqoe6b6seVaVXcYvCgug7SZD4lhUWdJNcTGvrdXd71q8fh91XpF5XHYZ12zW95bgj+KUoRXHWqzR6jR51NhVKHJkS4rsdphuQBE6Zhp06Vebv8AvUrXwdI/REpfmw/qXN6Ffpp6iPpVIpNDpzNKotMiU6FHw5m40SOLTTf9PCA8IqRRF1MxERAREQEREBERAXmO9cis36kN82bbeFpOW5ed70q9MKnOqMhuZG6O7T3X4vRhjkBcUDhd3eq7hhp4fb9OIg8wWhyZa7bV6AzUqHSqxQI96TrtjVWTd9Zwda35rs5sBpI/Ym+0+7p3dekwDWQ6iIV943JvvVnLzLC0calQul2S3XQnGL7uLTvTKdOjNbXeuLjlNkWrTw4H1l6YRB499iNdtPObTXqVQLlgXRblFpNXGVd1ZpkWG/DpzUGQPQ4o6J7DjTIkImTRc+JAXCWobJX8g82zC4bJtvC0DtmsZi0m+hqM6oSRmtMsT4Mx+HsCwQatcQ9Du7xCQiQB116eRAREQEREBERAREQEREBERAXHK6DvROladzfx6Nq/2u0XV/ya/wD3XYoet/yjQPhE/or6CYREQEREFWtD74L4+Hmv1XBVpVWtD74L4+Hmv1XBVpQEREBERAREQEREBERAREQEREBVbKz+bO0fgGn/AEcFaVTYeWFrU+K1AgybiYjsADbbLVy1ERbEPaERHB/hH2kFyRVbuc0Dyhc/pVVPWE7nNA8oXP6VVT1hBaUVW7nNA8oXP6VVT1hO5zQPKFz+lVU9YQWlFVu5zQPKFz+lVU9YTuc0Dyhc/pVVPWEFpRVbuc0Dyhc/pVVPWE7nNA8oXP6VVT1hBaUVW7nNA8oXP6VVT1hO5zQPKFz+lVU9YQWlFVu5zQPKFz+lVU9YTuc0Dyhc/pVVPWEFpRVbuc0Dyhc/pVVPWE7nNA8oXP6VVT1hBPSZUVh+G0/hxyH8WmOHw9oy/NEl1qg1KwaO3PpYtTLkIXZpA8RXFUT0j0dwuEif4OIQ4h/J8IlK9zmgeULn9Kqp6wgtKKrdzmgeULn9Kqp6wnc5oHlC5/SqqesILSiq3c5oHlC5/SqqesJ3OaB5Quf0qqnrCC0oqt3OaB5Quf0qqnrCdzmgeULn9Kqp6wgtKKrdzmgeULn9Kqp6wnc5oHlC5/SqqesILSiq3c5oHlC5/SqqesJ3OaB5Quf0qqnrCCqWryfsvbeu+uXzVLeo1brtSuB+uwqjKpLJSqaTrTYbTTpaj4dBFqwxH7aXtKaZyXyfYqcqrhlXaOE6VUAqrsnsHGwccmiRGMjXo9t3WRlr62oiLwlI9zmgeULn9Kqp6wnc5oHlC5/SqqesIIumZIZNURmqRqRlLZ0NmssdGqbbFEigExjViW06OjjDVxaC4V96dlFlXSqC7aVOy0taJRJUtqc9TWqQwEV6Q0Qk06bWnQTgk02QljxDoDxcF29zmgeULn9Kqp6wnc5oHlC5/SqqesIOlyzLRJ+uSjtOjG9crYNVtw4DWupgLW0ISS09+EWuDDXq4eH3FG0HKnLC2KYNGtzLm2KZAbns1TCNEpLDTXTGtO1I0CPNujoHSfWHSPN7i6e5zQPKFz+lVU9YTuc0Dyhc/pVVPWEHLWsocq7kuDG7bhy2tapVwwBsqlMpEd+VpDHgw3THXw+D7fCrmqt3OaB5Quf0qqnrCdzmgeULn9Kqp6wgtKKrdzmgeULn9Kqp6wnc5oHlC5/SqqesILSiq3c5oHlC5/SqqesJ3OaB5Quf0qqnrCC0oqt3OaB5Quf0qqnrCdzmgeULn9Kqp6wgtKKrdzmgeULn9Kqp6wnc5oHlC5/SqqesILSiq3c5oHlC5/SqqesJ3OaB5Quf0qqnrCCdqMqNCp8mXOw1MMMm67hp1cAjzkuxUK4bBo7FBqUiJLuNx5qE8bQOXFUXAItBdYDf0n+SSlO5zQPKFz+lVU9YQWlFVu5zQPKFz+lVU9YTuc0Dyhc/pVVPWEFpRVbuc0Dyhc/pVVPWE7nNA8oXP6VVT1hBaUVW7nNA8oXP6VVT1hO5zQPKFz+lVU9YQWlFVu5zQPKFz+lVU9YTuc0Dyhc/pVVPWEFpRVbuc0Dyhc/pVVPWE7nNA8oXP6VVT1hBaUVW7nNA8oXP6VVT1hO5zQPKFz+lVU9YQWlFVu5zQPKFz+lVU9YTuc0Dyhc/pVVPWEFpRVbuc0Dyhc/pVVPWE7nNA8oXP6VVT1hBaUVW7nNA8oXP6VVT1hO5zQPKFz+lVU9YQWlFVu5zQPKFz+lVU9YTuc0Dyhc/pVVPWEFpRVbuc0Dyhc/pVVPWE7nNA8oXP6VVT1hBaUVW7nNA8oXP6VVT1hO5zQPKFz+lVU9YQWlFVu5zQPKFz+lVU9YTuc0Dyhc/pVVPWEFpRVbuc0Dyhc/pVVPWE7nNA8oXP6VVT1hBaVySZUVh+G0/hxyH8WmOHw9oy/NElA9zmgeULn9Kqp6woqpWDR259LFqZchC7NIHiK4qiekejuFwkT/BxCHEP5PhEgvyKrdzmgeULn9Kqp6wnc5oHlC5/SqqesILSiq3c5oHlC5/SqqesJ3OaB5Quf0qqnrCBaH3wXx8PNfquCrSoWgW3SbaalM0kZGPTH+kyDkTH5Lrr2gW9ROumR9RsB/yqaQEREBERAREQEREBERAREQEREBERAREQERUioM12s3zUqLDvCqUeJApMCUAQ2IpanXXZYkRE+w54LAILuiq3ahcPnUuj4vS/U07ULh86l0fF6X6mgtKKrdqFw+dS6Pi9L9TTtQuHzqXR8XpfqaC0oqt2oXD51Lo+L0v1NO1C4fOpdHxel+poLSiq3ahcPnUuj4vS/U07ULh86l0fF6X6mgtKKrdqFw+dS6Pi9L9TTtQuHzqXR8XpfqaCbmTW4kqCyYYkU2QTAY+L3o3P+2u5USoWbcZyabjhmJcj+mWRE5jHp/eO8ucQ6Y3+Xj1dfxtJjJdqFw+dS6Pi9L9TQWlFVu1C4fOpdHxel+pp2oXD51Lo+L0v1NBaUVW7ULh86l0fF6X6mnahcPnUuj4vS/U0FpRVbtQuHzqXR8XpfqadqFw+dS6Pi9L9TQWlFnUak3Q9d9VoBZmXDsQqdBmN49Gp2rW+7KEtX2L1e8D/wDcpztQuHzqXR8XpfqaC0oqt2oXD51Lo+L0v1NO1C4fOpdHxel+poLSiq3ahcPnUuj4vS/U07ULh86l0fF6X6mgtKKrdqFw+dS6Pi9L9TTtQuHzqXR8XpfqaC0oqt2oXD51Lo+L0v1NO1C4fOpdHxel+poLSiq3ahcPnUuj4vS/U07ULh86l0fF6X6mgtKKrdqFw+dS6Pi9L9TTtQuHzqXR8XpfqaC0oqt2oXD51Lo+L0v1NO1C4fOpdHxel+poLSiq3ahcPnUuj4vS/U07ULh86l0fF6X6mgtKKrdqFw+dS6Pi9L9TTtQuHzqXR8XpfqaC0oqt2oXD51Lo+L0v1NO1C4fOpdHxel+poJuqTwplLmVNxvExhsG+Qj4WgdS7lRa3ZtyuUicIZi3HNLGI6OEZyPTtEjHR1C0RhLi/FIVI9qFw+dS6Pi9L9TQWlFVu1C4fOpdHxel+pp2oXD51Lo+L0v1NBaUVW7ULh86l0fF6X6mnahcPnUuj4vS/U0FpRVbtQuHzqXR8XpfqadqFw+dS6Pi9L9TQWlFVu1C4fOpdHxel+pp2oXD51Lo+L0v1NBaUVW7ULh86l0fF6X6mnahcPnUuj4vS/U0FpRVbtQuHzqXR8XpfqadqFw+dS6Pi9L9TQWlFVu1C4fOpdHxel+pp2oXD51Lo+L0v1NBaUVW7ULh86l0fF6X6mnahcPnUuj4vS/U0FpRVbtQuHzqXR8XpfqadqFw+dS6Pi9L9TQWlFVu1C4fOpdHxel+pp2oXD51Lo+L0v1NBaUVW7ULh86l0fF6X6mnahcPnUuj4vS/U0FpRVbtQuHzqXR8XpfqadqFw+dS6Pi9L9TQWlFVu1C4fOpdHxel+pp2oXD51Lo+L0v1NBaUVW7ULh86l0fF6X6mnahcPnUuj4vS/U0FpXDMmtxJUFkwxIpsgmAx8XvRuf9tQnahcPnUuj4vS/U1G1CzbjOTTccMxLkf0yyInMY9P7x3lziHTG/y8err+NpMQvaKrdqFw+dS6Pi9L9TTtQuHzqXR8XpfqaC0oqt2oXD51Lo+L0v1NO1C4fOpdHxel+poLSiq3ahcPnUuj4vS/U07ULh86l0fF6X6mgtKKrdqFw+dS6Pi9L9TTtQuHzqXR8XpfqaC0oqt2oXD51Lo+L0v1NO1C4fOpdHxel+poLSiq3ahcPnUuj4vS/U1/bCn1GbbxHVag9PkMVKpQ+kOi0JuixMfaDEsGhEdWhseqOHuILQiIgIiICIiAiIgIiICIiAqvTv5zq/8AANH+kVFWhVenfznV/wCAaP8ASKigpmcHKKtPJ+4ras+fbdw3FcN2BKcpdLorMYn3Wo+AYunqkPNNe1uhzDr1l4IkqxffLJy2sF+BBn2pfUupP21231CnMUoGJlHpOvSTsxqU60QFqE8NodbvAWkMVJ8ovk/VDPSLS4DdWs3oMIJIv0y6bNbrkV03dOiQ0QvsSI7oaS4gd0nq4h9pZLP/AIPllgrUnULMGi1Gq0KzWrLmy7zs2PcQyGmnScamMNPOgMd9rcMQ17oaNAkJaeIL1ePLjyjtGVXTp1Cu+6aZa9vQrlrVWt+mNyIVNizWt2GLpG6B63W9JjoAhES1GQDgWI7NZ93sXfGOXColXhRNiLKjyJrQC3LCRHB8SaxAy1aNegvxxLrdZeT+UJySL3o1l5w3BkzeJjHvmyoVIqlqRraadfnv02H0aKMMmTAIutrS0TQMEOnn06OHR6eyno92Ui0KXGuKoN4sBSaa3Fp+MDYep+iI0DrTh6y3S3BIsOEdPPp4ubUgydzPu9qzmpZdh2fS6hPpVWuS54VYqR0+GO03S5uwTACcwSwANWGt3QZkOjSGsiAdKzPzkbytB2VKsG7q7DiU96q1CXSYsbo8GI11zNyQ+0Jlzai2mtx3SOOOj3FBWnyfStW8aRd+F2YyuxVYu6rdGxgad3s5MGTt69zHTsadOrm4/wAVRWc/JnwzbvOoXHJuKhtRKtbI2w+xVLcGpSKeG6+Ryqc6bohFfcwf0mZNO6ujseIgs1S5RGX9Kt+97n01OVAsKkxazUHY7A9/iyIvSW9jWY6i2v6C0rOrm5Tt2xLjqVLpeW9XjM0PNKFYpnj0V86wy7TQklsCEjvTpE41pJ3SAtG3rID3Qa+NY5Jl91G0blsqJnDSIcK9bVplvVt/tVInd6FHJgH4v2ZpaA2sQ1tHu9UtJBq4ba/yequd/T7lwviLhSJV9wr9agdiS6S3LapwQXWCf39BNGDTZD3rAh4uv7SDoa5TtsSYseKzZN1ndD9cmUDtX0QRqDUqK2Lr+JOlK6ILYNOtFudI0lugI85lgC/kXlRWrWXqNAtKxrxuOs1qDVZwUmBEihJjY02YEOaw+Uh9ppt1p93R7Z6S5uAi1Bqr918kyDcVfkXhhVrfn1Urqn3FFi3Dbg1SnYNTIEWK9FdYxfDWX2G06LokGkvAIdWBWzL/ACIGyLstu6wrNJwOhW9VqI5CpNAapsN06hPjSsXWmmj0tAHRtGjjItWonCLViQUGt8sanycZUigW7WIltFZNLvKLcRMMPFi1NKTpb6KT4nr+xTDj08QO/wDhbumwM76XU7zftWk2XdlQp0OsHb79xRYbTtMYqQDqJg9LvSBEeoTuxsifDuLJJPIwqTds06z4eYzJQwsSn2PMfOjczmqEcpxqaA7/AIXTHRJrHV7egtfCQno1HyYvu2rlqrVr5qhS7Ordwy7klU5miiVT35eBFIYGaTuIAwT5G79o3R6ou/1BHVjlSU2jw6z0rLC9qfUI1u1W5qVEqrMOMVWjwNHSNA75OxyHdaLRJBo9J8IliOlfPHlW0eFQ2KpVcu7sKXCtyLc9xxYWEF7GhQnxdIDdx6T33WEd10W4+67oHDUAkQjjSbe5FMmgxqM0V8WwzjSrYqloSXqXZ2EN+qRZrANOSpLvSjJ2ZibQOk6eoOfF3vXOetSsnkiVGVLj16XXMvKtXJdv0+36pLrNghUGg6FuixKgtPSi6O7tO6TAydaImgPQPGBBJZvcqPCgW3c8nLa26tWMbemUqBLuEGI7tJjPzSiuCwXfxkGWxMZLUDRAG6Gsx4tPopedbu5MNy1aPeFs2nmRT6FaV8Ven1yoQjt7flR5UVqG1iLDoPtNCw6ECPqDa5x53dJcY6PRSAiKr3DX5gTRti2hafrT4a8Sc4moLX+3d/8A5Q6xF+LgZiH4ppiWZ1wYAXtjQ6QJfGKirWoG3rejW9GJtgnXpD570yY9jqdlO/0kZf8A6OqI8wjgp5AREQEREBERAREQEREBERAREQEREBERAXNMmMQIzsySWhlhsnXC8UR9vFdKhry+9Ot/B0n9ESivjI55FdrZx3DhWdVCe0FtYOOxgAi8HV33UP8A6L+vXLIgtb8+3apFjNjiTrzhxyFsPGLQ6Rf+ym9X+5VbMqkQ7hy8uWjTylBHmUmU04USU7Gd0YtF1XWiEw/ykp5V5ILNjlGZG5GxTezYzTt+3nBa3cIb0rXNdDxm4rep88PyAJVHk3csTKblV1O8KflVHrrjNmnCCVOnwhjtS+lb+2bA6yPT9jH9sEMfbH2l5Uzj/gZ8v7icl1jKPMmr0ac4Zv4w679nNOkXgdIHmdAfxiF0l38gz+D9vvJOs5j07Ot6sxY00aR2HqFp3vUaWxOxDpe/qGBJYdLRrY074eGWjrGtUv8ARVFlPsacu/fJmr8691fWKexpy798mavzr3V9YoNWRZT7GnLv3yZq/OvdX1insacu/fJmr8691fWKDVkWU+xpy798mavzr3V9Yp7GnLv3yZq/OvdX1ig1ZFlPsacu/fJmr8691fWKexpy798mavzr3V9YoNWRZT7GnLv3yZq/OvdX1iqxHy05PMm738v42bl5vXRHHFx2iN51XGVQaDTgWoo/ZPdww0kJdXwkG+osp9jTl375M1fnXur6xUPSsk8mq5UapSKPmHmFOnUR4I9TiRs4rlddgukGsBfAajraMgISwE/B5sUG3Isp9jTl375M1fnXur6xT2NOXfvkzV+de6vrFBqyLKfY05d++TNX517q+sU9jTl375M1fnXur6xQasiyn2NOXfvkzV+de6vrFPY05d++TNX517q+sUGrIsp9jTl375M1fnXur6xT2NOXfvkzV+de6vrFBqyLKfY05d++TNX517q+sU9jTl375M1fnXur6xQasiyn2NOXfvkzV+de6vrFPY05d++TNX517q+sUGrIsp9jTl375M1fnXur6xT2NOXfvkzV+de6vrFBo9RntUuIU94SIQIQEAHURkZ4CI4f3kRDgo5ytVvcZ2LPqmAYH33U7F6ukur3/wAbQs/eyLsu2X4Ffp1czBfkw6pTzabqOYdwVCNj9lNdZiRMNp3/AHGBLW9X+5RzsrhDdsLwm2E63qnCbdcBkXXijmOBkWkcO9ukXW5lOY+6oW6C/wBGsf31Kn/TGlNY+6kvOX6REVvBERAREQEREBVbLn735fw9W/1pJVpVWy5+9+X8PVv9aSUFpREQEREBERAREQEREBERAVAlW7T7gzOrGE+TVWujUKlaMIVUlQ+s/O62w6Orq+Er+qvTv5zq/wDANH+kVFB/O5zQPKFz+lVU9YTuc0Dyhc/pVVPWFaUQVbuc0Dyhc/pVVPWE7nNA8oXP6VVT1hWlEFW7nNA8oXP6VVT1hO5zQPKFz+lVU9YVpRBVu5zQPKFz+lVU9YTuc0Dyhc/pVVPWFaUQVbuc0Dyhc/pVVPWE7nNA8oXP6VVT1hWlEFGqdj0WNNpLLdQubTKmEy7/ABoqfV2HS/2/jCKkO5zQPKFz+lVU9YUzPgYzZdNk4GI4QZRP44eN3pxvm/6ikEFW7nNA8oXP6VVT1hO5zQPKFz+lVU9YVpRBVu5zQPKFz+lVU9YTuc0Dyhc/pVVPWFaUQVbuc0Dyhc/pVVPWFI0O3KRbUZyNSoro77mLrzr0h1910/GNx0iMv8xKYRAREQEREBERAREQEREBERAREQEREBERAREQFC3l96db+DpP6IlNKFvL70638HSf0RKK1ez9uvcUTdx/xVrXwbI/REu7cUTdhfxXrH+AkfoiWdV8WkraiIt+GQiIgIiICIiAiIgLw5k5cVWty6rLtOXdtGrl3u5iXG3cFmP0qMU6ji65UXCrIu/dTREBNd/MsWnWpQtBgOsV7jUXXKxRrZpFQueuzmKfT6ZFdlTZb2OkGY7QkZmZeKI4GSCs3Lm3ZVBypquc0eqN1S26ZTJFUB+GerpINCXA14xEQ6B/GJeWMvIedWRV0W/eF5Zfw6ZUMwqfPo9wSm6yEoJ1zvuyajTjdaEB2g3XZkMOIvt8cPBFbtc3KVtFu1J9es1qZNqNKq9uwJlNq1Nm0iQ1HqtUYhtv4tS2mncQ0uukBadBE0Q6vaJfu3uUlajtD6fdzcuLUZFw3LR4VNpNMm1eU/HpFUfhnK2IjTruAczTRGWnQJuiOriHnDAoOY9OYyUxr1i523lWr1mWrR5l7xey0iodhxdnw2qpMIC19ipTTTk/Sw3s/anC2sdjUEjmDfNFgRKHTMoM6KnXLAlXkcK4atVL5nsU6CXYs3GoYXEIOyBaORtkWl89LpCxra17S9Cv8ojJOFbNVvg77gDQqU3T5M6e006TQMz8B6K7ziHGJ6h4x1aeLVp0lp6rjzqyvtedLtyp1h9yfEnN0x6l0+kyp8o5LsbCTtNsR2jN77HIXT0CWkC1HpQeYqlcVwRrKtCpXFn3bk2lg7cRwobuY1UoMeqxelNdHNq4AaaKa7FAHWgF0CB8Hd0jLTur81vNbo9Wty+5OYVwTI82k2w/FteRd8iiXPTjfFotQ0sB6FWif3e+6h6+DoB1dI+lJGf+UDcChTQuJ6fGuFiROgjBpUyaYx47otPvvtNNGcVtp0gAzeEBbPhPES9pSuSt9u5r5R2TmfMpbEGVctEiVco7Z7gxyfaEyES/zIL2iIgIiICIiAiIgIiIIO6/5La+Eqf9MaUjrUddv8kNf4+B9KaXXrWVbL/ij7kL/R8f4Rp/0ppWDD3FW7iP7Bj/AAlT/pTSsmHuJxs8p/URFqkREQEREBERAVWy5+9+X8PVv9aSVaVVsufvfl/D1b/WklBaUREBERAREQEREBERAREQFV6d/OdX/gGj/SKirQqvTv5zq/8AANH+kVFBaEREBERAREQEREBERBE1eQ+xUKIyyWIhInm09h4wdGfL84RUsuGZCblyoLxniJQpBPhh43ejb/7i7kBERAREQEREBERAREQEREBERAREQEREBERAREQEREBERAULeX3p1v4Ok/oiU0oW8vvTrfwdJ/REorV7Oz5av7lF3Uf8Wax/gJH6Il2av7lF3Qf8W6t/gJH6IlyVq2le0RF3cMBERAREQEREBERAVLzaot33Lltcdv2BcQ0S46jTn49LnkZDgxIIeAtYCRB+WIkQ8+ofbFXREHkV/kxZrVGvVur4s27TY1wR7Qb6NIu2qVeRDOi17sgX2TLY1yN1o3f9loMBHSWonVZbUyQzZyzuxm/bVYtWu1EpN3sSadOqz8FrolVrxVOK6L4RXSwdAdIOtbWni4C4OP0qiDybSuRvWGXLHodWrtKnW41Qjp98x++tlUZDQzji7AaSHaF+rSi4iEsBaY6/Nw80Dkq5nNUWz7sumoUm4r8pVUq8y4m4dx1KjR6nhNYYigbUyOG+BtMQYI6CHQWAOjj4BL12iDzZbWReZGWtxUO8Mv6BZoynaFUqRWaXIr1RNiO/KqPThlNSXmnXpRayd3dza3SPXwdRahkJYdYytyVsfLa4JMN+p2xQIVJlPRDImHHWGhAia1CJaeHnw5xH3VoaICIiAiIgIiICIiAiIgg7v/kYP8fA+lNL961+Lx/kYf8AHwPpbS/Gr+5YVs0nVx18ueJF+Eaf9KaVrVPrZfY0X4Rp/wBKaVwTEmhERbpEREBERAREQFVsufvfl/D1b/WklWlVbLn735fw9W/1pJQWlERAREQEREBERAREQEREBVenfznV/wCAaP8ASKirQqvTv5zq/wDANH+kVFBaEREBERAREQEREBERBD1ojGo0IcDxwwKeYl+N9ivr7Vet0egwiqVaqkSBEbIBORKeFtscSLSOGJl7XW5lQc9J2btIssankraVFuK54cncYj1WfixgI7ZiZNBwBIc0kXM2brA/j8OnHL8n4dsX3c7NYu+S1eOYdGdivyol3znY8+hax7+7FpJQwaiiBcLT7Qd/HrSEHqBFWum5gdG1drdA6Rsatvs2/o6RudXX0PqbXFr08+vh083Gv05NvIXC27foxDuyMBIqq6JEIh3g/ubHiM+Ex8AeIcXeogsaKuNzbyJwdy36MI7sfAiGqukQiQd/P7mw4gPhAfDHiLFrqL89NzA6Nq7W6B0jY1bfZt/R0jc6uvofU2uLXp59fDp5uNBZUVccm3kLhbdv0Yh3ZGAkVVdEiEQ7wf3NjxGfCY+APEOLvURubeRODuW/RhHdj4EQ1V0iESDv5/c2HEB8ID4Y8RYtdRBY0Va6bmB0bV2t0DpGxq2+zb+jpG51dfQ+ptcWvTz6+HTzca/Tk28hcLbt+jEO7IwEiqrokQiHeD+5seIz4THwB4hxd6iCxoq43NvInB3Lfowjux8CIaq6RCJB38/ubDiA+EB8MeIsWuovz03MDo2rtboHSNjVt9m39HSNzq6+h9Ta4tenn18Onm40FlRVxybeQuFt2/RiHdkYCRVV0SIRDvB/c2PEZ8Jj4A8Q4u9RG5t5E4O5b9GEd2PgRDVXSIRIO/n9zYcQHwgPhjxFi11EGMVzL+m1DlF0OgWldF+Q5FO13tc5Y31W3YfRzeNuFBCGcsooNyHxfPRg1pFqGYCI6xxHbLtdudu1au9ZbUJy4G4L5UoJoEUc5eDZYtA7gJCWjE9OBcQ+1/Sq7S7frVOuCsXxBsmhM3FXafEjVJ7G4pRC/wBFddwYZ5ijaRAW33T1iAlrPSQ83GuyiUu4bVp2NFoVApuMIJVQfbxfuKU+6WLpk+2RE6wZ8brp6g14i0OnRrHgEMHuflMVC8bfhVm06DAk0Jul2bUathLN8XY9Sq9cisNRdTTgaTYaCSbo4+GUfVwawP8AVucpLN29LhF60bO6ZRZl0VK2o8XGz6tj0JmPIkRRqL9V1dEdHfYEnGAAdAGY7uJh7dvi5b2BSotwWTSctqO/Hq13UivXFDp1fnvOt1N11iT0o8MGtTQtOsMGDQkLRNBxbQ8BTNPycj0m5cb0p9kQmKkcl6sdCG9Kn2MCquukLr4w9ro+o2iNzd2tW6ZcPOROoMpHlnXDhCGvuWvT8KWNg9PcAd3fwvPopSuw3W06doC/G1eEvU9HxqmNJh9muj9k+jt9M6OJC1v6ePRq4tOrn5uf+j/ismd5P1lYMOwm8qKAUfG9H78ESuKeOqtiP2PMLvXhnwmx9qAOqLvVWjtzbyJwdy36MI7sfAiGqukQiQd/P7mw4gPhAfDHiLFrqILGirXTcwOjau1ugdI2NW32bf0dI3Orr6H1Nri16efXw6ebjX6cm3kLhbdv0Yh3ZGAkVVdEiEQ7wf3NjxGfCY+APEOLvUQWNFXG5t5E4O5b9GEd2PgRDVXSIRIO/n9zYcQHwgPhjxFi11F+em5gdG1drdA6Rsatvs2/o6RudXX0PqbXFr08+vh083GgsqKuOTbyFwtu36MQ7sjASKquiRCId4P7mx4jPhMfAHiHF3qI3NvInB3Lfowjux8CIaq6RCJB38/ubDiA+EB8MeIsWuogsaKtdNzA6Nq7W6B0jY1bfZt/R0jc6uvofU2uLXp59fDp5uNfpybeQuFt2/RiHdkYCRVV0SIRDvB/c2PEZ8Jj4A8Q4u9RBYsP6f8Aeoe8fvSrfwdJ/REuVubeZODuW/RxHdj4EQ1V0iECDv5+3Gw4gPhAfDHiLFrqrirAX3VqFNpx29Q23plPda5sK0/oF4y0adXRefRtcevT1+HTzcai9SX91fjqNuQv4u1T/BSPzCXUVIu1pvE3YlG0iPERT3B/7C+cy2bqqMV6mvsUuMzLA2nXQmuukIH1tIbQfnrkqKdPaV7REXdw5hERAREQEREBERAREQEREBERAREQEREBERAREQEREBERBA3p/IX/ANdB+lNLm1f3Lpvb+Qf/AK2D9KaXBurlybtY1c9YLvMX4Rp/0ppXVUWqnqZifCNP+lNK9KsKcgiIuhAiIgIiICIiAqtlz978v4erf60kq0qrZc/e/L+Hq3+tJKC0oiICIiAiIgIiICIiAiIgKr07+c6v/ANH+kVFWhVarWi/Prr9fp121mjSX4rMN4YQRTBwGidMOfB9hzi7+fV5kFpRVbtQuHzqXR8XpfqadqFw+dS6Pi9L9TQWlFVu1C4fOpdHxel+pp2oXD51Lo+L0v1NBaUVW7ULh86l0fF6X6mnahcPnUuj4vS/U0FpRVbtQuHzqXR8XpfqadqFw+dS6Pi9L9TQWlFVu1C4fOpdHxel+pp2oXD51Lo+L0v1NBI1v+UaB8In9FfUdd+XFj36UB+7Lah1CVSXhk06WY4hJgveOw+Gl1ov7wIcVySrQqO9E6Xmncu5v/YuqPS/tu0XV+w/E1rr7ULh86l0fF6X6mgtKKrdqFw+dS6Pi9L9TTtQuHzqXR8XpfqaC0oqt2oXD51Lo+L0v1NO1C4fOpdHxel+poLSiq3ahcPnUuj4vS/U07ULh86l0fF6X6mgtKKrdqFw+dS6Pi9L9TTtQuHzqXR8XpfqaC0oqt2oXD51Lo+L0v1NO1C4fOpdHxel+poLSiq3ahcPnUuj4vS/U07ULh86l0fF6X6mgxzO+gUGZnHRqxm7YFSvKwAtabFhRGbckVxiNWClNEZnFYadIHTY4WnSDh0PDqHXx+eYtrNiNctjO7L247quyPknbEWnsjSZVYkwKqTtaFjUTQu7M37WAyi06TF3voauP3T2oXD51Lo+L0v1NQ8XKkodz1G8ouYFyN1mrQYlOmSsG6dqdYim+bAaei6eEpT/APR4aDyxGyyuOiXpV+yWXVUK8KhdmWtUn1mJQHiGZHYOnDUnSnNNbRiMhp910Nfgk6Q6OJSFjWTUmKxYQQrAr0LNaBdlYk35cLtBlMBOppNVHXu1E2tqaw6bsPYaF13R3rSI7RaPV/ahcPnUuj4vS/U07ULh86l0fF6X6mg818nzKSRl/L5PFbhWFUaLUpWWkiHekzGC40+cvCNTDaYqJkOrcF0XxaB3iDQYDp06V69VW7ULh86l0fF6X6mnahcPnUuj4vS/U0FpRVbtQuHzqXR8XpfqadqFw+dS6Pi9L9TQWlFVu1C4fOpdHxel+pp2oXD51Lo+L0v1NBaUVW7ULh86l0fF6X6mnahcPnUuj4vS/U0FpRVbtQuHzqXR8XpfqadqFw+dS6Pi9L9TQWlFVu1C4fOpdHxel+pp2oXD51Lo+L0v1NBI3f8AenWvg2R+iJTCpdStCpdjpfT81Ll6HsHv6o9L07Wni/8Ag/F5119qFw+dS6Pi9L9TQWlFVu1C4fOpdHxel+pp2oXD51Lo+L0v1NBaUVW7ULh86l0fF6X6mnahcPnUuj4vS/U0FpRVbtQuHzqXR8XpfqadqFw+dS6Pi9L9TQWlFVu1C4fOpdHxel+pp2oXD51Lo+L0v1NBaUVW7ULh86l0fF6X6mnahcPnUuj4vS/U0FpRVbtQuHzqXR8XpfqadqFw+dS6Pi9L9TQWlFVu1C4fOpdHxel+pp2oXD51Lo+L0v1NBaUVW7ULh86l0fF6X6mnahcPnUuj4vS/U0FpRVbtQuHzqXR8XpfqadqFw+dS6Pi9L9TQWlFVu1C4fOpdHxel+pp2oXD51Lo+L0v1NBaUVW7ULh86l0fF6X6mnahcPnUuj4vS/U0FpRVbtQuHzqXR8XpfqadqFw+dS6Pi9L9TQWlFVu1C4fOpdHxel+pp2oXD51Lo+L0v1NBaUVW7ULh86l0fF6X6mnahcPnUuj4vS/U0HTe2PPb+P+NhfSmlGa1/JdjVSe3jFnZkXK+1gQGTZM04cCxEtQ+2MXV1hw/pXQ7arcd1hly7auJSD2muCLxFoIv9h4okuXLiqq7S0mp4R1SPhh/CML6U0r5h7eCqEywzlNiPbhWmMQdB0SbCHwkBah6zC+/afcPnTuj4vS/U1eKanZNV3WlFVu1C4fOpdHxel+pp2oXD51Lo+L0v1NbpWlFVu1C4fOpdHxel+pp2oXD51Lo+L0v1NBaUVW7ULh86l0fF6X6mnahcPnUuj4vS/U0FpRVbtQuHzqXR8XpfqadqFw+dS6Pi9L9TQWlVbLn735fw9W/1pJTtQuHzqXR8Xpfqa7rcoTVsUoaU1NkzOaRIkm/J0brjr75umRaBEOu6XVHBBNoiICIiAiIgIiICIiAiIgIiICIiAiIgIiICIiAiIgh63/KNA+ET+ivqYXJJlRWH4bT+HHIfxaY4fD2jL80SXWgIiICIiAiIgIiICIiAiIgIiICIiAiIgIiICIiAiIgIiICIiCHu/wC9OtfBsj9ESmFx1GVGhU+TLnYamGGTddw06uAR5yXYgIiICIiAiIgIiICIiAiIgIiICIiAiIgIiICIiAiIgIiICIiAoet/yjQPhE/or6mFySZUVh+G0/hxyH8WmOHw9oy/NEkHWiIgIiICIiAiIgIiICIiAiIgIiICIiAiIgIqFOozFx5iVWBUajWW48Kj015hmFVpUMMDdfnajxFhwdRd6DDi8VSnc5oHlC5/SqqesILSiq3c5oHlC5/SqqesJ3OaB5Quf0qqnrCC0oqt3OaB5Quf0qqnrCdzmgeULn9Kqp6wgtKKrdzmgeULn9Kqp6wnc5oHlC5/SqqesILSiq3c5oHlC5/SqqesJ3OaB5Quf0qqnrCC0oqt3OaB5Quf0qqnrCdzmgeULn9Kqp6wgtKKrdzmgeULn9Kqp6wnc5oHlC5/SqqesILSiq3c5oHlC5/SqqesJ3OaB5Quf0qqnrCCRrQmVRoRYBjjgM8yL8X7FfUwqVMse24cmCwc26CKa+Ucce2mqcOO0bn9o/8ACUXclmUyDWLVjRqtczbdRq7saQONz1ItxvoEpzT9v8ZoC/yoNJRVbuc0Dyhc/pVVPWE7nNA8oXP6VVT1hBaUVW7nNA8oXP6VVT1hO5zQPKFz+lVU9YQWlFVu5zQPKFz+lVU9YTuc0Dyhc/pVVPWEFpRVbuc0Dyhc/pVVPWE7nNA8oXP6VVT1hBaUVW7nNA8oXP6VVT1hO5zQPKFz+lVU9YQWlFVu5zQPKFz+lVU9YTuc0Dyhc/pVVPWEFpRVbuc0Dyhc/pVVPWE7nNA8oXP6VVT1hBaUVW7nNA8oXP6VVT1hO5zQPKFz+lVU9YQWlFVu5zQPKFz+lVU9YTuc0Dyhc/pVVPWEFpRVbuc0Dyhc/pVVPWE7nNA8oXP6VVT1hBaUVW7nNA8oXP6VVT1hO5zQPKFz+lVU9YQWlFVu5zQPKFz+lVU9YTuc0Dyhc/pVVPWEFpRVbuc0Dyhc/pVVPWE7nNA8oXP6VVT1hBaUVW7nNA8oXP6VVT1hO5zQPKFz+lVU9YQSN2CZ2tWW2xxIjgSBEcP69olMKlVSyLbptMmVN2bdJDDYN8hG6apxaB1f2hdnc5oHlC5/SqqesILSiq3c5oHlC5/SqqesJ3OaB5Quf0qqnrCC0oqt3OaB5Quf0qqnrCdzmgeULn9Kqp6wgtKKrdzmgeULn9Kqp6wnc5oHlC5/SqqesILSiq3c5oHlC5/SqqesJ3OaB5Quf0qqnrCC0oqt3OaB5Quf0qqnrCdzmgeULn9Kqp6wgtKKrdzmgeULn9Kqp6wnc5oHlC5/SqqesILSiq3c5oHlC5/SqqesJ3OaB5Quf0qqnrCC0oqt3OaB5Quf0qqnrCdzmgeULn9Kqp6wgtKKrdzmgeULn9Kqp6wnc5oHlC5/SqqesILSiq3c5oHlC5/SqqesJ3OaB5Quf0qqnrCC0oqt3OaB5Quf0qqnrCdzmgeULn9Kqp6wgtKKrdzmgeULn9Kqp6wnc5oHlC5/SqqesILSiq3c5oHlC5/SqqesJ3OaB5Quf0qqnrCC0oqt3OaB5Quf0qqnrCdzmgeULn9Kqp6wgtKh60JlUaEWAY44DPMi/F+xX1HdzmgeULn9Kqp6wuOZY9tw5MFg5t0EU18o449tNU4cdo3P7R/4SC6oqt3OaB5Quf0qqnrCdzmgeULn9Kqp6wgtKKrdzmgeULn9Kqp6wnc5oHlC5/SqqesILSiq3c5oHlC5/SqqesJ3OaB5Quf0qqnrCC0oqt3OaB5Quf0qqnrCdzmgeULn9Kqp6wgtKKrdzmgeULn9Kqp6wnc5oHlC5/SqqesILSiz+o2/Fty57RdptTrmHTqs7Ffak1yZJbdb6BLc04tuukPXbAvc8FaAgIiICIiAiIgIiIKvTv5zq/8AANH+kVFZPyleVG1yeKtZ9ExtemzHrsxl4BUq9XewlJjdHEC2nZhMOiDp6+ATER4S5yFaxTv5zq/8A0f6RUVXc1sn3c0uhmzmZeFq4xo70WQ1R3orkWc07p1C/FmsPsGQ6OA9GsdRcSDDM1P4QCi5bz6PRisilv1eVZzV6VCNPu2LFbajkRCMWG+yL7U2SehwgESEDHTx8Xtfu5+XibDN5VzLjJ2XdluWBaVKuqv1B6tN055oalDwmRWGo5tHu94IDdLWOji5hMtInbI3Imy+txu3By2vm+7Gl0C2cbPObQqkwMqoUrF0n9t83mHNLmDpGYutbRjrLSQ8Omu8ovkbM3pbWZVwZZXVd0O5r2tNqjT6O1VmsIdfkQ2CahHMdkCbuoefSRC6GrDr6tR6g9B2Hc9bu2nBW51utUuBOiQ5sBwZ2+cgH44OnqDQOLWgyIP6dWnVw9VZE5ymr3dq0KPSsnocmnVS+atl/AlO3NtOOVGF0vS+630UtEUwhO6j1k6J8ItO8JHqWWdpVm0rcgxKrWahIeKnU9lyA+60TFPNiK20YMaBwLSRCRFqM+IuHh5hUREyIs+EVKJuq1gsaNetRvtjAnWuYqhN6ZutF3v7R9nu6Rw5j4Q5zLi1BRpXKfqzdrUeqla9o0mrzavXaLOjV692qfCYl0qUcZ4GH9gn5es2iINMceDDvu1jpEuWPyra9c1JhVjLbKpurNyMvIWYbvZWv9j9qK6b4lF4GH9T/eODwC49RhpHXaW+TRbtNuBq5bZvm76BUuk19yQ/DehkT8erz8J0pjndjntAL4joNrQ6I4c2sseJfWwuTJZeX9KepFMr9xS2DtQLLa6Y+wRMUwHn3GhHQwPOYdKINR6ucQDVqLWZBUL75X9Mstun14aDbzlDfo9LrboTrsYjVl2PNx92LThadJ3bEsMe+usa8dYhq086lq5ylrip02qVKl5ZNVG1KZfFPsJ2qY1vZlYTJE2NEdf6LsEOw07J0at3WZh1BEtY/Oqcj2zajRa5ajF93pTqFcVMp9PqcGI/CHCScCK3FiyN0oxOgYAwwekTwaIm+JvESMDqF3ZAZj1O9it6hBXm7Zl3zQrxky367AKmunDkQ5MqQUUIrUoJTpxSHYAji6nd3hLhEJu0+WPbd0X7TLdh0+hnSqzcUu2YbjNxi/WW5Ecn2xkSKdtd6jOnHIQPfIu+tEQBqLRoVTu644nKTtWwo9QxGh1Oyrgq8qJiA44HLjzqU0y7q068NISnx06tPH7eHCK/dqZJx7JreEm3cwLsj2+1Up1VjWwLkUac1IlG647xCx0g2t19x0WidIBI/aHSICHbmFlTFvmq0W6qfdNbta6LdGWxT6zR9gnhjyNvfjm3KadZdaLaaLSQdZoCHSgyq4uUbctgXXmU3V24VRptJvum23T36pMGmUuhxXrchzjdmTGmHTaaKQToazAu+vtBqEer97m5Xce3nLdpGNIstmuVqjP113snfLEWl9FCRsNdFnAw70onyEza703wD33aLgV5pmQzFAoj0O3czb1gVudWCr1VuEX4rkyqyzYGOWMlo45RTb2haEWhYEQ2Q0YBpUTSOS/QLVCnSrHv+7bcrEJuox5VXhYQDfqDU2YUx8XWnYpxw+yCJ0dppvRrIR5gLEUDLLlDzc27zp1GtKwyCiPWrR7qn1SoVHYfiNVIZmDMfCMLRbjouw9JcYhpxMtXCAu7cqPamV9HtK7KlekOqVedUapRKPQZJT5W9rZpxSiad1adZOl0x3WRkWrmHq8Wq8IImrx336hRHmRxII883XsfFDoz4/nEKhbrdZeumy4DRapAVWRKJsesLIwJTZOY/wBOnW60OrxjBdF2XNIobsGBSYrE+rVJ0gYhE/tmQCJd8/IEtGovFxX0t23caKT1RqEjCdV52kp04h06vFaaHwGg8Ef+OOoiIsQsiIiAiIgIiICIiAiL5O69stoRItPCJIM+s/PbLC+a7Ft+3K7Kdk1AZD1OcfpMyNGqQMHpdKHKdaFmUI+73oy4eLq+2tGXifIW3LlpFzZVFKoF+OzLeptYC4qHVqDIj0mz92ORE1SXSaAX/sgRitd9lao5Ho0Ctv5RLdUzA5L13Fa1ErxTq7bmLsOnjBfaqIG4IkLexp3QeHxdOsSwQbSi8UZm8numU6TnVJszKhxs4VOt2qWj2PpRYCxVhJ3GVKgaA9qUW1H3XWuMtAa/7+C9abcz2cR37Byvnw63R80IBTJdOsqqTKmdAB1pg5PZYiMXYrrBfccUNICR8HA6SD3Mi8Z2XlTVrUiZWZgUnLOf26tZk3RhWJhQXWp5Ud0K9i00+8Y6ghkfQdGvvWo2iDiIefMIFqZoN07sjlrl5Vbbrdy5W3PS55UiyqpRzYuB1iK7EizJkp112a+0YSgCe7pDWZ6XdTugQ/0bRf583lbUap3BdlB5OGX1xWk2/lnTydphUCVTHXwCtsFPEYDuLDrr5wxdbIw075cAukY8O/8AJcs6NbtWvCq0I3ItFqQ04WKZFsKVadKakNg7g6/GhynSPcMTaF0hAA70HWLWg9DoiICIiAiIgIiICLyHyof4Q6yuSlnVS8rcwLBrNRpdWt5it9lqRJacfZN2RJYwa6M7oEh+x9Wrd8LqrSsnuWdyZc8yjxsv83KQ7U5Ji2FJqD2MGeTpeADD+k3f/lahQa3c0d6VblWiRQxcdfgvttjh4RkBYYYf+ql1H1qoFTKPPqLYCRRIzsgRx8LQOpSCAiIgIiICIiAiIgIiICIiAiIgIiICIiAiIgIiICIiAiIgIiICiavHffqFEeZHEgjzzdex8UOjPj+cQqWUfPn4wpdNjYAJYTpRMY4+L3pxzn/6aCQREQEREBERAREQEREFWu/74LH+Hnf1XOVpVWu/74LH+Hnf1XOVpQEREBERAREQEREGfybUtm5czKx2yW5SqrhGoVKxZ6bDafxa1SJ2rTrHh6o/8qmO5bll5urY+SI/7CU7+c6v/ANH+kVFWhBV+5bll5urY+SI/wCwnctyy83VsfJEf9hWhEFX7luWXm6tj5Ij/sJ3LcsvN1bHyRH/AGFaEQVfuW5Zebq2PkiP+wnctyy83VsfJEf9hWhEFX7luWXm6tj5Ij/sJ3LcsvN1bHyRH/YVoRBV+5bll5urY+SI/wCwnctyy83VsfJEf9hWhEFX7luWXm6tj5Ij/sJ3LcsvN1bHyRH/AGFaEQVfuW5Zebq2PkiP+wnctyy83VsfJEf9hWhEGeXPkrlbcsOJRanljaVQo5zwlToMujRXY7+hh0GiNog0lpIg0/1KL9idyWfwaMq/Q2nfulotTmPRptJaa06ZUwmXfyNh0/zgFSSDKPYncln8GjKv0Np37pPYncln8GjKv0Np37pauiDKPYncln8GjKv0Np37pPYncln8GjKv0Np37pauiDKPYncln8GjKv0Np37pPYncln8GjKv0Np37pauiDKPYncln8GjKv0Np37pPYncln8GjKv0Np37pauiDKPYncln8GjKv0Np37pPYncln8GjKv0Np37pauiDKPYncln8GjKv0Np37pPYncln8GjKv0Np37pauiDzBcVk8iy2Id+zanyXrAxay5citVfBqx6WWLpPsNPhscHHwPh1tPt6lzUSyOSHcN3VK26RyPbReplFq0iiT7hCyaIUCLNYAidB0RLGU0PDp3Tji1z+HxCrRmXybLtvipX8xRM0IVFoWY3QHqtFdoJS5bMiK000GLD/SQAWzBhrWBNEXCekx1cP1r3JxqF1ZoRb+rNxW3i1EqL0rpkG1+iV2TCNt0Oxr9RakaXYul3TzExqIAH29ffUGYwX+Q9KpeNemcke1aZSZdv1C6KHNl2PRNFdgQmt504wAROgRM4i6ASAYIh/JPTplhZBcli/rXiXTG5J1i0eNUB3YrVUsyktvuxy9tt/Q0J6AMeIRPSeHhiJKAtPkbM2xZ9QsNqr2Q3BxtWoWrTqnAsRiLWcQkMdHGRMmb5YyHBa59e0LG6ZEReKvRFv0rsFQqbRt7exp8NqLuadOvQIjq0/5UGR29yKuSXbjD7NP5OdgPjIdxdLGoUNicer8UpAnoH8UeYVM+xO5LP4NGVfobTv3S1dEGUexO5LP4NGVfobTv3SexO5LP4NGVfobTv3S1dEGUexO5LP4NGVfobTv3SexO5LP4NGVfobTv3S1dEGUexO5LP4NGVfobTv3SexO5LP4NGVfobTv3S1dEGUexO5LP4NGVfobTv3SexO5LP4NGVfobTv3S1dEHgDlG/wW9r50Z0U257LZs7LuyoVCiQ5EGi0gGDfmhJkm6ZRmBaAtbbrAbu6JcHVLSKu9q/wanJVyutqZUpVk9t9Up8GQ4xLruh0RLQRc3RwEWj5serui4WHjL2Pj7ihrw+9Ot/B0n9ESitVcPhHsazIsduMxalGFpkBbEehNcIj/AJVwXFblu0+36nUabQ6fFkRIbz7DzEYGzbMAIhISHD2vbVn1qJvAv4p1r4NkfoiUVM9Sf8p9ERbcJEREBERAREQEREGMZj533Xa101+1rGy6jXJjaFuMXTX3JVbxp5NxHzkg01FHBh3pD5dClFpMmg4Q77x8OoW3cNNuy3aXdVDdxdp9YhsT4rhDpxNl0BMC/wCUsFi3KDyUunMysnKti17UkFPt96gu1SdXqlTJUbWZFhvtRRNqqRR1auiyNAa9fF30tOm2HbdVsymw7JbjQcbZt+k02m0Z7CQZzHMWWsW3d8cQ0BhpFrTpMtWo9Wn2tQQ0zlBZRwJVxw5F1O67SdGNWTClzCaiyCdaaCNui1oOQZvtCDAETp6x0gS/hcoTKgaAdfcr1QEG6sFBOn40GfhVOyBNboRex+LHS90mu+6dr7Vx9TiWe3bybrkuKzL2pAVCmjUKrmPHvulYDPlRm3QjnDIY78hoReYIxjuBuNa8WtQEOrToXBG5Pd8UubQ8x7bta2KfdNDu0K4VLl3bVKm1UYnYuTT9D9RlNE6L4hMdMdLGgdAhx9dBrNpZ35X31PiUy2Lo6TMmyp8COw5AlMH0iELeMtohdbHQTW81gQlzcXOPWEublqPKJyip1PgVMrjmzAqYzXY7dNok+oP7UN/FiU6bEdg3W2mnsNBOGIhz83EsKyssXNuTc0rMej0m15Fbt3MS7hqNLmVKRDim1Pbi8TEoYrpntG0GGomh3R1FwdRfWj8lXMm2u12vu40a4qvFpNVpFRix7vq9uR9cirvzmH2n4jRGQ/ZJibRh7XDpItHEG5zeUHlLTZkWId0Oy8JcOFUul06mzJ8JiJLx+xXn5Udo2I4O+6BOmGoeL3F05Z5w2/me9dLVDp9bj9qdYfo8vGbSZUXBx1rrE1utjg74XCGoh4dXNqFY7cnJzzBprNHp2VNFte1qhTaJTKTCuOk3JVKa7Tuj9dp+HodaqsUNR7TUg/D0Fp+2rVco7Juyw6rfkevMUg6XXbolV+lSIk103zCVpI232jaEGiAx4dLrurAvA5uZBTMuOVfbF223Iui6YFWpQzbirFJoNLi27VplRmx4Egmif6KEXdPq6ndoDBrE9syEwIVeoOfeVNWrFv0SjXT2Un3RECpUtiFT5UnF2IRk3vltNFsgJgQGTunAC5hPTiQrN7XyNzQy3n2td9shbFcrNEcvKHKp02qSIUVyFWa2NRacbfGM6QutbDAmO1pLW7xcA65LJDIC58rrrp1wVmqUucAWxKp8zo2LuB4VCVWH6i/tAY/aB6RoAsT1cA8KDf0REBERAREQEReZ7z/hAOTfllnTXMisyrkqFsVug4xBObNgEUB8pDDT4YA6zrIOF8NROiA8Je3/AFh6YUbU4b0mbSXWtOmLMJ538jYdD84xXHal7WdflJCv2NdtFuKmOFpCZSZ7Uxgi8XcaIh/912VOY9Gm0lprTplTCZd/I2HT/OAUEkiIgIiICIiAiIgIiIKtd/3wWP8ADzv6rnK0qrXf98Fj/Dzv6rnK0oCIiAiIgIiICIiCr07+c6v/AADR/pFRVoVXp3851f8AgGj/AEioq0ICIiAiIgIiICIiAiIgIiICIiCPnwMZsumycDEcIMon8cPG7043zf8AUUgomryH2KhRGWSxEJE82nsPGDoz5fnCKlkBERAREQEREBERAREQEREBERAREQEREBERAREQEREBERAULeX3p1v4Ok/oiU0oW8vvTrfwdJ/REorV7P269X9yg73YCVZtdjOm6Iu0uUBbTptl9qLqkPEP+VS2r/com7D/AIq1j/ASP0RLOq+LSVU9jTl375M1fnXur6xT2NOXfvkzV+de6vrFasi3ZMp9jTl375M1fnXur6xT2NOXfvkzV+de6vrFasiDKfY05d++TNX517q+sU9jTl375M1fnXur6xWrIgyn2NOXfvkzV+de6vrFPY05d++TNX517q+sVqyIMp9jTl375M1fnXur6xT2NOXfvkzV+de6vrFasiDKfY05d++TNX517q+sU9jTl375M1fnXur6xWrIgyn2NOXfvkzV+de6vrFUC+MqLRte/wDLa0odZzHejXlVqhAmvOZq3Xg40DFNkyhxa5qlhhrxNgR4sC4dS9KqnX3lraeYzNKZuiPP3qLN7I06VT6nKp8qJI2jaImpEVwHR1NOugQ4HxCZIPHdVh1h6B2Xp0nMKmUKJcV20efXBuy+a8zG7F1U4cNp2LCrAvtbrTTpnJ42gJrqjrUdcVWkSqtXGctgzHuBq16PSZ5RqRel/Vlq4ZEqGMwmodRj1EWoreLTrQNOutO6iPUQAK9Xscm3KSJT4lLo1JrlGYhuznQOk3NU4L59Nf35Quusvibom7x6TItJY8OlfWTyccoXzijHtyZTWYtNiUYolLrE2DElQoo6I7EmPHdBqQABwjuiXBwdXhQZFlXla3f1/wCYDNSr97w7WtKt42/DYDMu7+yD7/Q4crdcdKq6AERlEGja1EXhBo49Z9jTl375M1fnXur6xV2oFnUC15Vbm0GBhGfuGoFVqiW6Z78smmmd3jLHT3phodI6R4fcVgQZT7GnLv3yZq/OvdX1insacu/fJmr8691fWK1ZEGU+xpy798mavzr3V9Yp7GnLv3yZq/OvdX1itWRBlPsacu/fJmr8691fWKexpy798mavzr3V9YrVkQZT7GnLv3yZq/OvdX1insacu/fJmr8691fWK1ZEGU+xpy798mavzr3V9YrwHnn/AAW2ZucnKeu+6KPUTpVkSHYAQ6jX7ifqU2U0FOjg6YuvlJlOEL4ujof0YaBw0lp04L/VJEHh3Jr+DOyq5P8AMhXuxfF3TbmZegxSkUypv0iKWt9sDLaadJ3i1Fwk6Qfir2C5adHdJs3HaoWLR62iKryuEtGI6h754pEvrdP8lNfCVP8ApjSkd3+9ZVsrhX6pTGaM0xNgSqlg5jMiNY4PVF98SF18GyHS6ZD1SxVqw9xV+5D1U+P8JU/6U0rBh7icbFP6iItUiIiAiIgIiIKtd/3wWP8ADzv6rnK0qrXf98Fj/Dzv6rnK0oCIiAiIgIiICIiCr07+c6v/AADR/pFRVoVXp3851f8AgGj/AEioq0ICIiAiIgIiICIiAiIgIiICIiDhmQm5cqC8Z4iUKQT4YeN3o2/+4u5Q9aIxqNCHA8cMCnmJfjfYr6mEBERAREQEREBERAREQEREBERAREQEREBERAREQEREBERAULeX3p1v4Ok/oiU0oW8vvTrfwdJ/REorV7Oz8av9yi7qP+K9Y/wEj9ES7tai7oP+LNW/wEj9ES5udW0LuiIuzhgIiICIiAiIgIiICIiAiIgIiICIiAiIgIiICIiAiIgIiIIO7/5Hb/x8D6W0vvur4Xj/ACMP+PgfS2l/NX+5YVs0nVy3AX2HH+Eaf9KaVm8FVOulzxIuH/mNP+lNK2eCvceyaf1ERbJEREBERAREQVa7/vgsf4ed/Vc5WlVa7/vgsf4ed/Vc5WlAREQEREBERAREQVenfznV/wCAaP8ASKirQqvTv5zq/wDANH+kVFWhAREQEREBERAREQEREBERAREQckmLFffhuv48cd/F1ji8PaMfzSJdah63/KNA+ET+ivqYQEREBERAREQEREBERARFmFgZs1e8cw72sKqWFNt/C0mafKivyZbTztQjSzlADu01zi19xkQjrI9BjqEC4EGnosyyfzYq2Zz15xazYkm15do3ANGxiSprUh90DgQ5gOu7XA0eiYIk0Ju6cR65c6tV5XhbuX1vSruu2o9ApkPFkXXNo3SI3XQabbBpoSN1wjIAAAEiIzER91BY0WGW3ylqRc171e3I2DdOiU+4qdQGHapDmRJMh2TTXJZNFHdaE47o7X+tER0cXhBqm4fKZyXlUWdchXbJjUin0oq2c+bRp8aNIgBiAlLiuusCEpjnda74xrHvoe3xig1hFilxcpazwiAdn9KqFSZuW2qJNp9Rp02mvsx6tUmoYShbkNAZN6TdIHBHQZMkOr3VODyhcpjrsi3cLkm9JYKe0LvYSf0WS9CAilNRZWxsSnWhad1NNGZ96Ph4SQaeiqlPzKsyqzbep1MrzcuRddJdrlHFhoy6VT2tjW/gWnSI/ZUfraftoq1oCIiAiIgIiIChby+9Ot/B0n9ESmlC3l96db+DpP6IlFavZ2cGtRtzH/Furf4CR+iJdWtR9yF/F2qf4KR+YS4a1dTQUURcly29Z9FlXJdVegUalQg3JM2fKFhhoP6zM+YRX8tq5KTd1Fi3DQJTr1PnN4ORnHI7jOLgY+4Wh0RPD/0X0eHImEREBERAREQEREBQuNy292yBaA3DTSrxQzqI0vpIdMxiCYgUja1atrWYjq06dRCppeW6xf8AkPbXLcoDLN9WNTq9PtKu02r4dlorUp2qOzqGMWM/hr175tNFg00XEQtcOHMKDeafmXl3VLrlWJS7/t2Zc1PEilUdipsOz2AHTqxNgS1h1x90fCFWteKcvKvRptNyWywps+I5mXa+YdTn3HTW8Rxn08RGp9PlSR67TT++Olw+F3pTWjVqFelb2uqk3PktcF02Xf7VKhzaBNdp9zwo5TBg95MRmA0P23aLj0/iINBReBpuadz0+zq5QbSu3GSxDq9r9n6/T8zZtbokemSn3wddGrOtHKprp7TQyB4tpp0HQIdROqzW1Pu64KnYlrDm67PtavZmzac2dtXlUamYQmrXnPuwCqzotOyg6Uxu6hIjaI9AuiTQ6A9pqKty4aJdVIYrtu1JifT5WJ4MSWC1AekiEub/ADCWC8b29eOEO76HZObGbFwUOwKXWb9gRapLuuVBdkzYVTjBAiyqjui67oiuzCAHXS3drj17S27kYmTvJlsgyfkP4lGlFuPs7Tp/Zj3EQeCX4qDb0REBERAREQEREBERBA3p/IX/ANdB+lNLm1f3Lpvb+QMf8bC+lNKM1rlybtY1fOsF3mL8I0/6U0rqqJUy4IfwjC+lNK9qsLzIIiLoZiIiAiIgIiIKtd/3wWP8PO/qucrSqtd/3wWP8PO/qucrSgIiICIiAiIgIiIKvTv5zq/8A0f6RUVaFV6d/OdX/gGj/SKirQgIiICIiAiIgIiICIiAiIgIiIMzz0zms3ImzcL+vWnVibEjSNDDdNgk+e6Qn7ZHwtMDp198dMA/GVLoVSzJzXdptfuy6qjaVuzHYUiJQrTgTH3ZQPhg610yqkx9r0fbRii0LRcJyD1LZq2IHUaEJDqEqif0OQqAeRNJturlX8orimWBIckYPTadTmhco07nLj3acXegMvd3Y+06Rdcy6qC6dvFH2+ldDuDb6P0nT2vz9end2ursaterwOto49OjiX6O7KUDhNHFrOpp6QzjiFGmkOpgNZ8xYNcQ+IfVcLhDEi9pWNEFcC7KUbgtBFrOp16OzhidGmiOp8NYc5YtcI+OfVbLhPES9pfnt4o+30rodwbfR+k6e1+fr07u11djVr1eB1tHHp0cSsqIK4d2UoHCaOLWdTT0hnHEKNNIdTAaz5iwa4h8Q+q4XCGJF7SBdlKNwWgi1nU69HZwxOjTRHU+GsOcsWuEfHPqtlwniJe0rGiCtdvFH2+ldDuDb6P0nT2vz9end2ursaterwOto49OjiX6O7KUDhNHFrOpp6QzjiFGmkOpgNZ8xYNcQ+IfVcLhDEi9pWNEFcC7KUbgtBFrOp16OzhidGmiOp8NYc5YtcI+OfVbLhPES9pfnt4o+30rodwbfR+k6e1+fr07u11djVr1eB1tHHp0cSsqIK4d2UoHCaOLWdTT0hnHEKNNIdTAaz5iwa4h8Q+q4XCGJF7SxOx3s5IWeV035XLDtuPRrshUalYYRqpWHZUXo7cx2Oeg6Q2B4OlKAXe+iMfSWoiLgXo9EHmTLWdnXbFZzOumuWDbbPbpIK6IARJ9elkxLagQ6axFdaKitHoJ2HumY99ED1CyYDrVyztp9Rv2yIdNoTUhu46FcFPrsVqTSqj0GRKpMpiY6wboRyPadFowB0QPURcAumOhbSvLHKTzLzQqNr57W5Y0+h0mm2BYL0ua/IYfKfMkSoEp3Eoz7T4DF2mmxISIHdR4+Bp1IOONlrmLcOZLuYNxx6XS5E++6BcHQo0CqyRYjtUOTDFsnThtYOnqdAyLgBrnITICEdWb5lWFfds5OX1hCo/atbTtkS2Ct2mv12p02RNOZHFp+LDmxWhpoNaX/sVouMXdWnQG6WqXnykLzsuu4YUiXQ6rQaFVLdodRhtW/VJL+uecNt3dqokMKLIHpgGDGl3UOAajAnREfxRs5c2aXS68FXvm2ZFTnZj1W3KMBWnUpz7USLukYtQoUg3ZZd6H3SYBod0zM+ACD43Zl3mDmLfkm/bog0+izYtRtWIxDp7FWnNOxKDXOys143zgNcboFoYAQIDMeF09XBEUnLfNWFf1l3zdlQwqJ2bd8qr1CpVGp3A72Sgz4c5pohiuw+iwNhiSOpoNQCQaDdY8PeOT/mVVc18tmrsr0FiLUWqtVaPKGPHdjtOOwZ70PF0WnedxnXsa9oyIg14hiRaVp6DylyVIFOoT1yXq5hXJduRxOj2AQ2/P5wtcJjrrWgdrV9tlbIj1jjwY7unTxL0Ud2UoHCaOLWdTT0hnHEKNNIdTAaz5iwa4h8Q+q4XCGJF7SsaIK4F2Uo3BaCLWdTr0dnDE6NNEdT4aw5yxa4R8c+q2XCeIl7S/PbxR9vpXQ7g2+j9J09r8/Xp3drq7GrXq8DraOPTo4lZUQVw7spQOE0cWs6mnpDOOIUaaQ6mA1nzFg1xD4h9VwuEMSL2kC7KUbgtBFrOp16OzhidGmiOp8NYc5YtcI+OfVbLhPES9pWNEFa7eKPt9K6HcG30fpOntfn69O7tdXY1a9XgdbRx6dHEv0d2UoHCaOLWdTT0hnHEKNNIdTAaz5iwa4h8Q+q4XCGJF7SsaIK4F2Uo3BaCLWdTr0dnDE6NNEdT4aw5yxa4R8c+q2XCeIl7Si7juynVC16q3Gg10ik0qQbYY2/P146iJgR0bGrXr8Dr6OPTo4ld0XnIzt6sNR2SkSoNUYBodThFS39Ih+VpUfdHZmtW3U6PbLEqNVp0N6PCfm0eUTDbxBpEnR71w/wCcVfLv+9StfB0j9ESl+bD+pc/oNPUeOaLTLmy+uJi5+Vk6zU63EkSHYF7T6c7Urah6h5o5MA0601RyA+u67HDWJAHSjLiXp6mndFSjxahCumgy4Ujor4ORqW6YPx9GG7iB9JxHvhcQFxYCOPN33rKzEAmOIEOoSXDSqRSaHTmaVRaZEp0KPhzNxokcWmm/6eEB4RXSzRfQswOjae2SgdI2NO52Ef0dI3Oto6Z1Nrh0aufXxaubgX6chXkThbdwUYR3ZGIiVKdIhEg7wH3ThxAfEZeGPCODXXVjRBXG4V5C4O5cFGId2PiQjSnRIhEO/h9048RnxAXgDwlg711+ehZgdG09slA6RsadzsI/o6RudbR0zqbXDo1c+vi1c3ArKiCuOQryJwtu4KMI7sjERKlOkQiQd4D7pw4gPiMvDHhHBrro3CvIXB3LgoxDux8SEaU6JEIh38PunHiM+IC8AeEsHeurGiCtdCzA6Np7ZKB0jY07nYR/R0jc62jpnU2uHRq59fFq5uBfpyFeROFt3BRhHdkYiJUp0iESDvAfdOHEB8Rl4Y8I4NddWNEFcbhXkLg7lwUYh3Y+JCNKdEiEQ7+H3TjxGfEBeAPCWDvXX56FmB0bT2yUDpGxp3Owj+jpG51tHTOptcOjVz6+LVzcCsqIM/vW6JeXdGl3Xc12UaDA6UUdvHCgSpL7pPkDcJgGmXydfd3T5tIBqd1aQFrrLOLe5SrNVmXbJrFZhw6Vbt0Uu3YgN2rVHalU3XaUxMkNBBEsZQP63XNIbRE0DB6xP2yG9Z42Fcd9W7RXrQcp5Vq2bjptxQ4tSeNmNMOK7qJhx0BMmtQEWk9B6S0Y6Vk83JHPyZXbiup2db7GN0XtHr9Rt+lXXUaY1Jp7dDaggwVRjxRf1hIjtOkIhodEOLT1EFpj8oCmyazZ1tUK4mKg9e7VRaiS41k1LYjS4T+iR0oMXdUfR9qNp3STZ8ZkI8CnbGzhoeYtZwoNkXzT3XHYsqpwGpVpVKIMyn4Yg0zIiuvuNNy2mnSHW6xqAwda07WsTLLrF5PGdFlT6BJizbUxfpFfumV0jsrMdNqLWiF7CQG6wZPOx3cNO26ffR4idHElJ5R5E5xWpmXY9/XcdIlFQ7bqVu1t5+8apV5U1+UUR0p7RS2NAa3Yf2gcGhAXOuWkWhDeMYF3Y6cJNbohgL0UzHCjve2Ij3/T9k46SM+IC/1XhYO9ZOhZgdG09slA6RsadzsI/o6RudbR0zqbXDo1c+vi1c3ArKiCuOQryJwtu4KMI7sjERKlOkQiQd4D7pw4gPiMvDHhHBrro3CvIXB3LgoxDux8SEaU6JEIh38PunHiM+IC8AeEsHeurGiCtdCzA6Np7ZKB0jY07nYR/R0jc62jpnU2uHRq59fFq5uBfpyFeROFt3BRhHdkYiJUp0iESDvAfdOHEB8Rl4Y8I4NddWNEFcbhXkLg7lwUYh3Y+JCNKdEiEQ7+H3TjxGfEBeAPCWDvXX56FmB0bT2yUDpGxp3Owj+jpG51tHTOptcOjVz6+LVzcCsqIK45CvInC27gowjuyMREqU6RCJB3gPunDiA+Iy8MeEcGuujcK8hcHcuCjEO7HxIRpTokQiHfw+6ceIz4gLwB4Swd66saIK10LMDo2ntkoHSNjTudhH9HSNzraOmdTa4dGrn18Wrm4F+nIV5E4W3cFGEd2RiIlSnSIRIO8B904cQHxGXhjwjg111Y0QVCqW9eVYhFCk3LRgwJ6G7rbo72GPeuJ3/4rwnRAh8QcNJbvWXzdt+tx3WGXLjpglIPaaHsWfEeki/2/iiSuPPhh/Qomt+3UaB8In9FkKKxzez2aqfpFN2pUyfYKp1iK+wy+1IxbZhk2REBYEPETp+EIq2YL+Yc2P8AWv0kzM6vart9iIitIiIgIiICIiCrXf8AfBY/w87+q5ytKq13/fBY/wAPO/qucrSgIiICIiAiIgIiIKvTv5zq/wDANH+kVFWhVenfznV/4Bo/0ioq0ICIiAiIgIiICIiAiIgIiICIiDkkyorD8Np/DjkP4tMcPh7Rl+aJLrUPWhMqjQiwDHHAZ5kX4v2K+phAREQEREBERAREQEREBERAWZZh8n7KvMuoVSrXfQJ0h2t0saPVmolZmwmKnEHd0NSmo7oBI0brugjEiDXw44LTUQZNXOTJk3ckuqSqrbc90aw/GmS4zVeqLEUpscGm2pgsNPi0EkRYaw3wEXe9jxr9TeThlRJnyKmNNrsabJq51zCTDuWqRXWJhtG066wTUgdndAi3Ra0bvtGeohElq6IKll9ltZ2V1Jk0GxKOdKp0qbIqRw8Zj8hoJDx6nCbF0y2hI9R6A0hrIy06jLHG2oiAiIgIiICIiAiIgIiIOOoyo0KnyZc7DUwwybruGnVwCPOS7FD3YJna1ZbbHEiOBIERw/r2iUwgIiICIiAiIgIiICIiAiIgIiICIiAiIgIiICIiAiIgIiICIiAuSTKisPw2n8OOQ/i0xw+HtGX5okutQ9aEyqNCLAMccBnmRfi/Yr6CYREQEREBERAREQEREFWu/wC+Cx/h539VzlaVVrv++Cx/h539VzlaUBERAREQEREBERBV6d/OdX/gGj/SKirQqvTv5zq/8A0f6RUVaEBERAREQEREBERAREQEREBERBwzJrcSVBZMMSKbIJgMfF70bn/bXcomrx336hRHmRxII883XsfFDoz4/nEKlkBERAREQEREBERAREQFmLubNWjZ6U3J6RY0xiBU6PUapGrz81vAX3IZQNxptgNRkH2eA7hEHG2Q6S6605YZd1qZ41HP22cwqJZ9jO25bFNqtIHGXdkxmZJanu08zfxYCmmAG10EtLe6eB6x420HbIzlvqj37QKLdWVDFKt267il2zSZ3Z7dqZutNPuhJdggxoCO6MV0hIXyMQICMB1Fo1KvVum23Q6jcNZk9GgUyK7NmPYARbbLQ4kZaR4vaEccf+CxWz7Lz2jZuT7+v+z7ErW/NkRabVGrvm7tFopHwNRYBUzaF0hECeLpGp0vdPQDYBb80u2iVyfL5C54dPbq52xWBdZprrr7GH2O9o0EYCZ8Gnwesg/FJ5R2TNbjVKW1efRYtKpHbA8/UadLgtO0z+2sHIaAZLHEPfWtY8QeMK/jnKNyfj0Oo3BUbmmUyNR5EGLUGarRJ8GWwcw9uLiUWQwD+h0+ED0aS0FxcJc2ITeTxmlnfY9G7a37ct8KVlwFu0QoE6U8UyU7IpkzflDtNFFa56WwG0BOn313j4B12IOTbddXZOpybat+hVbG4rTnkZ3fV7gechUurhOfApM0MNP+t2mha06iLWfHwBYaNyq7YqF/3bSqnCn0a1rUptLc6fPoNWYmTJs/FrZYFh2KPMZbrQAxxPumfAHAStUnlJZPw6K1XJtxT42D1Z7XhhuUKeNR7JdGOSMUoOx0oXTYAjASa48NGnVrDVT76yEvat3hdN7UKo0U5ci5bYuWiRJkh0GnypbWl1iUYNFtbmo9BiLujgLTjp0rnh5E5h1XMin5r3PjbsCa5fke5p1MiTnpLcaBHt+ZTGgadJgN183ZIulqBsRDh1Fo4wuMrlOZLQaqVGkXZOGUNSkUThoNRcZxqbIkRQcHRY0FK5gLRH1brntaBLUKu1k3za2Y1Abuez57suBjIfili9EejPtPsOm08y6w+IutOAYGJAYCSyhjIS62jgGU2jY9FzalX6fM87xwXRfwEftf2/DdHh6nD11eco7CrVg0+5otXfiPlWrsrFdY6MZFojypRutCeoR49JcXu+34Re6g0RERAREQEREBF5D5UP8ACHWVyUs6qXlbmBYNZqNLq1vMVvstSJLTj7JuyJLGDXRndAkP2Pq1bvhdVaVk9yzuTLnmUeNl/m5SHanJMWwpNQexgzydLwAYf0m7/wDK1Cg2SqTwplLmVNxvExhsG+Qj4WgdS7lEXNHelW5VokUMXHX4L7bY4eEZAWGGH/qpdAREQEREBERAREQEREBERB+SLAcNRe4qy3mJYZWm7fw3xQMbYYwexerWFUY6A1tuk05qkatrDQ6JgXFwkOI/1r7Xs/Zka0KueYMikx7ZwimNVdq7jTcLCKXCe+T3BgHN1tS8u5G5r8n3Hk/S4828LMqFPt+/a7K52iaqEWhHIuiou0udKbaP7HjfanQdIgDRpLWI8aD1Nat52lfVJbuCybqpFwUt0ybCbS5rUuPiY9Yd1oiDUP8AT7anl5m5M17W/Fm5hTKxe9Brcm5L/aYauikaGaTcM92lxdLUFoSMRJppjaMMHX8dbRETpHrEKJbGdM2pU7J60RzLmSbrG67thXPCCpGUxoI9MrhtNTA16g0m0wbQu/7ICHqIPaiiRuChuXCVqdko+NYbhjUSh6u+4RyMm8HdPi6hIf8AgvAlKzUvGPlJa1xZO5s3Ldt71DJyrVa8Yz9cfqrsGe1AilHldDdMwiyBkE6ICABu8Wvd06lN3BfOXdrXreteyxzLuG6KLhl1RYfZZi8nJJRnZdb2DdKrSOkHFABdaddPi2GtZgAEg93PvsRsBOQ6LYkQiOJFp5yLHSIroX+ddXvGlVgK1at35lvBa9uZiWbU4smLmBU5jEWnyCBp+QFWdcafdjdID7aREDTuvSQkPBerEvDMa4M3GhquZVIpt0hmHUokyhybyqLspyitSnxZihQgY6KDZQgadCVq4uB0neIgQe2kREBERAREQEREBcMya3ElQWTDEimyCYDHxe9G5/213KJq8d9+oUR5kcSCPPN17HxQ6M+P5xCglkREBERAREQEREBERBVrv++Cx/h539VzlaVVrv8Avgsf4ed/Vc5WlAREQEREBERAREQVenfznV/4Bo/0ioq0Kr07+c6v/ANH+kVFWhAREQEREBERAREQEREBERAREQVO/LWs+9ocC178s2h3NSqhM0OQaxBalx8CBpxwS2nRIcS4PdVU9idyWfwaMq/Q2nfulotThvSZtJda06YswnnfyNh0PzjFSSDKPYncln8GjKv0Np37pPYncln8GjKv0Np37pauiDKPYncln8GjKv0Np37pPYncln8GjKv0Np37pauiDKPYncln8GjKv0Np37pPYncln8GjKv0Np37pauiDKPYncln8GjKv0Np37pPYncln8GjKv0Np37pauiDKPYncln8GjKv0Np37pPYncln8GjKv0Np37pauiDKPYncln8GjKv0Np37pYTc/JI5NGZvKKqGV9fyXsyj21bVowK6xTqJRo9IeqsuZMmNE65JiC3I2mAhtDoExHVI49XAvZqot+ZQ2PmJNp9WuSBUGqrShcag1Ok1aXS50dt3EdxsZMV1p3aPEQ1N6tBaB5x9pB4vbyeysy2verZOWlkXlPcMZm/qPbtMqd1WlFnO0+LUKQ/MdjuuiIuyjjmwJhunrJp8BI+q6P0nwMp4Nbbyte5LmS+N2x7mrFEm1mm5SdlYZR4cKDMF9qmR/sjWYVSKGkpGkdDp6z4QXpa8eTNadUolmWtakMaXS6FeI3TUyOpSunTD6LJaN3pmopBytbrRbpu6+9dfhFTo8nnKsKLDpUaj1Vh2HUpFYYqjFcntVXpr44jIfOeDvSDJwOAtTmkhEQ5tIjhgHnCyrAy9u+8LMtWo8kfJO0+mUerVu43Kvl2207hHgVNqLqjNOi0bQymnRdDd1bQnx69Ok6RIhZXz6dNai5AZFvDX7CuO5qDUouUjsSPEdgCwbW0/MAOyTRtv84utAx1BPQQGK9w0DKWwbdmwKhSqCYSKZSpNEjuyJj8kihSHwfkA5umW6RutiROHqMsfC4iVYpnJayWpGNN6NbVSf7EQZFJg9LuOpSejU51raOEO6+XNF0cw9H+1cIlp1COOAeV6bZeVNDks2xL5N2SVVuaq0aw40WqOWKw1DGXWZFRB2Q7F1EOItNRdelomydPhIhHRtTNRsbLyBeEXKT2M/J9kXPjfMa2JFYHLxhqCcJ+35NUGSMXURg60UfSbW+QkI9cN3DR6bjcnLKKLRZVD7Xai+xLh0uAT8iuT35gNU191+BtyTfJ5pxh19wgdAxMeceLgHTIULJHLSgv0+ZCosp+dTq4dyNTptTlTJTtSKG7C6Q6+86Rvl0V02hF0iEA0aRHQGkPJUmy7ICjRn3OStku0NJuC4KBcdxwMosa1EZdgPgEUhpcUulNA+BOETu66LW1zFqwMSH0BYXJ05Ll22XQrsx5PeTM7Cq06PM6RSbUgPw3dbQlrYMmBI2sfB1Dq5lbahkHlrMdcmMQ61S5Ts6dUXZVIuOo0+Qb00wOTqdjvgWkjbAtHPoHTwiKulsWzQrMtym2lbVPagUqjxmocOK3hzA0yA6QBBn/sTuSz+DRlX6G0790nsTuSz+DRlX6G0790tXRBlHsTuSz+DRlX6G0790nsTuSz+DRlX6G0790tXRBlHsTuSz+DRlX6G0790nsTuSz+DRlX6G0790tXRB4A5Rv8ABb2vnRnRTbnstmzsu7KhUKJDkQaLSAYN+aEmSbplGYFoC1tusBu7olwdUtIq72r/AAanJVyutqZUpVk9t9Up8GQ4xLruh0RLQRc3RwEWj5serui4WHjL2Pj7ihrw+9Ot/B0n9ESitVcOePZFlxY7cdi1KMLTIC2A9Ba5hEf8qi7toVBo9r1ir0q2IQzIcF+SwUSO22/ug2RDoLh4tX4ytO6om7nf4p1r4NkfoiUVM9VccKZ3YsxfwT81flK1frlO7FmL+Cfmr8pWr9crVkW3DNlPdizF/BPzV+UrV+uU7sWYv4J+avylav1ytWRBlPdizF/BPzV+UrV+uU7sWYv4J+avylav1ytWRBlPdizF/BPzV+UrV+uU7sWYv4J+avylav1ytWRBlPdizF/BPzV+UrV+uU7sWYv4J+avylav1ytWRBlPdizF/BPzV+UrV+uU7sWYv4J+avylav1ytWRBlPdizF/BPzV+UrV+uVkePLpcql425aVrcm7M2Q7Wbgl0Q3JnYdhiV0WLMckDBk9kOjyjadjaT77g0I4Hx69AH6yXlu38gc6aSzlvZ5S7Si0PLW4qrVItYamPyJ05l+BUmIp9FJgAadaKe1rDdMT0mWoeoQcLHL9to6VUapB5OucGEOlUd+u4EcCktNSaYwYA7Kif6Q+y2A1t6nY+6IiYF1S51+a3y6rciUgca3ybc54caq0pmpTHOxtJDCBCka2m5Ew+yH2E2W27pOVt4aWzLqjioqNyXM76qEJ646lQjnlYNw2XV5cu8atVnZkqosRx7Ih0hjQ0O7G+5gEcBEuuWkAHozI5Omf2aFpXDadaqNAYartlsW/BbG8qsMKhygYdad+w2o7TU3f1NFuu6SDnIdBgGl0OKzOV9T8pnZGTEzk4ZpxYtgy6PaER4Co8nozJwIfReycrp4x47rpP6RPc2j4eLXrbC7NctGC7eDeX7fJtzYGovVF2jCRNUIYDlQBonShjMxqfRSkaAPHawd18JcK47hyLzsuWPmTbkqFZEalZqV6k1WdLarEtyRR2mIFMYlC2HQwGUWqC7tc5NdYCLrEIfCq5AZ31e9abctRqdGqjtCzAO6mJs+7aoQy6bvu7EMIGwUWETDD4jgYbuso/g7pGIdNI5ctBrzM1yNyec2GoMKBKqTlQnhQYcB6FG5ukPsSn6mDD7Qc46jaMh9tS1icrh7MabMi2zyYc4enQGGX34tSYoVMlbDuJ7TotSqm0ZtFpPAXBHEOEuJVOoclvM24qJclkNyaJYtvV63KrS5kGi3HUahTpk2RiBR5EenSGgCmgJiRmEd3i1mHF9tWnZLZUVq1LmqN3XTadJpVTOmtUxl6PeNXuF94dw3Xed2eIYNNatGIAIEXW1F4KCU7sWYv4J+avylav1yndizF/BPzV+UrV+uVqyIMp7sWYv4J+avylav1yndizF/BPzV+UrV+uVqyIMp7sWYv4J+avylav1yndizF/BPzV+UrV+uVqyIMp7sWYv4J+avylav1yv8uOU/y1eVjldyxb6jZc1e7rdj81MLtNrYw6o1EDCnRSPvTTslhrXjhuao7mrmd4iEsSFf7OrM3uTvklKv6p5n1TLmkVS5qs+xKlVCpM9MxF5phpho2m3cSBktppsdTQjjwIPLnJZ5d3KHzXCC1f3JQq0qnSsQ1XRa74hTuMxEMNEpzRqwIuLTII/wARez3K1W9xnYs+qYBgffdTsXq6S6vf/G0L63Rw0pnEfKVP+mNKU3FNbK4RHbC8JthOt6pwm3XAZF14o5jgZFpHDvbpF1uZTmPuqEuYtVNj4/8AmVP+mNKbx91eS85fpERW8EREBERAREQVa7/vgsf4ed/Vc5WlVa7/AL4LH+Hnf1XOVpQEREBERAREQEREFXp3851f+AaP9IqKtCq9O/nOr/wDR/pFRVoQEREBERAREQEREBERAREQEREEbU5j0abSWmtOmVMJl38jYdP84BUko+fAxmy6bJwMRwgyifxw8bvTjfN/1FIICIiAiIgIiICIiAiIgIiICIiAiIgIiICIiAiIgIiICIiAoW8vvTrfwdJ/REppQt5fenW/g6T+iJRWr2ft9d1RN2H/ABVrH+AkfoiXZq/uUXdRfxXrH+AkfoiWNV8WkyuaIi6eGQiIgIiICIiAiIgIiICIiAiIgIiICIiAiIgIiICIiAiIgg7s/klr4RgfS2l27i4bv/kYP8fA+ltL6bqwrZU6uW4j1QY/wjT/AKU0rFh7iqtfPXEi/CNP+lNK1Ye4q42Kf1ERapEREBERAREQVa7/AL4LH+Hnf1XOVpVWu/74LH+Hnf1XOVpQEREBERAREQEREFXp3851f+AaP9IqKtCq9O/nOr/wDR/pFRVoQEREBERAREQEREBERAREQEREETV5D7FQojLJYiEiebT2HjB0Z8vzhFSy4ZkJuXKgvGeIlCkE+GHjd6Nv/uKlXTnNZdvXO1Y0R6ZcF0PkGqh0JnpkuOBY4czsjAOGK17vfXybDH3BxIvaQaGiIgIiIImvVuFb1Il12oDLOPCaJ0wiRXZL5c3PwttNCRmX9GkRxJZkPKQtyTlVRM1KZZN1zW6/Wu1+DRG2obVROb0xyJtlvSQjh31ovbJ7qrTbiqk+iUeVVKbbNSr8mO3rap9OOOEmR+KBSHWmuf8AKcHBeYbPsy8peRESyMxOTDcNQeoNzvVkqXKr9LYcmNyKjMk7sMos4wddZB0NTUgmAPWWkiQekLQuOtXLS8anWsv69ackXSa6BWHYDkgh4e+YFCkvtaf8+rhx4fc55J2q0tmrxqIdQijUZUd2SxEJ8cHnGmiAHXADrEIk80JFzcw4uBz82pY1kVb182FGrDZZd1ikW5cl2Yu0a336rFfdtmlYQGsDddx3zDAXZbLp7Ec3dHSh/H0SOZVOvak532TmZbFg1O6YFPt2v0CazTpcNh+M7MkUx9h0ulOtCTX2A6JaSIh1hw+6gttVzlyjoceLLrma1n02NMbacjuS69FaCQDxELRARHxCZNOCOOHWxA+bq4qLzdz7y1ydoNVqFx3NSXapT6S9WGKFhVGG6jPjtARamGjPUftAXFh7XCvLmXdo3/l/crdmVfJqRc1xtZI0+iTYEKbBLorr9RqfeidkOtATB6OMgMi4R4PF6q3kJnNQMoMxMoGstH71qN52lbsCBWm6jBCM3IgUmLDdafKQ6DoED8U5DWkCEjkdYOMgD17IzMy7jXczl/Iv23WbnkDqaojlUYGeY6dXDH1bvV4ur7irlE5Q2SNdtmfecPNi1W6FSapIo0yoSauwww1KadJvQRkWnDVoIgx5+MNJDwksGzFy7z4rt11KXCsetTGafmZRLqYZpbtCh06o0qFKhlrEj0y3Z200Qlvm0HetOvRoE/jIyhzihVah1hi2ruiN2ffV71IuwEyjlMmRazPfkxZsMZpm1wtO7Tou7To756NXFqD1ozcVDkUEbnZrcByjnG6aNTCSBRcY+jVvbvU0aeLV1VVH8+Mj2GpLkjOWx2m4MpunyjK4oYgxJPEtDB994HS0lpDrY6cVT7fyvrNH5L9w5d0uh1diqVilV9xim1SdDelDKnnJdwaNyOIRQ1G/1Wu9NasQEiEdSpdXyFud1ithCsaJqk5EDYsLS5FH7P7/AM8Lr8I8TXF9q/G9pBvtVzFy7oNyQbMrd+29T7gqunoFKlVNhqZKxLhHaYItZ/5RSPmVl3Ju5ywY9+265c8cdTtEbqjBTww06uKPq3erxdX3PbXlWdyf8yDrN3UCv0e+qhSb6et+RidCqdEYhsBFgQ4xtTHJQHKaNh2K66JR9YlrDTx6lbu53mTTszyatXLuutW/PuipVeswa3MpMy33BkNSMDnwX8MeyUWU6RhwaNAbro6dHGQbpRM2srblYqsq3syrWqrNBEnKo5BrEd8YADq1E/oPHaHDSXtl7XCv5Azaypqdrzr7pmZ9qTLbp5YNzKwxWIzsCMXDwuPiegOuPWLwsF5gYy3z4ptpVS07Oy5rONDhWtHpFNgXk1blQnQNM2JqgU6QBkEhgYoSiHp/DutReIsNYhFXBY+Z1tXXV8yLvt2tu0Z66rNrsXtjrVBYmVPGKb8U4Z7TrUcJWt9h1kOoe00G6J8IB6zxzZyvYt6VdkjMm1RoUN5puRVMazH6KyboA40JO6tAkQOtmPPjxCYF4WClRu+03bZxvqNc9Ldt7CGU8qs3MbKF0UR1k/v6tG0IiRa9Wnm5/bXi2h2Ve1/3bdWY1mW/VqfFoWcsury6ZbsyllOw3bYhxTfYORqhOyGpBnujrx4ikaTIx4/S2Tlgy7TyuqdDdgVunza7PqlSOLXZcN+U07KdMjJzoQDHDEyLF0ga1iJOnxEg7qZyh8kapZdu3/3VbVhUO6mRepEioVdiJhK6upod0x76OrATb6wFwktJAxIcCEtQl7mK8e5d2JmzY1Et+oVnIysVqQWUVJy7kUgZ1MxOFPgb4vERFK2uiyt9vjAyPTHHWA8OC9HZM2jVsv8AKCybEuCaMyqW5btNpM2QBc4vvx4zbRmOr+sgxxQXdERAREQFC3l96db+DpP6IlNKFvL70638HSf0RKK1ezs4tX9yi7mP+LdW/wABI/REurWo25C/i7VP8FI/MJclV8XU0NFUb7zPsXLWLHkXjcbMN2ae1AhNgb82e7/so0VoSekH+K0BF/cpa2q27cFFiVo6NU6VjLawdxhVJkWpTX9zgiRYCX4vOu7hyJhERAREQEREBERARU3M+2qZd9iVmhV0ZhQHopuPNxpbrG9oHVtmTRCRNliPMQc+kx5wLnEiFef6LeFVpfJYyLsenwbsZi3XZlHj1at0CgT6kVMprdNY39PQmnDafd1g00XDp1uO/wCq0EHrJFg3IwrlFlcmrLmDAwkxtmjBFaYlw3YjhbXNqxaB4RJwOIeMNQfjYql8rZ5/Mu66TkZTqLdVUhU+mSLnrLltsA7IgyjB2PRyLU6HVkdIlD+PBaQerVytyojrzzTchsjYxwF0RLib9rn4l5dtbOa+85pFo0Fm9peW0w7KqVbuB9iJDdkN1uBNahzIZhLadAGI727u6REy1tcYeFW7WzOuhjlD3BbNPr8aJSLyrdtnMvqJFadp8x7sDDdagwwI3RaKZpPQ47qAQ4BInXWkHtBF5Ht3NPOSLBsTMGp33MrEe5r+uW1X7cCmQmoxQovZropg6DXSN/VTmOLd0EBFwauJRB5pZ/s2BYN3W3meVyV3NCyqncbdKKlwBi06YxAantBD22Bd2NeOMM98nz7+BahLBB7PXwjSo01kZEWQ282XhNlqFeRI/KVv27bpkxrTr7ONIzJqlPh5bujDaI2I8Ke1Frjp6h77pEnXR1atOlVPLW/s2CgW/ljl8VyQYzFEr9xHJoY0bffkFcE5jvnZUtGw1pEjFrj7+HGPtag9ySZUaFHdlSXm2WWhJxxwy0iAj1iIl0CWBYah9xeHM2L/AM1cx8k85BvG+Idq42vlLElzaPSwhSoFTl1KlyikEUghcMmjIdqPsOjxBq77z6VYLuzczVp9vXxetIzPGgt2detAs+Bb5U6G6w/HkBTN110nWt/fd6c6Q6T0CABw9YkHsVF5KtHNbP6674K4Icep4URrMSfasumynaJHo7dMjzXYZaMTPskUzS2MjxT6oNaSE161QEREBERBA3j/ACIH+PgfSml+N1fu9v5B/wDrYP0ppcW7/euXJu1jV8a2eqPF+Eaf9KaVv8FUeqnqZifCNP8ApTSvHgq8SbfpERboEREBERAREQVa7/vgsf4ed/Vc5WlVa7/vgsf4ed/Vc5WlAREQEREBERAREQVenfznV/4Bo/0ioq0Kr07+c6v/AADR/pFRVoQEREBERAREQEREBERAREQEREGT8oOwLqzMtWnWlZ+aFZsadLqOP+kKYPGYYRnyxbc04g7oLT7e060f4yoOXsp7IyLDsW+bZn2PDcmRdFYt+NFmW/UHeoZPvhFF+K7ILmJ0pQDx8LT+K9FyYsV9+G6/jxx38XWOLw9ox/NIl1oK12s1romx3Qa/u7Gxv7EDXr3de79zaNenvXV0aPB18a/b1BrRGRN3pWgHF18xEWoWkQcDSAYc7HVax4w8LV18XB4VYkQV1mg1oTEnL0rRjg6wZCTULSQNhpMMeZjqu48Z+Fq6mLY8K/HazWuibHdBr+7sbG/sQNevd17v3No16e9dXRo8HXxqyogrr1BrRGRN3pWgHF18xEWoWkQcDSAYc7HVax4w8LV18XB4UZoNaExJy9K0Y4OsGQk1C0kDYaTDHmY6ruPGfhaupi2PCrEiCtdrNa6Jsd0Gv7uxsb+xA1693Xu/c2jXp711dGjwdfGv29Qa0RkTd6VoBxdfMRFqFpEHA0gGHOx1WseMPC1dfFweFWJEFUasw2qrhXMbmqGM4hiMOP4RoODjjDGJY4sEfR9WLTpGZEOrhIsdra58V9u1mtdE2O6DX93Y2N/Yga9e7r3fubRr0966ujR4OvjVlRBQ76dq1p2pXrvC6qu/hSo0+oDFxkUyI2WG1wNb8hoWmgaIcSE3T9rH7aRjwrC6JyoajOZrcAZbFYuGk1K1YtPiUK5odRpdSOqOuxY4FO7HtG0JusOuyO9EQAAk11tC9BZl5e0bNKx6vYNwSJjFPrMfYcdiYgL7WOoSAw1iQ6hMRLjEh9riEsFm9R5K9DrdXq9x1rMq+J1drUekDIqJOwANuXSphyafMZEYuhp1o3XA0COyYGe62ZFrQZjTM286LevS6rTr8irTqzLvGkWdS4LdVg9FguyKN07pQyux3G3zsEJfY46RdPvRmI6rTaueuYNdrVBauG3p9EpldvGu2O/IjVuHMOLVYrUz7U12OHdhh0B3adIwd1l31owV3pHJttun3DjeFUvG6a3WzuiLdj0uc7FHfmx6c7AaHEGmAAGsGHeoAjxAHt9bVKxshrPh4UrbqlZxxo96VK+2NTrfMU+bjM3Wi719o+z3dI4cxcIc5Fxagw2g8pK/ZNiN3NalArFai0HLe3cyKr2VuKG06cKRHmE7DEhpxE8+fQyIi70JFhwlH6h+kaRTKlWKLDnRMwLi25kBs23cWIG5zme6Lv3Np16Mdv3NGnwdfGqTbfJgsG2LQq1lQKtcDkCtWFTMun3HpDBOjTYDcxpp0dLWnfIZ7uotOjhDgHi1atR6WxRKRBpEZwyagR2ozZHjzkQAOkdSCNeoNaIyJu9K0A4uvmIi1C0iDgaQDDnY6rWPGHhauvi4PCuaZZr9ViHTq3cs+qQZOLG/ElRYDjD7bY6TaMdjiF3rn+N1NseFWtEFNpNgY2/RWqDb911KmxI8bo7DUSDTmQbLd3N0QGLoEubvfNp0afA18akHqDWiMibvStAOLr5iItQtIg4GkAw52Oq1jxh4Wrr4uDwqxIgrrNBrQmJOXpWjHB1gyEmoWkgbDSYY8zHVdx4z8LV1MWx4V+O1mtdE2O6DX93Y2N/Yga9e7r3fubRr0966ujR4OvjVlRBXXqDWiMibvStAOLr5iItQtIg4GkAw52Oq1jxh4Wrr4uDwozQa0JiTl6VoxwdYMhJqFpIGw0mGPMx1XceM/C1dTFseFWJEFa7Wa10TY7oNf3djY39iBr17uvd+5tGvT3rq6NHg6+Nft6g1ojIm70rQDi6+YiLULSIOBpAMOdjqtY8YeFq6+Lg8KsSIK6zQa0JiTl6VoxwdYMhJqFpIGw0mGPMx1XceM/C1dTFseFc8y0KlPpr1Lk37X3W5EI4bjm1A1FiTuonfubTq0d69zRo8HXxq1IgpVbtp6k0SoVGJclV3IkV2Q2JiwQ4EI4l/sv7l+K7l29V6NOow3nX4WM2OTAyo4Q91jWGnEwwNgg1flDiP9ytdRixptPkxJ2Olh9k2neLTwEPMS7Pb/qWXpyrvTyhZlkXNybqlNq+Yo1u5W5pyOmZlUqGFSqRskOlpqox3WnZTTTRd9AmCdYAteoWWuFeiafT6lNYh1KHesmZGkDDfbd6KxiLzQDx8Qh7jurV+L4OlWdFqlWuw104M7A3me50cmsHCpzX27d1bv/Jwaf8AMvq7AubBwyauVgG8XZBCJU/VpAw0tD1/ALi/G6vCrAiCujBu9s28XLjp5jri4u4djSw1AA9/0994ScLq+J+OvnjAvvY2huah72wQ7mNEd09I3dWvT0rqbXDo93VxavAVmRBXTYvHF08WarR8W8XpGIidOdwLa0d4HEt/rCePOZ+EPtCIdZfptq9Bcbwdm0YsNcXd0RHR4cB+yNPfPCLqeL4WtWBEFawwv4Y/NroJP4MFxaXxDf3PzNr/AO/+5fRx28d48Go1HNvfkacSedEtrT3jwetq6/8AUPV1Kwogol2WmN/0kbezCy+su5aM4/Eedg1bDpjHud9LadYICID+1+N/ToXFZdj4ZaUZ6j5d5RWDbEV/VMeg0N/CDHdm4kIaiFqGI487AB33Tq1CIadPGtIRBRo1sBSX6edLy0tmP2DGZDozkZ0WigxSANANYbHesHTARMA4R0CXH7i6oUSdAq0mqx7CpUWbVSghUZzMod18QbLWTh7Wp3Y6gautq8BW9EHlm7Lzy8uZu42Z3I6mXtSLYrEvCszYdJpM5lqscGEowjm6Mp89sw3XGmDI+rx6VqdQk5cvU6svT7GtmRSpFTxh1N9x+nFHflxTaaii/iZc27ui0w0B8bZgA8PCsgzRy/vmoVq76jYuRl329mBPed7CXjal2xYVKmHgOmLKqjBymt7Tw7rbsORwhpDXwr7N2VV6pynysBmdAnWyZ03My5wjnhzMV2K0UNpomvAB91qHMD8enu+MgudRzryAtyi1SY7EtEYWXz+NdqDEKoUl4qLJd3elStpp7W0+Lr7zR4iO667IIQ16yxX4t6/OTlZlSg3JbVp2fb1avuH02E9EmUKLMreLsrTtNEErVIIz77w4kGPjbvAsmnZM5vy7GuzLO0bBrlMoMzL+56DCptzzaPMbpk2axpjsUmdHLpZMOn1+leAAdQh0LovHJ7Mq7rjviZV7JzExpGZ9EpUMqbS6nb7HQwajdHdiz3ZG661oPU+LsU3ftp6Q3R4w187x5PNlV2j2rjQrNo9VtV6pNUSCD1Iju03QxuvnFa3dTG6yft6REtJd9wAeJdFOpuQWbts0pyDlfa9321Glf6PcYp1OqMBh2QRFIJogI2h0HqF/T4ePNxLP6xkFdlQO7MXrRYmlVc57culpx+QwRSaPDbpQuyC5y8Ho8rvRcXW0jjqw1atk/Z9ftSsZmSKxTMIUe4L2kVimaXQPfjHBhhu46Cx0anWneEtJf049ZB+Lms7KS8XY1Wu/I+HV34lLKKyVQtdiU83E3cWuijqEuDiItrqaS1KiZg5E21fmYT1zVXB1mEcyIb7LVjsFP0UvFp8WGKmDW6EV0mg4S1keswaMOqPo5EGbBbeUp3m1f+OWcYbpeejCNaxtJ3CbrfZ0gRyNjWOlvDSZkXesOAyHqqydu9D6J0gma0OHR+k44FQZwnp3drqbWrVq8DraePm0cSsqIK+7d9DbNxo3JYE25IZLHGBI04EwGp3i0eL1S8PwNS/gXlb7pttBOPAnXYzQ6oro6jkDqaHq+EP/AC+FzKwogrfb7aOEfpmNbaFnY6VqICHvW5ta+r4/Cvod52mwbjblwQhJp2Q0WBOiOk2B1v8A/IPEX9SsCIKFd96Wg7RMRbuWlmWM2m8OEwNWO66LrWn8toCIPGEVz9s1veXqf8aBaKuOVFivvw3X8eOO/i6xxeHtmP5pEsMmLtXZU10UNyqU6qPQodMqUWS/06KWDbLoEWkHxIj4PxRJaPgmGHMv6qx4+hVdxERapEREBERAREQVa7/vgsf4ed/Vc5WlVa7/AL4LH+Hnf1XOVpQEREBERAREQEREFaq9lUKt1QqxLOqMTTjhGJyFVpUPU0BGQCWDDo6tJOH/AM6+fc5oHlC5/SqqesK0ogq3c5oHlC5/SqqesJ3OaB5Quf0qqnrCtKIKt3OaB5Quf0qqnrCdzmgeULn9Kqp6wrSiCrdzmgeULn9Kqp6wnc5oHlC5/SqqesK0ogq3c5oHlC5/SqqesJ3OaB5Quf0qqnrCtKIKt3OaB5Quf0qqnrCdzmgeULn9Kqp6wrSiCrdzmgeULn9Kqp6wnc5oHlC5/SqqesK0ogq3c5oHlC5/SqqesJ3OaB5Quf0qqnrCtKIM/qdhUVmZSWRn3FzvzTaPXcVRMtOw8fCRP8BcOHEPt82oeqRKX7nNA8oXP6VVT1hTsroO9E6Vp3N/Ho2r/a7RdX/Jr/8AddiCrdzmgeULn9Kqp6wnc5oHlC5/SqqesK0ogq3c5oHlC5/SqqesJ3OaB5Quf0qqnrCtKIKt3OaB5Quf0qqnrCdzmgeULn9Kqp6wrSiCrdzmgeULn9Kqp6wnc5oHlC5/SqqesK0ogq3c5oHlC5/SqqesJ3OaB5Quf0qqnrCtKIKt3OaB5Quf0qqnrCdzmgeULn9Kqp6wrSiCrdzmgeULn9Kqp6wnc5oHlC5/SqqesK0ogq3c5oHlC5/SqqesJ3OaB5Quf0qqnrCtKIKt3OaB5Quf0qqnrCdzmgeULn9Kqp6wrSiCrdzmgeULn9Kqp6wnc5oHlC5/SqqesK0ogq3c5oHlC5/SqqesJ3OaB5Quf0qqnrCtKIKt3OaB5Quf0qqnrCdzmgeULn9Kqp6wrSiCrdzmgeULn9Kqp6wnc5oHlC5/SqqesK0ogq3c5oHlC5/SqqesJ3OaB5Quf0qqnrCtKIKDcdh0WHb9TmtT7jI48OQ6GDlxVF0MSEC6wlI0mP4pe0pXuc0Dyhc/pVVPWFO1LoXY6X0/R0PYPf1dXa08XP8A5eddiCrdzmgeULn9Kqp6wnc5oHlC5/SqqesK0ogq3c5oHlC5/SqqesJ3OaB5Quf0qqnrCtKIKt3OaB5Quf0qqnrCdzmgeULn9Kqp6wrSiCrdzmgeULn9Kqp6wnc5oHlC5/SqqesK0ogq3c5oHlC5/SqqesJ3OaB5Quf0qqnrCtKIKt3OaB5Quf0qqnrCdzmgeULn9Kqp6wrSiCrdzmgeULn9Kqp6wnc5oHlC5/SqqesK0ogq3c5oHlC5/SqqesKOp+TtiUh+XKpbFZhv1KR0mY7GuCotlJdx/wBY5pf4y/GJXpEFW7nNA8oXP6VVT1hO5zQPKFz+lVU9YVpRBVu5zQPKFz+lVU9YTuc0Dyhc/pVVPWFaUQVbuc0Dyhc/pVVPWE7nNA8oXP6VVT1hWlEFW7nNA8oXP6VVT1hO5zQPKFz+lVU9YVpRBVu5zQPKFz+lVU9YTuc0Dyhc/pVVPWFaUQVbuc0Dyhc/pVVPWE7nNA8oXP6VVT1hWlEFW7nNA8oXP6VVT1hRFTsKiszKSyM+4ud+abR67iqJlp2Hj4SJ/gLhw4h9vm1D1SJaAuOV0HeidK07m/j0bV/tdour/k1/+6CC7nNA8oXP6VVT1hO5zQPKFz+lVU9YVpRBVu5zQPKFz+lVU9YTuc0Dyhc/pVVPWFaUQVbuc0Dyhc/pVVPWE7nNA8oXP6VVT1hWlEFW7nNA8oXP6VVT1hO5zQPKFz+lVU9YVpRBVu5zQPKFz+lVU9YTuc0Dyhc/pVVPWFaUQVaHYVvwahCqoO1iRIgGTsfGbW5kkW3CaJrVgDzpBq0OGPV8JWlEQEREBERAREQFE12t063Ka5V6s47gwBss87Udx4yN1wWwEQaEjIiMxHmEcfdUsqtmN978T4eon60jIHdGoHk+5/RWqerp3RqB5Puf0Vqnq6tKIKt3RqB5Puf0Vqnq6d0ageT7n9Fap6urSiCrd0ageT7n9Fap6undGoHk+5/RWqerqQqlyUKiSAjVeqRojrsWRNw3z0jsR9G66RY8IiG4GrH8bBRbGZWX8u3qNdIXlSG6VcUlqDRpkmWDDU+Q6RC00xrxHdcPES0gPEXgoPp3RqB5Puf0Vqnq6d0ageT7n9Fap6up+ZLi0+K9OmPCyxHbJ51wuqADhqIlFS72tKDZbuYky4IbVtNU7sudUNz7HGFtbu/q8TRxc6Dl7o1A8n3P6K1T1dO6NQPJ9z+itU9XXRd172bl/RiuO/Luo1t0psxaOoVae1Dj4GWPCO66QjgRf0L52bmHYGZFPcquX982/c8FsttyTRqmxNaAvFI2iIedB8+6NQPJ9z+itU9XTujUDyfc/orVPV1aVE16vUO3IrVQr9UjQY70yJAbdfLSJSJD4MMNflG64AD+MWCCM7o1A8n3P6K1T1dO6NQPJ9z+itU9XVpXwfkMxWTkyHgbaaHWZmWkRHxsUFd7o1A8n3P6K1T1dO6NQPJ9z+itU9XVpRBn9Tv2ivTKS8MC4udiabp67dqIFp2Hg4RJjjLiw4R9vm1F1RJd2OZ9rNyWqeUa4sH3QNxpntaqOohDEdRCOx1R1h/zCrPJlRWH4bT+HHIfxaY4fD2jL80SUFUf5zqB8A1j6RTkH87o1A8n3P6K1T1dO6NQPJ9z+itU9XVpRBVu6NQPJ9z+itU9XTujUDyfc/orVPV1aUQVbujUDyfc/orVPV07o1A8n3P6K1T1dWlEFW7o1A8n3P6K1T1dO6NQPJ9z+itU9XVpRBVu6NQPJ9z+itU9XTujUDyfc/orVPV1aUQVbujUDyfc/orVPV07o1A8n3P6K1T1dWlEFW7o1A8n3P6K1T1dO6NQPJ9z+itU9XVCtvNe9QzQzOtfMKk0Sn0azaDSrhpxU111+VjFkO1MD33D0iZaaeJ6BAdG4Q6neuq9yes+blzaq8A61clm4sV2gdnolEhU6fEnwQMmtIhKfMmKq0Au6HX2BaEHcBw0lr4Q17ujUDyfc/orVPV07o1A8n3P6K1T1dSterlKtiiVK5a7MaiU6kxXZ02S51Go7QkZmX9wiJLCcsuUjWTsm87pz1ocW3J1q06JdGMKAw4TvYKbH34fOBERHJEwlRT0cJPRy06dXMg2HujUDyfc/orVPV07o1A8n3P6K1T1dY7K5UFQouYdw068bCuOg06lW3QpUWhy40V2rSqnUanIhx22ijyHY54OmLAD33hLXr0q15S5p3HmFmHmHbtatqoUJi1JFKZj0+e20Mpg34uLru6TDrrTvuiQkBkP9HWQXfujUDyfc/orVPV07o1A8n3P6K1T1dWlEFW7o1A8n3P6K1T1dO6NQPJ9z+itU9XVpRBVu6NQPJ9z+itU9XTujUDyfc/orVPV1aUQVbujUDyfc/orVPV07o1A8n3P6K1T1dWlEFW7o1A8n3P6K1T1dO6NQPJ9z+itU9XVpRBQbjvyizLfqcJqBcYnIhyGgxct2otBgRAXWIo+kB/GL2lK90ageT7n9Fap6up2oyo0KnyZc7DUwwybruGnVwCPOS7EFW7o1A8n3P6K1T1dO6NQPJ9z+itU9XVpRBVu6NQPJ9z+itU9XTujUDyfc/orVPV1aUQVbujUDyfc/orVPV07o1A8n3P6K1T1dWlEFW7o1A8n3P6K1T1dO6NQPJ9z+itU9XVpRBVu6NQPJ9z+itU9XTujUDyfc/orVPV1aUQVbujUDyfc/orVPV07o1A8n3P6K1T1dWlEFW7o1A8n3P6K1T1dO6NQPJ9z+itU9XVpRBVu6NQPJ9z+itU9XTujUDyfc/orVPV1aUQVbujUDyfc/orVPV07o1A8n3P6K1T1dWlEFW7o1A8n3P6K1T1dO6NQPJ9z+itU9XVpRBVu6NQPJ9z+itU9XTujUDyfc/orVPV1aUQVbujUDyfc/orVPV07o1A8n3P6K1T1dWlEFW7o1A8n3P6K1T1dO6NQPJ9z+itU9XVpRBVu6NQPJ9z+itU9XTujUDyfc/orVPV1aUQVbujUDyfc/orVPV1EVO/aK9MpLwwLi52Jpunrt2ogWnYeDhEmOMuLDhH2+bUXVEloC5JMqKw/Dafw45D+LTHD4e0ZfmiSCB7o1A8n3P6K1T1dO6NQPJ9z+itU9XVpRBVu6NQPJ9z+itU9XTujUDyfc/orVPV1aUQVbujUDyfc/orVPV07o1A8n3P6K1T1dWlEFRwzFtrF2Oy+1XY+MmQ1HByTb89hrddMW2wJw2BAdRmI8XN1lblVsxvvfifD1E/WkZWlAREQEREBERAREQEREBVbMb734nw9RP1pGVpVNzPkOsWuy+xDdlOtVmjEDLeIa3C7JRuYR1kA6vyiFBy53z6nTsn70mUi6XbZmtUKaTFabhOyypzmyWmRtNCRnox4uES6uK/z0g56ZtUbI/NynZeXxXrmuCi0GiTZFzUS+X7sozDDs3amSGHZDHSoEro+4Zsai0CG6ABoX+j3bfcPmruj4xS/XF827qrjWBbWVNzDqLVwyKX64g/z2q2ZmZNKyyqcuJygum5cS8zLVpdXr1s3RU6u/blHfac7Jaa1KYaPSR4w+Noi2t0w4Ootj5Ld90e4r9zKp9Qzvuqu29SswKZBsyTUK6+704CphmEUSL7oYId0/wCnd2hdIj669S9tFb2uj9ya5dvm06d6l6f/AE6YqbZVqx7Buq9LyoOWl6FUL+qLFSqmD82lk2DzUcWA2h6VwDoAfGQZ/wAr+ZU3pY2n2ZqUWkVLLC/ZcuLFnuxhkOxWqcTBFtGGrTqcw/JdMeqZrNbotO6s3maVlbl/asiv0bLuyWo2E2dchtu0+6KlGadjygdkC6TrsOPpMOPh6Zp8Vewe2+4fNXdHxil+uJ233D5q7o+MUv1xB5CuDOeJmK3ImZp37VbKEcsDKm0yHW3aeL92tSp8OrxxaaIeyDsd2PFAYxi6PfftRa1nN+3RS5PJwv2iX3mLWKLUKblFb4WXRG63IhtT4jtEEpDowxIWpuqRvtOmQO7QNf6rTqX+gJXVXSISPKu5ixHHUPf6Xw//AIxMbrrpFgZZU3NiQ9UukUv2v/xiDMuVx2a7V7C7XOg9lO6RbfQ+m6+j7vSsNO7o4tP5KoGb9gZm23R7pzerd5wqHc9yTLHtUCtFt2ILEQLiYB103XT1OumE11r2xERa4ePUS9Hdt9w+au6PjFL9cTtvuHzV3R8YpfriDyhm7cMiy5ea1HezTuujXdaFOpreVVJK6ZmLtVPoDZNFsG7/AKXN2fvsO74yC0gPVUVmFc8GsVmpMXpmFVW77iZ3WxAYtfGtyNhqjhW6YUUhp2va2iDS70ra1E6Wnd8BewiuquEQmWVNzEQdUt+l8P8A+MTtrr25u9yy5tWnTq6RS/XEHl+gZ01aRFy7smFmE/NvVrNy5YFYpBVIimDCaOunFYmBq1AxpGHoE+HSLWnq4KjXBcNp3lyWbhdezlvKrX7Py2eql60LthmvNQag0TBysZLQl/os2nsX2hYDYB1rdE2nRa4PbI3VXRIiHKu5tRdYt+l8X/4xfzC6q4JEY5U3NgR9b7IpfF/+MQd9qlQ5Ft0p22K12Uo7kNnGBNwqJzukx9GGh3CUZmb+ocOfdIyI+fVqx91Tqqo3bXwHSOVdzjh/iKX64v7233D5q7o+MUv1xBIVv2p1Dd9rQ1OMyLxR6K+oSjPndN2M3hDAsKRT4EmnwnccOKcT7rBm6H/hDsCIl4eoi6ugjrt90e7Mzose2JFRuKwqZMlC2bkPGnPT5JC0Tukt0JMcWO9aSHSRHq8EefX+ByazCAREOVbmoIjwiI061fqdBrKLKe47mL+Fhmr8m2r9TJ3HcxfwsM1fk21fqZBqyLKe47mL+Fhmr8m2r9TJ3HcxfwsM1fk21fqZBqyLKe47mL+Fhmr8m2r9TJ3HcxfwsM1fk21fqZBqyLKe47mL+Fhmr8m2r9TJ3HcxfwsM1fk21fqZBqyLKe47mL+Fhmr8m2r9TJ3HcxfwsM1fk21fqZBqyLKe47mL+Fhmr8m2r9TLBeV9kxeMmzbNpNWzjvm/GalfFIh9hKxT7Y2JBHi5zf8A6qENXtf63W17fEBINko+TeZwZsXLft0Zj2lVKNd1JiUKp0di0JUZ0qfFOcTANSSqTmAuc9Qc3DxaISwAcBFv28VHWTye70tuVbkio5o0+eOX9tTbaswsLexZdjC+1HbGROx6SQSiAIzQ6WhYEuMvCHR59ZyQz3yGoFeu6y8zqxlxEr9etK34FDjRbdlsYPS6s1DlSnI8elNRWe9TB0CwAmZNanTPhAbJf1Zz3tW2s+q3B5UV74ycq3YoUaJJotukc3XTY0zvummcW67INhrRp0k34fVQek82svDzNy4ay/uW6GYcSoyqczXnMI+jCpxRfbKRDEd3vWEnTtdY+F0h5iWeXnyNcv65jL7Q5I2YFYt6fb1XGDExf6Y07i05Gd43OE48hoXR62oSdD2terDEL1iZqXTaTEq4uUzeB4U/PelWnFgvUygYHtR64w2w7qCnDzyuEZQ/6rTpEmiFTEG8M73bSy5rR8pq+ZNTu+9bit6XT2KVbeBlFprVYMdgexWoXddOiiZlqHvp8I6h0hq9x8mm+73rVTvW8M2KU5cr8O32qY7T7ZNiHT5VIqhVGO6TBzHTdE3T0uhujw9UwV7yuywua0LtvW+LtvGHXKteb1PdfbhUgoEWH0WPsCDQm+6RDiPFxFz6sS/rwEfLt3Ts4qjyZ6TmFO5Ztxv1C48vmbgkUJim2+y6+86UPdeYdagi6EVrpJNH4Ws2u+h1St9ffzztC8qhTLl5SWZHas7dNKo1MuWl0u0prETCV0VroVRY6CD7EopDpADoNE0AvMEY9bUHsNFlPcdzF/CwzV+TbV+pk7juYv4WGavybav1Mg1ZFlPcdzF/CwzV+TbV+pk7juYv4WGavybav1Mg1ZFlPcdzF/CwzV+TbV+pk7juYv4WGavybav1Mg1ZFlPcdzF/CwzV+TbV+pk7juYv4WGavybav1Mg/d7cpnInLTMCNlbmBmdRrbuWfThq0ZiquFEYcjE440JdJMdjAsTYcHRievh6q0iFOh1CIzOgSGpEeQAONvNFqBwC6pCXuEv8o+XlyK+ULnJykqFGtKTeOYMVi0IbT1crMSnRhj/Zs7VHF2MxEi8A6XdBd9774XAC0Dk7fwc+euRNOdut/lO3DZwwW3p0iiWxJ32JhAGod0ZAdHEvxSafw/GQf6H3YJna1ZbbHEiOBIERw/r2iUwq9HoNZajttP3vWXnAERJzYh4ai8b7QuarRqvR6XMrLV0VB8oTBydl9qNoc0DiWktDQl/9yjsrqtSIitIiIgIiICIiAiIgIiICIiAiIgIiICIiAiIgIiICIiAiIgKHrQmVRoRYBjjgM8yL8X7FfUwuGZNbiSoLJhiRTZBMBj4vejc/7aDuREQEREBERBVsxvvfifD1E/WkZWlVbMb734nw9RP1pGVpQEREBERAREQEREBERAVWzG+9+J8PUT9aRlaVVsxvvfifD1E/WkZBaUREBERAREQEREBERAREQEREBERBE1eO+/UKI8yOJBHnm69j4odGfH84hUso+fPxhS6bGwASwnSiYxx8XvTjnP8A9NSCAiIgIiICIiAiIgIiICi6jRKRWei4Vmjw53QpTcyNjJYB3YkB1HQ1YcJj4JYcWClEQRVYo9KrsVuFWqXEqEduRHlA1Kji6Ivx3hdadwEvDBwAMC8EhEsPcUNWcrsubkuKFeFw2FbtSrtOxHodSl0th+VH0nrDQ6Y4mOkuIebq4+3grciCly8pMrJ1znek/LW1pNwuux5BVV+kRzlk7HMDZcxdxHXrAmmiEvdHaDxR5kPKTK2m3G9eFPy0teJXH5pVJ2qM0hgJRSzEhJ/F3AdeLhC64OJ9bjPxsVdEQUaDkxlHT262xByutKM3dLTjFbFujRxwqTR4mRg/zD30SIzLSfP1iX4i5L5PQq1T7kiZV2ixVqQ2w1BnNUSOD8YGg22hbPTqDQA4APN1R4RV8RAREQEREBERAREQFC3l96db+DpP6IlNKFvL70638HSf0RKK1ez9pHdUPdxfxTrWP/l0j9ES7taibsL+Kta/wEj9ESzqvi0laURFvwyEREBERAREQEREBERAREQEREBERAREQEREBERAREQEREBRNXjvv1CiPMjiQR55uvY+KHRnx/OIVLKPnz8YUumxsAEsJ0omMcfF7045z/8ATQSCIiAiIgIiIKtmN978T4eon60jK0qrZjfe/E+HqJ+tIytKAiIgIiICIiAiIgIiICq2Y33vxPh6ifrSMrSqtmN978T4eon60jILSiIgIiICIiAiIgIiICIiAiIgIiII2pw3pM2kutadMWYTzv5Gw6H5xipJRtTmPRptJaa06ZUwmXfyNh0/zgFSSAiIgIiICIiAiIgIiz63M7cs7vply1u0a+7cES1H+i1Ryk02VMPdwbF3QwDTRFK5wcAh2NzVq4edBoKLO7JzssLMK45do26Fyx6xT4bdRfiVq1KtRjGMZk2Do9NjNYGJGJjw8/VLxVepUyLBiuzJjzbLDAk464ZaREB6xEg6kVUy5zGszNq0IV+Zf1rCp0OeTwR5Ww6wWptwmjEm3REwITExxEhwx9pdNavSh0C47etWpPOjULoekMU0RbIhI2GCfc1F4PABILEiIgIirl33rQ7Ip8Gp3C+43Hn1en0VnEGiLnlTZTcZgfc6uLrocSCxoijq1W6RblJlV2uz2YNPgtE/KkvlpBoB90iQSKIiAiIgIiIChby+9Ot/B0n9ESmlC3l96db+DpP6IlFavZ+341f7lF3Uf8V6x/gJH6Il2av9yi7oL+LNW/wEj9ES56r4tpleURF18MBERAREQEREBERAREQEREBERAREQEREBERAREQEREBERAUbU4b0mbSXWtOmLMJ538jYdD84xUko2pzHo02ktNadMqYTLv5Gw6f5wCgkkREBERAREQVbMb734nw9RP1pGVpVWzG+9+J8PUT9aRlaUBERAREQEREBERAREQFVsxvvfifD1E/WkZWlVbMb734nw9RP1pGQWlERAREQEREBERAREQEREBERAREQR8+BjNl02TgYjhBlE/jh43enG+b/AKi/NXrdHoMIqlWqpEgRGyATkSnhbbHEi0jhiZe11uZZ7ygLgzmty0YUvI22KRXrjenbWEOpStoSa2HSLQOoBdPDTq0k60PD1lmeT8O2L7udmsXfJavHMOjOxX5US75zsefQtY9/di0koYNRRAuFp9oO/j1pCD1AirXTcwOjau1ugdI2NW32bf0dI3Orr6H1Nri16efXw6ebjX6cm3kLhbdv0Yh3ZGAkVVdEiEQ7wf3NjxGfCY+APEOLvUQWNFXG5t5E4O5b9GEd2PgRDVXSIRIO/n9zYcQHwgPhjxFi11F+em5gdG1drdA6Rsatvs2/o6RudXX0PqbXFr08+vh083GgsqKuOTbyFwtu36MQ7sjASKquiRCId4P7mx4jPhMfAHiHF3qI3NvInB3Lfowjux8CIaq6RCJB38/ubDiA+EB8MeIsWuogsaKtdNzA6Nq7W6B0jY1bfZt/R0jc6uvofU2uLXp59fDp5uNfpybeQuFt2/RiHdkYCRVV0SIRDvB/c2PEZ8Jj4A8Q4u9RBPOuC02R44FpEdXCOpeecgrvgT8381gjWne9Mh3JWYFQo8iqWTWKVFdix6NBjF3yVFabb0utOjoIhMtPCOI83PtDc28icHct+jCO7HwIhqrpEIkHfz+5sOID4QHwx4ixa6i/PTcwOjau1ugdI2NW32bf0dI3Orr6H1Nri16efXw6ebjQZvlG/UKDaN3ZxXvbFebrl1VqXNkU9umPuz2KexIONTowRwDd4YrbbukR677p+GunlOU69boy3HKuwqfJOo3/ADAoMmdiy6cWm08gJ2Y7INv7WJx23WAx1DjuvtaVoLk28hcLbt+jEO7IwEiqrokQiHeD+5seIz4THwB4hxd6iNzbyJwdy36MI7sfAiGqukQiQd/P7mw4gPhAfDHiLFrqIPK9ey/v+hRsx8uswKTMxtq83aVd8OVZFtSqhBgy2JMVibEfhlqJ1h3YiuuxQ4nWnJukeuqq9ZGdFwwbapeT1ow7NlU25rgGBWoNtVGi02RHcoI/ZTUCVqOlbrpHFEuMN0TfAXdXFp9FzV5Vtcp18X3S6blfModnVmtU4bd2qgxPldj5JgTQz90mtRNBqFzGKPHw6BHjUpUOWJAZgu3DSrDk1O3YFJj12s1iNUmxj0WFKjBJhHJAxF0jJkxceCOD+w1oPvmrSg5M5MaazyD7tbtmzaxaEdq0JLLFEmtnHmQnR4TbMi4id3dXfdRbv2zWWvVjnF55dQ7hrVxwcpMr7jo1lVB+wI9VgtW9MpXSqg3c7bkyQLRNAZm1C9uRKDwdOp09HDp1Tzjr+Y9NzHs26eTrVqxQ6NccS0JEaDVWnCqgOxWnZWIEJDg0De6Jib5x2zadDUbTuprDkr/KluaXa4VmgW3Ho1YCDc7D9KnScHyi1WlNG47HfdAdGkGhF0TaJwXSPRwj31BRM2stI8KbmpQKblPVHbukNUuLk9UKXbz7keixmoEVqO3FmMtbVNFieMp10DNrgPwhJfC6bKck3ZLCrZV3HUMx+7ZSKt2wM25KdHC3RrMV2OXZEGtoobUUQEmN3gNozIB0kY65aXKUu2vVKNbULK2XW5kFqnhXalTp7XRYL02Gw/EJ1jT0rSe+O6bTTrTAY6tbmkxHZG5t5E4O5b9GEd2PgRDVXSIRIO/n9zYcQHwgPhjxFi11EHlS3mr4cg5YZc020btjXFauZt0TqpMk0GaMCG06xX+ivlKNradbdxlxSAwIh4x1aC0gqpMy3tOucnOq2xB5P93FmCxYjIXdJk27KEJ9VjvxjdF3dHTVZhui+60+0D56cD0GO6An7U6bmB0bV2t0DpGxq2+zb+jpG51dfQ+ptcWvTz6+HTzca/Tk28hcLbt+jEO7IwEiqrokQiHeD+5seIz4THwB4hxd6iDotcaINtUnC2qf2OpOEOPhAh4wTg9HjaB2mujmImxpDSO0QjiPNpxEfcU2q43NvInB3Lfowjux8CIaq6RCJB38/ubDiA+EB8MeIsWuovz03MDo2rtboHSNjVt9m39HSNzq6+h9Ta4tenn18Onm40FlRVxybeQuFt2/RiHdkYCRVV0SIRDvB/c2PEZ8Jj4A8Q4u9RG5t5E4O5b9GEd2PgRDVXSIRIO/n9zYcQHwgPhjxFi11EFjRVrpuYHRtXa3QOkbGrb7Nv6OkbnV19D6m1xa9PPr4dPNxr9OTbyFwtu36MQ7sjASKquiRCId4P7mx4jPhMfAHiHF3qILFh/T/vUPeP3pVv4Ok/oiXK3NvMnB3Lfo4jux8CIaq6RCBB38/bjYcQHwgPhjxFi11VxVgL7q1Cm047eobb0ynutc2Faf0C8ZaNOrovPo2uPXp6/Dp5uNRepL+7ijbmL+LtU/wUj8wl9KhGuimU6VUX4NLcbiMG+Wmc7qIQHV1dpfWTbdz1KM9T5TFLYZlNG0663MddIQLxR2h/OXJ0tv2leERF3cMBERAREQEREBERAREQEREBERAREQEREBERAREQEREBERAUfPgYzZdNk4GI4QZRP44eN3pxvm/wCopBRNXkPsVCiMsliISJ5tPYeMHRny/OEUEsiIgIiICIiCrZjfe/E+HqJ+tIytKq2Y33vxPh6ifrSMrSgIiICIiAiIgIiICIiAqtmN978T4eon60jK0qrZjfe/E+HqJ+tIyC0oiICIiAiIgIiICIiAiIgIiICIiDhmQm5cqC8Z4iUKQT4YeN3o2/8AuKEu/Lix79KA/dltQ6hKpLwyadLMcQkwXvHYfDS60X94EOKka0RjUaEOB44YFPMS/G+xX1MICIiAiIgIiICIiAiIgIiIPPY8nrNKPAvGzqfnXSqbaF6Vyq1aW3CtQwrLLM94nHmG5xTiZHHSRDg70XV4XW9tcde5IFv9t9QrdoRrGZp1Xi0yHJi3BZjNZkwghRwjB0F910Ra1R2mg0Og6OsdfjCXpBEHnW7+S5WbgqteejXtQDpFVvWJezFGq1tnOik+FNGC7GmB0oQlMd7afaHAGtp1oC49GCjKXyOZtNjTKfjmJTxhyJVxTWGYlshGCO7V4HRXREAf0bTRcQBpHh4TIy76vTqIPO9w8mKr1yrWy9Iu+3MGrZOj9CqwWpg3cEJqFgxrjxqiEodDT5NFrE2nOF10OLh0+iERAREQEREBERAREQEREHDVIAVOlzKY45iAzGDYIh8HWOldyh7sIwtasuNliJBAkEJYf17RKYQEREBERAREQEREBERAREQEREBERAREQEREBERAREQEREBERAXDMhNy5UF4zxEoUgnww8bvRt/9xdyh60RjUaEOB44YFPMS/G+xX0EwiIgIiICIiCrZjfe/E+HqJ+tIytKq2Y33vxPh6ifrSMrSgIiICIiAiIgIiICIiAqtmN978T4eon60jK0qrZjfe/E+HqJ+tIyC0oiICIiAiIgIiICIiAiIgIiICIiDkkxYr78N1/Hjjv4uscXh7Rj+aRLrUPW/5RoHwif0V9TCAiIgIiICIiAiz/OnMSr5VZb1q+6NZky6H6PEkTjgsSm4w4MssOvG466fUDS1jhwiZaiHmAlA3rnNW6LUrHoVtWvSpdVvSmTqu1jWq4VMgRmorbBuNnIGO+ZOl0odIbXtg06XDoQa8ipmU9/R808t7dzDi0yTTm6/ACaMV8sCNvV/RrH2jHxT8IdJKm1rNvNN/NK5ct8uMsLcrgWrS6ZUZsurXY/THXum4ydDbDQQHwLT0UucidDrig2VFjljcp/Ky96dbJdPm0urXJRWq+NMehvPFDimToG7IdaEmm2gcYdAnTMQ59HF3wNXXE5TWS0+K5NC6JkeODEaYDk+iT4YyYsiQ0w1KYxkMB0iPuvsjvta2h3BIyEeJBrCLPrgzYtak3pT7DbrsIKy9PhRZMV5uRhiAympjjAiYNkG6XQ3T0EQ8IcWnWGqoM8qSw6zflqWxbE/pdJr7NUlP1eXClQoox4TG7jIjOvtA1KY93U60ZAPOPFxCg3BFQbEzoy8zJqDtLtKrTXJYwgqTTU6kzKecqEZaRlMYSmmukMava3WtYcQ8XFhz1GqZxZrScxLzsnL7Kq3K3FshqDjLl1K73adIkHKj74g0wMB1rh6vOb4oNsRY7aHKfyjvCnW/Jj1yTT5VeteJd+MSTT3/sCmSGXHRflPiBR2AHYeHEzPRrER1cYau2Hyj8n51LqlZxumVTo1Gp4VaVhVKPOp7pQTLQEhhqQwByGiLhE2hMSMgHDiIecNVRYpa/KXtC4MwLhtZ7CTTKfScbdjRnqhTpsSY7PqrsoAjuxpDQOtY94axHWA8Lurq82Ktlczpy2tpyqM1CuvHJpVYbt+RCg02VMlnUDhtTBjtR2GjdkH0V0He9CWkdfP1C0hf0WT25yh8u70zApWX9rHWKk7W6JIrbFQapMroYA0+TBtOOk3pZdEwdAhc06DDBsuMhFawgIiICIiAiIg46jFjTafJiTsdLD7JtO46tPAQ8xLsUPd/wB6da+DZH6IlMICIiAiIgIiICIiAiyWLmHmC3yi+5fVqRQo9sS7Xm1mnvsuvOz3XY8qGzrdPhaaEulF3oRMuAS18WIDn9h8oy+qzWsvq3cz1o4W9mfXarQabR4cd9urUd6K1JcEn3TfIZH3GTToCw1tOvNe2XhB6aRUzNu66nYuVV53xR2Y7s+3bfqFXjNyAI2jdjxnHRExEhLEcSDmx4hx/vwWKWryhb4ptz2PT7pvfLu9od5Q5sqVGtSnOwp1GFiA5M3XAOdKF1rvWxq71xutIPTyLEaFynKNdFHtqfbOV981SoXhCdrFFpLbFPalSqU0DBHUe+ywaaY1ymgHddB0zLgAh4lwVvlWW3Mtt2pZeWxctxScLVeuiQUSIwIUaNrfaApgvPtHq34r47TQuu/Y7vCg31Fhlr8pe38Mpqre91w6gUqzbTpVw3H0OKOIudKgDK+xh1cXhcJaVYXM86c/dc62qHYN41yLTapjQpdbp0SO7BYqe0LvRS1Pi/4bYk7tbAGek3R0npDUkWcZF5pT848s6VmHNs2dbpVTcNuJLdYd1AJ4iLgk04eGn2vC0nwlwYe0qTlbn/Xr3zPrFDrdNpkK06szPlWLUWtYu1Bimyuh1InyItJc7ptPtaRDUyfPxadaDfUXmp7lZRJtxWTXAtytUCwbgo9duRyrViIxon0uFCF8ZTGLL7htBp49LwNGQmPD1l9XuVSVOvonbts+4bStiPYkm6nI9WiMHOkljNisRcWsIr7oce+Q7RELusx1CPCg9IIsTd5UFqwYtUi1yzbrpdyU+RS2GbbfGE5PnHUZBsQsWDYknFITdadDifHRtHuaF35O5oXHmLdWZlMrVAlUVq069CpsOnzWmhmMgdLhyTB0mnDaMt188RIDIdJAg11FgFlcqVy66BSpbuUV39sdfq1dhUq34j1OckyYtLmEw/KxdKYMdoB70B63R76ekN0dBlquXt90PMqzoN6W9g+MKduhi3Ja2no7zTptPsOh4DrbrbgFh4wYoLUiIgIiIC5JMWK+/Ddfx447+LrHF4e0Y/mkS61D1v8AlGgfCJ/RX0EwiIgIiICIiCrZjfe/E+HqJ+tIytKq2Y33vxPh6ifrSMrSgIiICIiAiIgIiICIiAqtmN978T4eon60jK0qrZjfe/E+HqJ+tIyC0oiICIiAiIgIiICIiAiIgIiICIiDjldB3onStO5v49G1f7XaLq/5Nf8A7rsVJzItWmXkxRaFWJNZjxXKpiZHSazNpUnnGK/zaZENxp0cPxdXMSr/ALGnLv3yZq/OvdX1ig1ZFlPsacu/fJmr8691fWKexpy798mavzr3V9YoNWRZT7GnLv3yZq/OvdX1insacu/fJmr8691fWKDVkWU+xpy798mavzr3V9Yp7GnLv3yZq/OvdX1ig7M/KBmFeOVFxWPl1Srfm1K5qbNozzlbqr8BiIzIiut4viTMZ8nSEiDvekNXFxis3uLKHNO7MLGq945eZcXKNsUmdSZloVKuvyaQ4670Xo9Rafdp328RYdb0nH4RkHoPra757GnLv3yZq/OvdX1insacu/fJmr8691fWKD75LWZmBl3alt2Rc1RpdUiUuku4Spjcp8n2pZP6morQmPFFaaMmgMj196Dh9vhrtS5NVtXjnVeOY+YdHp9XpdbpFFp1LYwlPg60cXpnSN0B0jpLpDWniLql1fCm/Y05d++TNX517q+sU9jTl375M1fnXur6xQRFdyBxrNz3e3B7F0W2a/lrHsCGxBb0uwcBdmasQaARAGhalNYBgJ+Bjwj/AE1rDIW+cxHaZAzohW1ApVBsOq2SDNBqL8w6iVQGGLsot1hro4iEMdDQ7hanevwDqvnsacu/fJmr8691fWKySzskqRdmZmcVmzMyc3oUK36hSotGdjZnV/dghIpjDzmI65hiffTMu+ifu+LzIJe2+TnmY/QbZqeYdx0OoXod7NXRdU+I67tPR2qW/TmmoxG1q1bWwekhANRO/wCaux+S/m1ctl2RlZeEy0qZb9kWTWrH7J02dIfmz2pVMGA1MFg2GgYIRASJrdLiMuPhw143alZq9doVs23S69mTNr2FtP1idWe2W+6y1VsAqUmDFMWKbUx6KMgYZvk7xiO6GANErDEpdZaq983NcV23pbFLp1kWnVINuVq/Lz36ZV6oclomH3Y9SJ993da2tkGNTpbABg0WsnQ9B5IZKXFZVyx7mu62KPCqFNoPYNifFvGs1x5/WbRP6Am6QisHjHaPaHWWoR4uHi+r/JktS6M3L+zBzGoFNrcK5+xbVNY6S/qBqPG2nRfb4QISL8rhXnyiMQ5dWetW5Zl+VCbTb5t+idOdvK9aRqiVFgndwYMuquutPtGBiJ6yEuEtOCgaBAr1Cy3tK4J1w3zTrfk2+7UZVzT7svOdBdmjMfA4z502pgNKaBpto+lOtG13wvELUHqC8OTw7dU7NimMyadR6HmDl1TLGpmENrncp2x2VEyxa0iAtYBPY0AJf6sx4eYdVTv3IXOXNxx247sGzrfrVIt6LSqNGp9QkzIsuW1VoNRN2QZRmiZaI6Yw0IiLpCLrpe7wrSI/Jyy4kMNvtXPmg4LgiWBN5s3SQl+SXZFfb2NOXfvkzV+de6vrFBmNeySzuuy6rmzLmxbLhVibUbNqdLo7VYlOsc9FlSXZDD8rookG6EjnB0Wi0lwkHBqP7xMkM54d6y84jatBy48L8duePRMKtJCG7Bft+NSnWCldG1C+JR9YFtEJafA3MdGj+xpy798mavzr3V9Yp7GnLv3yZq/OvdX1igi7bsTN1rNy3sy7ratB/F+25tFrrdOlSGsIJlM6TH6MBtF0rh0tERkx4buni2sNqWU+xpy798mavzr3V9Yp7GnLv3yZq/OvdX1ig1ZFlPsacu/fJmr8691fWKexpy798mavzr3V9YoNWRZT7GnLv3yZq/OvdX1insacu/fJmr8691fWKCn518uHIbk85r0/KfNyp1ahyqlRmq21VBp5yYIsm++0AFtanRPXHL/VaeIeL+rVrAzUy1zUpXZrLS+6FdEENODjlLntScGsS9wXNBY6C/FLi/uX+fvK+/g3cws8c/aTUstpdRatWLbcOJJqt03bNqR9J6ZMJ5oHZjsmUOlo2CERDa1EXVLWrXlf/BRZYZQxCvm4MwLnqVx0SO9LiuUWa/SBAhDEgxJ1p3eIh5us0bX5KD31UsYPY6X0/R0PYPf1dXa08XP/AJeddnPgq3hZVE6DhBdlVmQzg1tFvViY5uDp046u+8XOuO6bfgxraq0mPPrLbrMF90CGsTNWGIgWPP8AbVl50rquKLKPY05c/wBNw5o4/wC/NW6Mf/8AoJhyZ8tfLOZmP+/M+5vX1qlq6LKPY0ZY4+5Usxv+OZdy+vpjyZsr/wC3ZgY/78yLj9eQauiyj2MuVv8Atr6L8rMO4PXV/ceTLlT/AE9uhflX9XvXEGrIsp9jLlLze2zd5f775rmP/wDuL+exiyh/ph3OX5V51n1pBwVHKvN6RnlAzcj5mWi3ToMGRRApJWfKN8qbIlR33QKV2TEd/wCxREHdnQOrHvRKPofJwcj5sxcybkq9rzexNUmVmGdLtFim1OZKeafYaOozAcPpewxKfAdLTWoiAz1ECn/YxZO4/wD6ruMvyrvrPrSexgya5v5Frn/G66t6ygnbksWvXlk7WctbnumM9Vq/b8uiTqzGp2LDW7Ijm0T4Rt0tPX1aN3/Mv1QcrbWtizjtag0ek06Q9Suxb82JTWmTd71o1kIdbxtOpQGHJgyY979Xx/33LVPWF/fYv5Kc3t2xUC/KuCpfv0EHFyGua1IuXNQsG+6ZDuGxLRwst2XVKGcuHUoRBF1EccJTRtHuwmjHS6XtEY46tWoYCnclK4LThP0/L/NJmn9mrT7Vbik1Cg9Lcl/ZUyT0yNofaGO7u1GZwlg6HGHDwcdDh8lHk33Pyksz6dfGXkGoU6gWra8qGc+fKM4mL7tW3zF0ndQathvwvBWYWzl1Zdw0Cj29bkm8HGpE+7apTZ1GlxTkTLahVLYhzHZlVf6ODAA6AcDRuujtFqANRmG/VzkjXZKs+47Bt7NuFTqRd9o0q2aw4/bhSJW9Ai9GGRHPpQA0LgadbRAfUx0GOJahvFPyrvGzLuqtWtrNWDRrPr9zjctQpzlGFyacp0WwditTDd2wYfdECx7wTvOZgJ4ah0eNrUtix6rSY2bl01KfTI5ZKwbofp8ZvpkMarIdfY3RYMhdLvotFtdIEdXCR6Fy3vltQadS8w7Er1OqEWXbr+XdRizbnkQHJlOOpXELEgXwprvRza2o7RaS4x1nxaSAkHt2yspLwsjI2dlDTMxIrc9mHNp9ErjNHIDp7T2raNxrpBbrrWrVqEmhLmHgBV5nkdZTW6NmyMt6THtep2fMjm3PBo33JkLaJiXFc74P29h1wdfgniB6S0aMfPNfyts21bqujJ7nrNcqOFwW/AoVUiQIDtYcKbDkzJEHiJiA0YNQHXd91otLTvVdPQoq2Msmb2thiHR7UcnSaDd1fo9XCkSKMN0ToUPFvaNoJH+jXSaN0Af2hH/VaNGrSg3xnkhXBVLctuwLzzUZqFq2jatVsumxIdB6NKdpkyB0ETffKQYk+00I8YtABcfBxcP3uHkpXPmOEzurZpwKqTlnHaUcabbXQ2mzCZGlNTDB2U/uluxR1NY8BDw8PFr83ybSoF+y34GWlmPSGKHYdPuBqoxqdSYQz50h2Y067UWqk/3pgCh6TGKQcW730O9L1va/JoyLqduUqp1zJq2otRlwY78xhrDF5pp0mxIwA9XGIn7hf0oIQOS7Nwoj3RKpYVvXBHq9KrFIlW1YzdMhMSIDxujvsDIJ2ULushId8NIc2jSWoiv+VGWdfsetXrc903bHrlXverR6tLKJS8YLEbFqDHhi02BOuliOiMJcR6uJcfsVuTt5nrbL8qKnsVeTnze3kzapflQBQVChcnG9LNlUqt2nmTRGqvb1RuTsS5Ott2QwVLrMwJj8WSIzBJ10H2mtL4G1hpDTtcS03KnLxvK2xIVnMVR6pvNPzJ82Y63g3jJnTJTkqU7gHuAJSH3SEeLSPDzlzKAx5K3Jw/pyQs/H/fS2sf8A9C/vsU+TX/TkXZBflUVj9lBqyLKPYp8mfH3MhbD/AONBj/sJ7FHkyY//ALP+Xv8Axt2Lj/8AyINXXhGt/wALBlZl9nLeGUGbuXlxW/jbFdk0hmr09wKgw+006Qi+633p1rUGAlpDB3rL0x7FHkw/g75bl+Va8L90vHN+fwR1v5iZ8XNfWFwUa0rGnymnadRKPBPUDXRmgeDaHaCOXSBdMCEnR06eBB7Hym5TWQOeTbXcrzYt6vSnQIxgNytifgI+6RRXdL4j/eQLSJWELeidK07m/j0bV/tdsur/AJNf/uvL1mfwe3JYyfhwKrT8uo1erMWZAZCp10Qku4/ZTQ6toQGOJ8WPGLWBfjL0l2o2h71aR8Qa/ZUdlJvHD2l+VVavQ6HSWYs6k0aDCkjPhNicdgGy0FIbEx4fd4CJWzHDDFJrzS/qIisEREFWzG+9+J8PUT9aRlaVVsxvvfifD1E/WkZWlAREQEREBERAREQEREBVbMb734nw9RP1pGVpVWzG+9+J8PUT9aRkFpREQEREBERAREQEREBERAREQEREHJJlRWH4bT+HHIfxaY4fD2jL80SXWoetCZVGhFgGOOAzzIvxfsV9TCAiIgIiICIiAiIgIiICyu5OTllVdtyVm66zAuLptw4s9l24N11eDCqO00LQb8OPJCO7zNAI8TeOrDBaoiDOriyKy1uTsZi7RZlKKi07sPCKgVSVSDbp/D9h88JxrVH4B5mi5xHwdK5a9yd8o7kffk1G3poYy6TT6K8EOrTYjRR4EjfhFoadEd1h3iaf+2h4JLT0QZZTeTnlLSq12yR7fqL1UKbCqL0qTXZ75yZcXE+jvv4uvluuhrINZ6i0YCHVERw+UvkzZPP0tighR6vCpoU/sS7DgXFUobUyFqdPo8kWXx6QGp937bq9p0x6pYitYRByxozESOEaK2LTTIi2222OkREfBFdSIgIiICIiAiIgIiIChby+9Ot/B0n9ESmlC3l96db+DpP6IlFavZ+3fu/3qJu4v4p1rH/y6R+iJdm6ou7D/irWP8BI/REs6r4tJWlERb8MhERAREQEREBERAREQUO7Mksmb9rYXNfOUdl3FWG2hZbqFXoEWZKEBx1AIuutkWkdRKSuDLXL27HKSV1WHb1Y7BY6qXjPpbD/AEHq/atY47XUDq83UHxVakQUXHJXJ8tnAsprPIWI8uIzhjRIve2JWrpTQ8HtA7qPWPuFqLV7q+bGR+SkRlqExlHZTbLTQxwDsFF+1DIGQIdTq74A7/8AmiJ9ZX5EFGHJPJobZcssMqLSG33pnZJ2mdho/RSl/wC3JrRp3fx+svjOyMyTqkYoU/J+y345PA+TR0KJpJ0GtoD6nWFodr8jh6vtK/ogpFaydyluZmlQ7hyutWosUJro9LamUeO6EFnDT3toSDgDhHhHh4B/qV1EcBwwEcPaX6RAREQEREBERAREQQd1/wAltfCVP+mNLv3VwXh/I7f+PgfS2l991ZVsv+LjuQ9VPj/CVP8ApTSsGHuKr3AeuHH+Eqf9KaVow9xONnlP6iItUiIiCrZjfe/E+HqJ+tIytKq2Y33vxPh6ifrSMrSgIiICIiAiIgIiICIiAqtmN978T4eon60jK0qrZjfe/E+HqJ+tIyC0oiICIiAiIgIiICIiAiIgIiICIiDhmTW4kqCyYYkU2QTAY+L3o3P+2u5RNXjvv1CiPMjiQR55uvY+KHRnx/OIVLICIiAiIgIiICLJblz/AKValyyKTVbBvEqHTqvT6FOuYIccKZHmzDaBgeY3xkOhrkxxJ1pg2hI/bPhPT+KdyiLbqNzxaONq3IFEn12Ra8G6XW4uFLlVVgnRdYHv/SMO+sOtA6TAtE6GkTx1BqDXUXHOmw6bFenz5DcaNHbN1150tAtgOGoiIseqPNgqzS83MqazhVTo+ZtqThoYi7VOjViM70AS6pP6S71/n5kFyRUWVnVlBTolLn1HNmzIsStPPNUx9+vxRbnm07tOiwRHzOkDvAWA9UuH3VHZsZ9Zc5Q0yoO3FcdKcrMGF09mgjUmBqUpnVp1tMGWsh63FzeCSDS0UEd3WuAE6Vy0vBtqoDSTLGW1pGcRCAxseL2ndZCO31tRDhzKv1nO3KC3XLgYqeZdstS7VhuzqzDwq0cpMFkOsbrWvWHuj1sMOsP9aC+oqzQb9tC5bNjZh0a46fItyVD6eFTGWHRsI+A44mZO6tA6NJavb4dJc644GbeVNUteffNLzQtSZbdNLAJlYYrMZyBFLh4XHxPQHXHrF4WCC5IstoXKHyrrDN3ViXeNDplBtKsRaMddl1WMFOmOPwIsxsmn9ejTpmAHW6wkv1QOUJlfU7VnXnWbso1t0SJXqhb7dQq1Ujx40l2M8bWJtOkeAEJ6NQ/ioNQRUu7c2cubLpcOqV++aBExqsc3qS1IqkdkqppHAtMXUXfdWoOpq6wqKlZ6Ze0TKCi53XjV2Lct+t0+n1ADnuCBNdMACabx/H75+cg0lFTcM2cseztPtbumWrhWKs00/Tqd2Zj9KmNOjqaNprVrdEh4hIesrkgIiICIiAoW8vvTrfwdJ/REppQt5fenW/g6T+iJRWr2ft+NX+5Rd1H/ABXrH+AkfoiXVq/uUbdB/wAW6t/gJH6IlzVfxbSvKIi7OGAiIgIiICIiAiKk35cmYFJOlQsvrBjXHNqLzwOu1GrdjYMFoA1a3nRafd1GWkREGT93HVoQXZFgDvKbqY5W2bmXDysnSmLirkWiVHDGqNCxSjcrDVKM9/Tqfw3n9bWhrDdaAiImlv6Aix/ODlARMpLstq3Ctxyqt1VwJNcltytsKHTClMQxmujpLEh35TWGng4AfPV3olPXnnbllYFdG3btuB6HKGO1LlG1TpUhiCw86TTTsx9pomojZmBiBvmAloPxcUGhIsls/Pi3qsU6Jcr7NNqA3PXbfgQ2cHZLkpqmumLr+kA1AGgMCMi4AIxHXjqDV9bc5SmS1y4G7Sry24uFCduYJs2mzIMV+lNaN6Uw++0DTzTe63rxbMtGrDVpQaqiy+j8obKatymYLFwTokyRIgxWo1Tok+nPu4zCIYpi3KYAyadMTAXeba18GrV7SV3PvLaPbVdrNJuRmc9Ra3KtgmQad4q1HaJ04ePD7ukcdR9TTq4vaQagixmmcprLUbct2o3fVHKbOqtCpdcqLcenTZcWjjNaEmumSmmiaiARatJPk3z4DqXyzS5S9nWI8/RaI69Vq9EuOh29IZwgTMYbL8+dFYNopgtdH3wYlYvbG5r4cOFBtaLMmeUHlLIuliz2rod7ISau9QYpY0uYMWVUGsT3YzEra6O661tO4GIGWjQWrSum1M88r73rzVuWzcUiVMlC+cFxyly2YtRBgsBdOHJdbFiUIeFsGfMg0RERAREQEREEHeP8jD/j4H0tpfjV/cv7en8hf/XQfpTS5tX9y5cm7WNXPXS540X4Rp/0ppW3wVS6wXeImH/mNP8ApTSungq8SbfpERboEREFWzG+9+J8PUT9aRlaVVsxvvfifD1E/WkZWlAREQEREBERAREQEREBVbMb734nw9RP1pGVpVWzG+9+J8PUT9aRkFpREQEREBERAREQEREBERAREQEREEfPn4wpdNjYAJYTpRMY4+L3pxzn/wCmoa78x7HsIoDF2XLDp8qrPDGp0QyxOTOe8RhgNTrpf3AJYqrZ+W1nNclnRo+Rl2Ua3rjjTMHsJVTi7o7Ww4BC2ekwaPiw5iNp0fxVmOT8y2LEudmj3fGas7MOsuxWJUu74LsifXdA9/ai1YphtShMuJpho+8D1o6D1AirXQswOjae2SgdI2NO52Ef0dI3Oto6Z1Nrh0aufXxaubgX6chXkThbdwUYR3ZGIiVKdIhEg7wH3ThxAfEZeGPCODXXQWNFXG4V5C4O5cFGId2PiQjSnRIhEO/h9048RnxAXgDwlg711+ehZgdG09slA6RsadzsI/o6RudbR0zqbXDo1c+vi1c3AgsqKuOQryJwtu4KMI7sjERKlOkQiQd4D7pw4gPiMvDHhHBrro3CvIXB3LgoxDux8SEaU6JEIh38PunHiM+IC8AeEsHeugxe6HMz7pzkJq9ckr1rFlW1U4r1uM0ifRMIEuQGAFhU52/UGpB4tO6tpja0htYO98d0bUJRss8zm4Vt5MyrFmMUe2MwnbsK7DmxehyKaNRfqLANtA70rpRG60wYm0IcLx6+pq9A9CzA6Np7ZKB0jY07nYR/R0jc62jpnU2uHRq59fFq5uBfpyFeROFt3BRhHdkYiJUp0iESDvAfdOHEB8Rl4Y8I4NddBV8wajVapkXec6sUCVRJblArAnCffaeNsRZfECxJoiHiERP2i8L+gl5fqmUmZObeUdAjW1lPKoTNIyXm2qzuT4AjWpc3sYTDUfQ/9ziMJ09Uja+3hw6tej2G9SrsmtlFqlXoUmM9jHbfZKiu6XGdGmSGOqTjh3wupz8+ADjpIXesvnHo96Q6a3AiVu3GNmIMZoWaE6DTZi7w4i3hK9prBnDRt8/W4tengQYzmNYV4Ui9r+n25lQ9eNJviwoVqUxqE9BYZpb0cp2th8ZDrWmK70xo9TQn9qPnDn0as2uPI3OGi5eZkZUM5bvXpNvNi23oNwhPhNxRxgU6nRnWn+kPi6Bg7Adda0NEBE+PEPHo9cOQryJwtu4KMI7sjERKlOkQiQd4D7pw4gPiMvDHhHBrro3CvIXB3LgoxDux8SEaU6JEIh38PunHiM+IC8AeEsHeug841XL/ADd6bUrKg5ZTpEOTnHSr47OYVGBhBxpQVGHKd0iT/SN8Np3U3tYdUtBlwAf9omWOY4ZZTsmKlkszJqkCBdjUe8ptQh9Hddn9K2nYugzkbsjpA7u6DWnvvEfDru9XzQzuO9K5Zlg2xblyhaLdPauCWQuQ3wlSj3cOhxSdIJGiKQEQOyGOItQmf2pV+TylLtjZxxMtpTthBBqVz1C24pxKvhNqzD3RXXYjsqC05paawJosC7/ulra70wgtN10rMitcl1ug0Kwjj3T2Ggw3KDVm6bJdEW3WgkCIm67CN3aBwmtwya14ta/CFYw9lRnc5e9bvWTYF01uEdwWhc7DVWqNG6fUW6aT7UiO4Ed1qOEkN1p9oftRC0GG6J8AWa1uURyg70n5TVGDZdk0ygZiV4ov2XUJXTcIUaC+7MPQLRgJGbDpNcXCINAf20ia9GdCzA6Np7ZKB0jY07nYR/R0jc62jpnU2uHRq59fFq5uBB5lp+WualOzMk5xnk5OCCOZ0i5httifTimORX7XYp/TR+yOj74Shc1gTurjdIdXDrhaPkfnLQK1Q797U7mozcSuXu+VHtibRHKjBaq9SYkxXw6brimO0wbToiYmG6Ojh1r1s5CvInC27gowjuyMREqU6RCJB3gPunDiA+Iy8MeEcGuujcK8hcHcuCjEO7HxIRpTokQiHfw+6ceIz4gLwB4Swd66Dy/Ssm72y5adj0fKesXJTbjyyK02oUiq0112kTSmzpLrMwjJhrFgxnNgRRwMR6LpwEuDVfLmy2vt/kc2/lzCtzGTdNGoFtNP0tuSxgZyIDsNx9gHTPa194MRx16NXhf0rYuhZgdG09slA6RsadzsI/o6RudbR0zqbXDo1c+vi1c3Av05CvInC27gowjuyMREqU6RCJB3gPunDiA+Iy8MeEcGuug83XDltmjWqZfVjN5Z1HF7MK96VdsW43pkDapUcCpxGMrv+70mL0MmgBoXQLS1pPTq0etFXG4V5C4O5cFGId2PiQjSnRIhEO/h9048RnxAXgDwlg711+ehZgdG09slA6RsadzsI/o6RudbR0zqbXDo1c+vi1c3AgsqKuOQryJwtu4KMI7sjERKlOkQiQd4D7pw4gPiMvDHhHBrro3CvIXB3LgoxDux8SEaU6JEIh38PunHiM+IC8AeEsHeugsaKtdCzA6Np7ZKB0jY07nYR/R0jc62jpnU2uHRq59fFq5uBfpyFeROFt3BRhHdkYiJUp0iESDvAfdOHEB8Rl4Y8I4NddBYsP6f96h7x+9Kt/B0n9ES5W4V5i4O5cFHId2PiQjSnRIgEO/h7cnHiM+IC8AeEsHesuSpUS+KpR5NMfuWh65cE4xODRHdG6R9fR0rqbWOjRq63Fq8BRepw/GtR9yF/F2qf4KR+YS7pNsXMzGcKNW6e+8AHi0LkAh1l4IkW6uat2FX69RZ1EcvEKcNQYNgpdPpwi+xgQadbW8TrWv8oCD8Vcfp5Py37S7r7zPsXLWLHkXjcbMN2ae1AhNgb82e7/so0VoSekH+K0BF/cpa2q27cFFiVo6NU6VjLawdxhVJkWpTX9zgiRYCX4vOvNFmZdX5ydqjOrd2Ra5fgzTf6bflFjtTrgxZMeAZkN9p2QbTBcQDDddHWZ/Y4BwLe7aNu6aLAuWg5j1ep0ydhFfYdFqGIug0OlwSw6OJjul7bmHCQmPMG11V3sF0RVrtZrXRNjug1/d2Njf2IGvXu6937m0a9Peuro0eDr41+3qDWiMibvStAOLr5iItQtIg4GkAw52Oq1jxh4Wrr4uDwoLEirrNBrQmJOXpWjHB1gyEmoWkgbDSYY8zHVdx4z8LV1MWx4V+O1mtdE2O6DX93Y2N/Yga9e7r3fubRr0966ujR4OvjQWVFXXqDWiMibvStAOLr5iItQtIg4GkAw52Oq1jxh4Wrr4uDwozQa0JiTl6VoxwdYMhJqFpIGw0mGPMx1XceM/C1dTFseFBYlkWf1rZvXpTKPb+XjNDeoj8l0rniT7ik0Z+dFwHvUVqTHiSSADL23dIgekdAnxkrx2s1romx3Qa/u7Gxv7EDXr3de79zaNenvXV0aPB18a/b1BrRGRN3pWgHF18xEWoWkQcDSAYc7HVax4w8LV18XB4UGO5oWNnhd2VVuWHauXGW1GchVSj1CTEC7pjcKANLq0aWxHjaKV30HWoohjiQNbWvhB3AeLXKHKv6RNbK6KPQYEUqWybwU+pPy3G6hiZbrQmbDWtjAMG9LmkTItXOA+0vszQa0JiTl6VoxwdYMhJqFpIGw0mGPMx1XceM/C1dTFseFfjtZrXRNjug1/d2Njf2IGvXu6937m0a9Peuro0eDr40GP3FyXG80LqzEuLNG6q023dzY0GJCoNZfjsDb7TGlph8dI63SdfmOlhxB37TxaVxWfldylbImS6vFn2JXa3dNColMrVTqUyVgMSbAB1g5gxwY+ywdaIXdrdY0O6x1EJaw3B6g1ojIm70rQDi6+YiLULSIOBpAMOdjqtY8YeFq6+Lg8K8pUWkXtlrcNPubO67M38XHboiE3edIu1qba8xp6VtR2H6Zq+xWH99ho8OikLR8QSA65BdLS5Nd8WHf8AcuYdu1mlSJl61mutVyJOmvkx2IlPuvwyili0XR5DTh8bQhtO7ruosTFolx3PyUbpurLLL/LiTcFIgna+VFVsSe+2brgdOkRqY0060Ogd1gTgu6tegtJDw8WOn4wc3c4azGhWHQqs9UMw4DtyQrihCENpsApfE0+1ibGlo5RyqSIbuoRYlGWkjHWqhcGbufVUseo4xM5IdDu2JcNsBIgSLGfpsyns1SrMQTYKHKL7IYaJzAmpLT5C7zOgXWAxDR7qyUzZzTqFcva7I1q0C4ottxaXbUan1R+dG7Jx57dRalvyCjNE23hKixcBEGjIRwMvdLQom3uSle1KrdMem12iP05m0jdnNA67qkXq7Dkw35/2r7QbE1/DVjx9XgUbTs8c6qjf0uPRHq9WqJQr3iWrMp0aypBuyY8dwIs+f2TBrorQbpOyDY0kWlrSDrWvSueh5m8pa55FnNQswaFEi3zXrltKE47RAdfpztLlTiGou9UJBE1ANrYEGg4xLXqQGeSLeFO6XS3qVQLmg3PbVDo1WGVd1ZpkWI9Dp7cGR9ixR0T2HGmhIRMmi58SAuE9Q2a4sg813WrksS2RtErWreYdJvkajNqMoJrTMefBlPw9gGCDVrhnod3eqQgQD11oOSNdvHM3Lan3bcN2zodUem1iFNbgMRRi4vMSnYfeRcYIwaEmMXWhMiLj0uk7zK+M0GtCYk5elaMcHWDISahaSBsNJhjzMdV3HjPwtXUxbHhQeQaVDuLt2sDIqmnSKlDtPNGq1l1yOM8amEI+yb+7KYdjNNRWg6ZgAyBddB8ia0ddaDkJyaq7ljOs2DX6LR5sewILkOm1zC7qzOflczHRWnW6c9gMWCRMEevQTo4dQOHiHeu1mtdE2O6DX93Y2N/Yga9e7r3fubRr0966ujR4OvjX7eoNaIyJu9K0A4uvmIi1C0iDgaQDDnY6rWPGHhauvi4PCgsSKus0GtCYk5elaMcHWDISahaSBsNJhjzMdV3HjPwtXUxbHhX47Wa10TY7oNf3djY39iBr17uvd+5tGvT3rq6NHg6+NBZUVdeoNaIyJu9K0A4uvmIi1C0iDgaQDDnY6rWPGHhauvi4PCjNBrQmJOXpWjHB1gyEmoWkgbDSYY8zHVdx4z8LV1MWx4UFiX8xVb7Wa10TY7oNf3djY39iBr17uvd+5tGvT3rq6NHg6+Nft6g1ojIm70rQDi6+YiLULSIOBpAMOdjqtY8YeFq6+Lg8KD+3rj/F/H/GwvpTSj9a+0+zptUYxhzr2rZtE7Ecxw2oY/aP6PtH+sPSZfjDwaB4F85FmzRejdFuSpE2Tvf9QxeFrQXV7142hc+SKqu0tIqePtw1I+GH8IwvpTSvfNz4YKtx7QYBxp+TV6jLFpwHQbf2RHAxPUPUbEusrLz82P8AcvcU1Oya5839REW6RERBVsxvvfifD1E/WkZWlVbMb734nw9RP1pGVpQEREBERAREQEREBERAVWzG+9+J8PUT9aRlaVVsxvvfifD1E/WkZBaUREBERAREQEREBERAREQEREBERBG1OY9Gm0lprTplTCZd/I2HT/OAUq9Eo9ehFTa1S4k+I4QEceUyLjZYiWoccQL2utzL9T4GM2XTZOBiOEGUT+OHjd6cb5v+opBAREQEREBERAREQEREBERBlly5F02u3jUbypt/XfbWNdwhBXYVElsMNVXCLjzNa3CaKQ0WjHaImHWiIMNPOoFvkuW/Hm0/GLmLebEKi3VIu+j01t2DhHg1CRIfkSOb7F1uiZSpA9/J3SLvBpLATW4ogyWHyerapNBy+oVBua4afjlrUCn0qW2cZ19/Wy+w60/usGBATUhweAQMeHSQrWkRAREQEREBERAREQEREBERBGXBMeplCqVRjad2NEefb1eMIESk1H1qnlU6PPpzZiJS4zscSx8HWOlSCAiIgIiICIiAiIgIiICIiAslp3JjyfpkyHJiUWrhAp84KlDoZXHUTo0aULu6DjdOJ/ooaHeMQwa0AeGoREvbWtIgx2zskmu2zMS+8w6dRZVVzGaj0ybGgYO7A0thgmgaMy0kbhiZ4mekPcaD29oSLrLk15SyaZU6bUabXaj2YahsOzJ90VSXMaaiyBkxRYkuyCdj7T4i6O0Y8Y6lq6IM1ZyJy2i3N20x6bVmpRTWKo6wNen4QpM1oAFuU/F39h5/DaDvpgREQgZ4kQiWEnS8pMv6L2CxplvbHavVqhWaT9lyC6PLnb/SnOI+PA+mSOEtQjr4cB0jpu6IIC0rSt+xqMNu2vT+hU8JEqUDOLpud+kPm+6WoyIuJ10z/wAyn0RAREQEREBERAREQFG1OY9Gm0lprTplTCZd/I2HT/OAVJKPnwMZsumycDEcIMon8cPG7043zf8AUQSCIiAiIgIiIKtmN978T4eon60jK0qrZjfe/E+HqJ+tIytKAiIgIiICIiAiIgIiICrV60mp1uhjEpAxSmNT4ExoJDxNNH0eU0+QEYieI6hbxw6pe6rKiCrdkMz/AHo2v6RyPUU7IZn+9G1/SOR6irSiCrdkMz/eja/pHI9RTshmf70bX9I5HqKtKIKt2QzP96Nr+kcj1FOyGZ/vRtf0jkeoq0ogq3ZDM/3o2v6RyPUU7IZn+9G1/SOR6irSiCrdkMz/AHo2v6RyPUU7IZn+9G1/SOR6irSiCrdkMz/eja/pHI9RTshmf70bX9I5HqKtKIKt2QzP96Nr+kcj1FOyGZ/vRtf0jkeoq0ogq3ZDM/3o2v6RyPUU7IZn+9G1/SOR6irSiChz6pmS1KpYlbVvhi9LIQFuuyCF3HYcLSePQ+AeHEtXFxCOHNxahk+yGZ/vRtf0jkeoqbmQm5cqC8Z4iUKQT4YeN3o2/wDuLuQVbshmf70bX9I5HqKdkMz/AHo2v6RyPUVaUQVbshmf70bX9I5HqKdkMz/eja/pHI9RVpRBVuyGZ/vRtf0jkeop2QzP96Nr+kcj1FWlEFW7IZn+9G1/SOR6inZDM/3o2v6RyPUVaUQVbshmf70bX9I5HqKdkMz/AHo2v6RyPUVaUQVbshmf70bX9I5HqKdkMz/eja/pHI9RVpRBVuyGZ/vRtf0jkeop2QzP96Nr+kcj1FWlEFW7IZn+9G1/SOR6inZDM/3o2v6RyPUVaUQVbshmf70bX9I5HqKdkMz/AHo2v6RyPUVaUQVbshmf70bX9I5HqKdkMz/eja/pHI9RVpRBVuyGZ/vRtf0jkeop2QzP96Nr+kcj1FWlEFW7IZn+9G1/SOR6inZDM/3o2v6RyPUVaUQVbshmf70bX9I5HqKdkMz/AHo2v6RyPUVaUQVbshmf70bX9I5HqKdkMz/eja/pHI9RVpRBRa3Vsyo1HnSHbbt+OLUZ0jfZrsh1xrmD2iAOhhqL8XUKkeyGZ/vRtf0jkeoqbqkAKnS5lMccxAZjBsEQ+DrHSu5BVuyGZ/vRtf0jkeop2QzP96Nr+kcj1FWlEFW7IZn+9G1/SOR6inZDM/3o2v6RyPUVaUQVbshmf70bX9I5HqKdkMz/AHo2v6RyPUVaUQVbshmf70bX9I5HqKdkMz/eja/pHI9RVpRBVuyGZ/vRtf0jkeop2QzP96Nr+kcj1FWlEFW7IZn+9G1/SOR6inZDM/3o2v6RyPUVaUQVbshmf70bX9I5HqKdkMz/AHo2v6RyPUVaUQVbshmf70bX9I5HqKdkMz/eja/pHI9RVpRBVuyGZ/vRtf0jkeop2QzP96Nr+kcj1FWlEFW7IZn+9G1/SOR6inZDM/3o2v6RyPUVaUQVbshmf70bX9I5HqKdkMz/AHo2v6RyPUVaUQVbshmf70bX9I5HqKdkMz/eja/pHI9RVpRBVuyGZ/vRtf0jkeop2QzP96Nr+kcj1FWlEFW7IZn+9G1/SOR6inZDM/3o2v6RyPUVaUQVbshmf70bX9I5HqKjJ9UzJalUsStq3wxelkIC3XZBC7jsOFpPHofAPDiWri4hHDm4tQ3xcMyE3LlQXjPEShSCfDDxu9G3/wBxBCdkMz/eja/pHI9RTshmf70bX9I5HqKtKIKt2QzP96Nr+kcj1FOyGZ/vRtf0jkeoq0ogq3ZDM/3o2v6RyPUU7IZn+9G1/SOR6irSiChVmHmLcjMSnTaBbsOOFRgTH3mq2++YjHlNPloDogayx2sR9sh91X1EQEREBERAREQEREBERAREQEREBERAREQEREBERAREQEREBERBD1ojGo0IcDxwwKeYl+N9ivqYXJJixX34br+PHHfxdY4vD2jH80iXWgIiICIiAiIgIiICIqve1/2tlzSMK9d9SejRXpDUNgGYr0p+TIdLS0wwwwBOuuFj7gABEgtCLLj5RWU2Ntxrkar9SfCdVXaJHgMUKe5VintDibsXscLHSxdAAxMxJrDSHEXMPtq22VeNt5hW3Eu+0qqNRpM7XsPYtG2WoHCbcE2zETAwMSAwMRMSAhLm9tBZEUVcVep1rW/VLmrBk3ApEN6fKIB1ELLQEZ46fyRxX0olWhV+jwa9TjxKJUozUpgiHSRNODgQf+xIJFFXbVvShXiVYwobzrnYKrSKLN1tkGmU1p1iPtcQ8Y8SkCrdJZrbFtO1FganLjPTmImJ99cjtE0DrmA+KJPtDj+WKCSREQEREBERAREQEREBERBD3YRha1ZcbLESCBIISw/r2iUwuOoxY02nyYk7HSw+ybTuOrTwEPMS7EBERAREQEREBERAREQEREBERAREQEREBERAREQEREBERAREQFD1ojGo0IcDxwwKeYl+N9ivqYXJJixX34br+PHHfxdY4vD2jH80iQdaIiAiIgIiICIiAiIgIiICIiAiIgIiICIiAiIgIiICIiAiIgIiICIiAiIgIiIIet/yjQPhE/or6mFVb2iXTLp0Ziza9Q6LWsZWHRJNapLtTY6p6xwZakxi1aNXFue1+Mqn2u8qbzx5VfNpUfr1BqyLKe13lTeePKr5tKj9ep2u8qbzx5VfNpUfr1BqyLKe13lTeePKr5tKj9ep2u8qbzx5VfNpUfr1BqyLKe13lTeePKr5tKj9ep2u8qbzx5VfNpUfr1BqyLKe13lTeePKr5tKj9ep2u8qbzx5VfNpUfr1BqyzPPS/6xl3ZLVeoFl1O4qq/PYhQWYdHmVIIbrmr7MfahtOyNhoMCItAai4Q4cT51y9rvKm88eVXzaVH69Ttd5U3njyq+bSo/XqDJwvwcucu4juX9v35Xblu245blZuirZZV3XBmuMAUioHTghjIxawb2mGGwHQWkAJ3vTprV8lpFpW1aVt2jatPvN6NUcKlMOfWrdnwX3ZXSd2W/MwkMNFHdfflOuiJAAnx7XAKz6/775SuX9w27ZwXrZ9x126m5zlLhUjLGRqd6JtE9qckXGy01wvCWGJmI46CHn1YgBVmicoPOm46hQabRMwbSkuVilyKzKMsrZTTdHixZRxZhzCduMNGLD7ZiYjrLxMDQOUnacerX3mW5eWWlfuw6tlwxAy/fp9BlVDoVT/ANI9KaYdabIYUojcgFukTWoRDi70az6tZWXvVbkqce6YtUp1Ul062mrLqTOXs2s1GlstU6MJjCng+01TXWpoyjdB3R19Z6gPSN5jco3OiPSMLkuq/bWtejS7dm3ZSahVsrJO3VqZFAHHXWAYuR10C2nWjFp8GnSEupwnp5HeUFymqTeE+kXjWLctpmDRKTUiZqOW7pvmU+p9BZ0tR7gdDrkOvv8ArHQXevGCIvrL+9pF1OSa/bb2Nkd0G65tQYqVmSrihuuux4fQJTtOZIDfa4ZgC7xiBmH5Q88nKK6aP2BmWzb1bqN2P5V3lRrQuGZarsOVTak7KF2msEZ7p03ajuvtR990NLXAXGRAtKuzNjPa1q5V7TPMyxqjWqZMpVNZgQsr5mLtQlVAXTYaYI7hENWlh0jJ0mgERItSi4OcfKtn5jWjl9h2vwnroi1eRJeqOWzsYqWcB6O06JhjcePSA+yWz3Y5OAQmGLWLvHtBIcleyGaDer1fobUujwMLaZg1Kls5dTbXivTd0SB18pT59LmNCL4E6AFwu8TvVwx9VLKe13lTeePKr5tKj9ep2u8qbzx5VfNpUfr1BqyLKe13lTeePKr5tKj9ep2u8qbzx5VfNpUfr1BqyLKe13lTeePKr5tKj9ep2u8qbzx5VfNpUfr1BqyLKe13lTeePKr5tKj9ep2u8qbzx5VfNpUfr1BqyLKe13lTeePKr5tKj9ep2u8qbzx5VfNpUfr1BdXrzs5q6mbEkXXR2rkkRenNUY57YzXY2oh3hYxLWTepsx1adPOBKwr/ABo/hJcoc/8AMflS21RMOh3pcTdlwDwetW3ZUIGI5T52jVG6TMdIhITInRLTpIeEdOotv5MeS38JllxS2avcudkalW5AYN6TRrvDs46TTYc4CwIOboBpw6vSI5D7mlB/ohd/3p1r4NkfoiUwqz0C75UHotTq9Edwea2nxGku6C1Dxf8AxPVX5qMm56NCl1WRUqVIYhMm+6yMF1ozER1FpLfLT/yqOyuq0IiK0iIiAiIgIiICIiAiIgIiICIiAiIgIiICIiAiIgIiICIiAoet/wAo0D4RP6K+phccroO9E6Vp3N/Ho2r/AGu0XV/ya/8A3QdiIiAiIgIiICIiAiIgIiICIiAiIgIiICIiAiIgIiICIiAiIgIiICIiAiIgIiIIet/yjQPhE/or6mFySZUVh+G0/hxyH8WmOHw9oy/NEl1oCIiAiIgIiICIiAigLwh3TULYqUGyqzGpNbkMG3AnyovSWozpe44TWodeA+LzrDLLq+bF1sZgUu2c56nWLYpr9Napd5yqFCkzTcAney7ENqKwDErQAtA07sOhg8boaXdrSgsObtq5h1vPLLKu2DLZp2FHplyBJqE2lnOgNm8MEWmnwBxouPSeI6HQ4mvCw1Cvnl7yYoVmv4OVS6irLUu2KlQao3jD2OmSJ9RdnS5Qd8LaAnX3RBri0jp4y5l08me+7kvWmXk3W7hqtbiUW5jgUqTXKc1Ta3hF6LFd0zobTTWweDrr+jW00ZNbRkHFqLs5SWZb+Xlk0+BRLthW1X7wrMS3aTVJpMbUAnT1yJmmR3o8WIrT7oifCZgAY9dBSqhyS6teFrQ7LzKzOZqtJt+0KhZ9AOnUPGFJaCUw1H6ZJMn3QfkA0wGnQDQaiMtPEIh0XNyab/v6XXa9fGblLfrdUoNNo0N2m2ycWLEdgVAZ7T5NHLdJ3U8PGOsOHq4jjxLho/KvkQ8lLNvOoM27UqrOqr9r3DV51Y7H0Kn1CGD4yJD81ph8WmnXY/eeHQW+1xDqXLU+UvUaNmpRKfOYB+Zd1lxDt+04NWjyWqlWHZz4amJgcBNbTes3/BaHVo1cCCfm8my8qtX6vmDWMz6cV4SqzRa9TXmLcNunQZFOZkR9omClG4606xJdEu+ieBGRiWHCAWSHlDmId8WZmLcOaECq1i3OzUacJW/gzFkQ6icY8WIoA/gcfa6G0IG6cguI9Wrh08fKhvq5bAy0o9Yp13P2i7ULnoNLqVSgR2JjsSLKmtNStoZDDoEWgj0kTRfkrOqdygLusPG767ArNxZt2bR4dDGDUqpSo9IlHVZtS6IcNp9qKxHkaWnWneFrh6hHx8Ies0Xn25uUZe9tMXjOLKuly4uWNNj1G+DYuY9cUjjdMeagCUT7MJqLod770XVrERUDmdygL8qlCqlQy6t5qJblHzBtq1XriwqvNNdN2rU4JWmGTGno5BJKPq3deoi71o40HqBFjMHlCRplBtmvOW0bLdx37VbGxE5v3L0KVUGClatHFq7HYlo9rTu9bHTxUi7uUxmzhkJX86bVyjp0WjyrQkXRa1Sk1/d52tAm1jPjdHEmnSac3waaN8C2iA3WufA0Hp1FG0hysu0yM7XokWHUDZApTMSWUllp3whB02myMf6NWIB+SKkkBERAREQfnm9vVzqHvL70638HSf0RKaULeX3p1v4Ok/oiUVq94+3X0hRN3O/xVrXwdI/REvtuKLup3+LNY/wEj9ESxqvi0mVzREXTwyEREBERAREQEREBERAREQEREBERAREQEREBERAREQEREBQ9b/lGgfCJ/RX1MLkkyorD8Np/DjkP4tMcPh7Rl+aJIOtERAREQEREBERAREQEREBERAREQEREBERAREQEREBERAREQEREBERAREQEREENXPaqFEP2tLU8zMvFHor6z889qTclXKgZRW7Mv+Q3IwZm1GnOi3RoPMXHu1Eu9GY+5tR910S64D1l0575SWtnZaDWXl3Tq7DhVWVoF2lTyYLAxbccw3Rx1NPt8H2p0DDHxVT6FTcycqHabQLstWo3bbsN2FHiV2058xh2KDAYNNdMpRP/AGvR9tKKToulxHHDSg9AIq12j0fb6L0y4Nvo/RtXbBP16d3d62/q16vD62jg1aOFfo7TpRuE6cqs6nXpD2OAVmaI6nw0HzDg7wj4gdVsuIMBL20FjRVwLTpQOC6Eqs6mno72GB1maQ6mA0Bzji7xD44dVwuI8CL21+e0ej7fRemXBt9H6Nq7YJ+vTu7vW39WvV4fW0cGrRwoLKirh2nSjcJ05VZ1OvSHscArM0R1PhoPmHB3hHxA6rZcQYCXtoFp0oHBdCVWdTT0d7DA6zNIdTAaA5xxd4h8cOq4XEeBF7aCxoq12j0fb6L0y4Nvo/RtXbBP16d3d62/q16vD62jg1aOFfo7TpRuE6cqs6nXpD2OAVmaI6nw0HzDg7wj4gdVsuIMBL20HLmVY7WZli1mwJVfrFFjV2MUJ+dR3m2pjTRdfbJ0DEdQ84+2JcJF/vVNi5Bz49q42nIzuv6SxFOEdHebZo0EqKcU9TXRghU9hogx5hEmnwdaIB06PdV8C06UDguhKrOpp6O9hgdZmkOpgNAc44u8Q+OHVcLiPAi9tfntHo+30XplwbfR+jau2Cfr07u71t/Vr1eH1tHBq0cKCqWhkyxaEmbVizCuqpVytVqPWKxVpJQxdqewxsNRXQaji0DAgI8LQAXOOrX7ZKYuPK62LwvmjX3cbLtQfoVPl0+DT5QNOw28ZJtG7I2yDVv6Y4gJauETPh4iUqdp0o3CdOVWdTr0h7HAKzNEdT4aD5hwd4R8QOq2XEGAl7aBadKBwXQlVnU09HewwOszSHUwGgOccXeIfHDquFxHgRe2gxSmwsgqjfVcpOUfKWh25clYrASp1Bti4aS8Lc5qN0N0cYDrTo6jBprWJBq1sCQ6C16pSJyQMqodJxo5yq6/ro7lJakk8y0/HeKpO1Pp7BNNBsyRmObobeloNAYA0IjhgvOcKu5J17kq3NlYFzxq/mT0+7abb9rU+vOSqyzVSr092nyBii7radF3Fh3pRAOkOsehSNcnZlFmXeFs1vNeNQLoYummRaGxPzDrER1+I7HhkeMOjtNE1NafdKUO7/qi3dGxscIevrry7ot+UWiUatV6oSsbcrVMrAymjYF1+ZAfB8N7S3ow1GOGsQAetw6P6I/OVnLysWjKt/Me6MaJTGhauZ+QDotE1HpcqNKN0iMSHbAxY1+11T/zLyTBrNm2UzV7NK+a3DnTs2661VCqOaNSosWIwwMx2KMyVrdkNbrXGANbRSiaAzMgBU6573rt25DVyh1S+K7Uij5b5uQ6pEfuCY+eum1iH2O6TukJm6EV8eN0BdJp3j4T0IPZt88negX1VLklO3dc9Hp97Q2oF1UmmnGGLWmWm8WtLpusG61qaLFoyYNrEg5v6R1LjrfJgtisVKouNXrdlNodVuSBdki3oTsMIONUivMOC7gRxye0EcZoza3dGrUYiJe2skqdejUDlDSaTUMzKpcRV28gpzVOpeYFRiVajjIYECjO0Ivsd2GGonelNaTAD3R6utepQtOlA4LoSqzqaejvYYHWZpDqYDQHOOLvEPjh1XC4jwIvbQZvD5MtuRbggVTC97sdplIuyZelOt83oeECLUpRPnI5tMfeNsimSC0G6Wnc4eZczfJVtgbMqOWk3MW+5doP2/LtimUQp7DcekQpGnDma2mAN02hEAaKUT+2I/jHq0/tHo+30XplwbfR+jau2Cfr07u71t/Vr1eH1tHBq0cK/R2nSjcJ05VZ1OvSHscArM0R1PhoPmHB3hHxA6rZcQYCXtoO+iwJtLpESnzq1NrEmOyLTs6WDQPSC5vthCyAN4F+SAipRVwLTpQOC6Eqs6mno72GB1maQ6mA0Bzji7xD44dVwuI8CL21+e0ej7fRemXBt9H6Nq7YJ+vTu7vW39WvV4fW0cGrRwoLKirh2nSjcJ05VZ1OvSHscArM0R1PhoPmHB3hHxA6rZcQYCXtoFp0oHBdCVWdTT0d7DA6zNIdTAaA5xxd4h8cOq4XEeBF7aCxoq12j0fb6L0y4Nvo/RtXbBP16d3d62/q16vD62jg1aOFfo7TpRuE6cqs6nXpD2OAVmaI6nw0HzDg7wj4gdVsuIMBL20FjUNeX3p1v4Ok/oiXK3adKBwXQlVnU09HewwOszSHUwGgOccXeIfHDquFxHgRe2vk/YVCkRCpr8iunHci9DLArgn6yb3dzrb+rXq8Pn16ODVo4VFcdpHw6Qo+5ndVt1b/AAUj8wlJVO1rcpVKl1HFmokEJg39sapKH2gHVp+2LsGyqCJ4GTMt3mw9sXZ77gH+UJHpL/iub0ab+pCwoiLsYCIiAiIgIiICIiAiIgIiICIiAiIgIiICIiAiIgIiICIiAoetCZVGhFgGOOAzzIvxfsV9TC4Zk1uJKgsmGJFNkEwGPi96Nz/toO5ERAREQEREBERAREQEREBERAREQEREBERAREQEREBERAREQEREBERAREQEREETV4779QojzI4kEeebr2Pih0Z8fziFSyj58/GFLpsbABLCdKJjHHxe9OOc/wD01IICIiAiIgIiICKi37m7Y+XEmnwbnnVQ51SakPxYVLo02py3WmNG670eG067thuhqPTpw1j4wr53DnVlba+XkbNytXpDjWhNaivxaoAG63ICRp2dsQEjPVqH2hH80kF+RFkdc5TWUFuVWt0iq1iuh2tSeh1moBadXdplPe2gdIX54RiiNaQdbMiJ3mES4uZBriL4MSGJDISWHhcacHUBiXOJD/WvugL5E0BGJmA4kHVLxVwyKkMeqw6V0OWeMoHnd9tjEmGtGnhcPwCLXw+NpJcHbrQu3fuebzvZrsT2Z29otPRd7a1aubra/BQTpMsl12hL29XV/pX1RZBUuVFk3R6jV4VVrdcjtUGe5S6nUztSrYUmHKAtJg7UOjdEDTiQ6ixd04c6DWtpvc3dA7mnTq8LSvqvzhjhiPCv0gIq5bN6UK7ZlwQaO6649bFWKjVHA2yHTLFhh/SPtcQ6JDXErGgIo2LW6TNq86iRqiw7UKaDLkqOBcTIu6trEsPxtBf8qkkBERAREQEREERc0d6VblWiRQxcdfgvttjh4RkBYYYf+ql1H1qoFTKPPqLYCRRIzsgRx8LQOpSCAiIgIiICIiAiIgIiICIiAiIgIiICIiAiIgIiICIiAiIgIiICiavHffqFEeZHEgjzzdex8UOjPj+cQqWUfPn4wpdNjYAJYTpRMY4+L3pxzn/6aCQREQEREBERAREQEREBERAREQEREBERAREQEREBERAREQEREBERAREQEREBERBG1OG9Jm0l1rTpizCed/I2HQ/OMVJKoX9Vb4pdOpvaDRKNV6tKm4MYxKtVHacwTWw6ZY77UaQYFzgP+q/5VWO2LlTeZzKr5y6j9RINWRZT2xcqbzOZVfOXUfqJO2LlTeZzKr5y6j9RINWRZT2xcqbzOZVfOXUfqJO2LlTeZzKr5y6j9RINWRZT2xcqbzOZVfOXUfqJO2LlTeZzKr5y6j9RIIblA5j12159EtO26Lc8N64WJOE266TZ1Rr3YWIGjULYQmHfsp0i71u96DbN09egGncXzqyov+rZTmzldl5CrFh27ZYUqzqRUJdUhVqHIMNp+U5Tnacbrsna0tBrMDEDf/2pL0D2xcqbzOZVfOXUfqJO2LlTeZzKr5y6j9RILnb1dmVKS7SqrSJUGpwIsR+fg0DrtP3nRLE2oso2m+kYAQlqLQJe2GoR1YCvPluZM5i3pXM76FUL+rVo2tdV4S23ITVEj7s+E7S4LTr8eVIEuE+JrUIEIk0fhc61Dti5U3mcyq+cuo/USdsXKm8zmVXzl1H6iQYZeWStVawz4qNqWRVCqDDtAp1Acaad6Q/RGqdTgqLFOdPwnWmpDB7R6jMAEuIRXJNsHDsteN+5B5d1i37YtFi27kodGbt2VSBqVagSJxVIIsB5po9b9OeCKRiA7pmGHETRLfu2LlTeZzKr5y6j9RLD7ezk5d1d7cL5gWFkfKtW0qzWKc9RBq9Wbqz3QHTF1pqUbGwZFp4HDaawL2tQB/QFevPLzOarW7helt29cEa9L8tjMGuuczDrTtPmTY8FulwnSx+55ARI7DAiWnvrR/jKMvSwTqkq7ZPJuymui1qPJy/psN4QtWZSQkkFbYdqEUYpiwbskoG6J6NJu9TWRDwXCZy3M349OK4oGQVp1KgwqNT69W6tFzDf6PRYk1gJDRSBdpIOkQxyF0xYB3QBaiUrT+VDyop8i9G4XJLok3G0LjC2tMTMAzxnSDaad1tENOIRaFp1p035HRwEXRHriYoLfyXbRj27UrxqNDdci0Wp9jxYpsaw5dqUtmQ0Du67FhynSPUQm0LpaAHU0HWLWqxaGRV/37T82rSuW/K5bln3beddblUpqiNNPT6a/oEzakujrEHQ1DqEPG0+Mq3V+VtyhahRo9VpeUNj0OXpuWLKp8q9pUt+LNpUUnXQdxClbWOnQJDtOkDuseMefVhLWtyqeUhXa0xatK5OFr19+CFICtVSFfzwMQnZ8dl9onWOxnSNOiQ0Zm0060GouPgPSHNd+UNU6JnfdMCxKo9UZF90WI2UeK70ydaTUagFUosHwzadaYmAQNfbTa0cRAPNX63ZMY6vVKjaOVtaj5HFdlsP1S3GbVlRmpjTUWcM98KTtA6bHSHaSToixpPo7paT0mvR3bFypvM5lV85dR+ok7YuVN5nMqvnLqP1Eg862JSZVi3tEvun5a3hR7Lj5r1qVHZZtmcbrECTbTDEV8YTTRPjFJ0Noe9aWuECENOkPxQLbweco1Yz0ykums2LIlZhPtUZ62JlSdh1OVcrr8N12Gy0ZibkMj6O/p0jqPSYbo6vRvbFypvM5lV85dR+ok7YuVN5nMqvnLqP1EgoOQdoUS2s9L2q2GWVYoM2uWxbj8GdU6Wbsjo7UXakRX6nhrF2SLotbok+ZmQ6+PTrXpRZT2xcqbzOZVfOXUfqJO2LlTeZzKr5y6j9RINWRZT2xcqbzOZVfOXUfqJO2LlTeZzKr5y6j9RINWRZT2xcqbzOZVfOXUfqJO2LlTeZzKr5y6j9RINU5/b08y/S/wAZP4Sa7eUTROVTa9fhN42Pc7NlwIrT9nXVKktbJz5+jdlHGh4iRnuDtYhp4R4i1aR3bkt5wfwojsCPOvnL6i3NarTW7Km3c0VEmMMNB4DrTep3WPFu9Hf1eMg/0SuCI7U6FUqdG07sqI8w3iXjEBCpLVgq10m9n6d/ItGiTXGfKbjgtu6f/wAji04r+yq3cVMjPVGo0an9EjNk4/sVAzMRHDnLERJgdX/Mo7S98llREVvBERBVr4vZqxaCVcOg1qtuYyI8ONTaPHF+VJfedFoBHWQAGGouI3DEAHiIh5sVnL3KcpQx40ONlhe0m6HbrKznbWa7GhUWZ40w6nqNx2YMTFvoQYO6xkF1xHrc+A27OesZm0OxpMvKS0XLguOQ+1FaZbdjCUVkzw3ZWmU+w06TQaiFrF0NZ6R1COosMcLLmHLsmjBWeS3etxY0+5XatVGa/cFJ7MT5T8N1p2qY9FnFFlasD2CaddaEWsdLTWgABB6Ftas1Ku0SPVKtadYtmTIxPXTKo7EclMaT04ayivvtY6sMNXC4XtFhz6S5xVQvjOpy0b8h5c0XK+77xrcyjnWyCiHTG22IoPiwREU2ZH5y1mPCGpQWQNFzCsa2Y9u1+0KpFp9VrdXmQo0mrMSztmmEeqHDfLdPF0vd4WidFvVp16BwXJfmTtx3vyhqXeYVm4qDQolmSKWVRotTCM6Us57TgsGPEZDoEi6mnh639CC2WznvllctAg1uRdMS3X5s2TTAptfkNwZjU2PKCLIik0Z8ToyHWmuDWOp1rTiWsNVhouZWXlxXFNs+g39btSr1L19PpcSpsPTIuktJbrIlrDi8YcFmFPyGgWnnFlrVbWt3Fy3LXoV2dMnSpnSZHZWpSqY70h03T3XXXtqYRO8X+XUKyin5F5t1nL3LvKErNk25UMuqbXYc27X50UotTdlUmZBE4u06Ugt+RKalHutNadrx9CDeY3KPymn3qzatGvW3qnFxotVrc2sQ6zFdg04YD8Np1qQ4J96L7OAuLm5sBJXqq3Va9GOcFYuWmQsaZDGpThkS228YsQyMRkO6i4GtTbvGXDwF4q8gXZk3nBmPQ8KfByUdtV2BkhWrEAptTp2PSKqbtMKPGb2H3eZj7FkaHS0+HqEOHVYswbAzgzNvWv5hx8pqjR4LdPsk4tDqtSp2Mqr9ia9KqEyKW0+60BG06OjWegj0ajDi0Bt8nlAZLNzLTgtZpWvLK957tOoTkSqsPtT5ACWoAMD0nxaW/wAswHrEOC/mYWcGFi3lQbEp2Xd03dW7igT6mxHoRU4NiLCdjNum6U2VHHrTGdIjiRY8XtLPZNDvms5iWLmVDyHk2/FiXlPk1SK1Np3ZF+PIpPQwqkwQd2tQnpAgF113aaaLrd5CczSiX3Rs87GzMtrK2v3nS6VbFwUac3RptNYfYkSpNMdZLRPlRxMdMN/qkXNwoLXbmeWXlbtir3RVayNrtW7N7G11i5TGnO0qVpAxbkbhaB1A62YGJEBiYkJFzr7lnBaMu5LOolCnsVuHe0eoSKfV6bKafh6YYAR98AuY9Wv2tPP1cV59vDJHOK5qxhnRLpFSpdXlX5CuB+2qFOgO1GLTItIfp7BC7K1wnJguv75D1NPAJ6xAlyVrk35g3Fb+MK3qdX6PKuKBfXTZdw1WA5KgzarBajx3XRhALQbptbpAxr06jIi1kg9A1TlEZH0qzq7fh5qWpNots4D2UkwKuxKwimeOkGzwaItJmXCI+FiprHNjK5up0ehHmTauFQuGOzKo0TGtR9+osu/anWA1anQPwSDVq/oXl6oZGZiXNYl0uBZV9hcrNiBbUCNX6pQQYeLfYf6HGGAIhpHGPwOvmAju9TiPT3XHkzmHcl633jW7YzGKi5l1mj1ltqm1SgsMQWm4cNomJzjuDshp2K7GMxxim6Bah2uLWaDeL1z4y5s2vQbS7ZKVU7hl1mmUd2jRKjHKfExmPg0D7rGrWLQ7glz6V88yc9bMyzvmy8v6xNidmr4mkxFYfqUaNhHYDDifLdMSLi0iIBgRGeOkVisrK3NQZMWy+5VJmhDzqwv4rmxnwBilTXaocrWAm/0jfaju7BDtDwNFoIuED13NWyLmuXMiw69RKZjIp9Eh3AzPdxfaHaKTDFpjhMtRaz5+r/mQWKTnbk3DoZ3NKzbsxijtS+gHUHK9FGNhK2hd2N3Xp3NoxPR1tBCS6azmzlda8aLLubMq1aQ1NbafjOzq1GYB9p3VtGBGfMQHpLSWHW048ywmysr79ympeQ9ebyxmVvGysun7XrNCpcmBhKg1SQ3TjOUHSH2mHeKG+0Zi7q79q5yHUq9afJuzGpVsV6BVbSiOSqhlPWrehthJjkESbPqM6UNNEtXVaakR2tf2rvfWQeprfvuy7snVWm2teFErEyhyOj1ONT6i1Jcgu8XA+IFji0XCXCXiqxrD8tMtLgtHM6n1o7fCDSIuWVFtwiadaxEJsWQ+RMYCJauAXet1eLrLcEBERARF5nvP+EA5N+WWdNdyKzLuSoWxWqBjEE5s6AZQJBSGGnwwB1nWQcL4aidEB4S9tB6YUbU4b0mbSXWtOmLMJ538jYdD84xXHal7WdflJCv2NdtFuKmOFpCZSZ7Uxgi8XcaIh/8AddlTmPRptJaa06ZUwmXfyNh0/wA4BQSSIiAiIgIiICIiAiIgIiICIiAiIgIiICIiAiIgIiICIiAiIgIiICIiAiIgIiII+fAxmy6bJwMRwgyifxw8bvTjfN/1FIKJq8h9ioURlksRCRPNp7Dxg6M+X5wipZAREQEREBERAREQEREBeex5PWaUeBeNnU/OulU20L0rlVq0tuFahhWWWZ7xOPMNzinEyOOkiHB3ourwut7a9CIg8317kgW/231Ct2hGsZmnVeLTIcmLcFmM1mTCCFHCMHQX3XRFrVHaaDQ6Do6x1+MJfa7+S5WbgqteejXtQDpFVvWJezFGq1tnOik+FNGC7GmB0oQlMd7afaHAGtp1oC49GC9FIg8xUvkczabGmU/HMSnjDkSrimsMxLZCMEd2rwOiuiIA/o2mi4gDSPDwmRl31Stw8mKr1yrWy9Iu+3MGrZOj9CqwWpg3cEJqFgxrjxqiEodDT5NFrE2nOF10OLh0+iEQEREBERAREQEREBERBAuWfajlzher1tUsrhwijBCrFDaKYMcCMhaF7TrwDU44Wnn5ucyX0vL70638HSf0RKaULeX3p1v4Ok/oiUVq94+0nq/uUBfINyrMr8d0nhF2lyhLadNovtRdUg4h/KFSu6om7C/irWv8BI/REs6r4qlUPY05d++TNX517q+sU9jTl375M1fnXur6xWrIt0Mp9jTl375M1fnXur6xT2NOXfvkzV+de6vrFasiDKfY05d++TNX517q+sU9jTl375M1fnXur6xWrIgyn2NOXfvkzV+de6vrFPY05d++TNX517q+sVqyIMp9jTl375M1fnXur6xT2NOXfvkzV+de6vrFasiDxRG5NFTzEzkzTolF5SGeNrwrSk0qLSKfEzAqkiF9kU5p8zf33yfd76Ze0D4KvBc1s0/LW27oq/Z/svLhVdyqBU+UHctHZfkU2UUV8IDZTH33902jMNYi0A6BJ3US9L1rk/OVG9bnvKhZyX/bJXf0U6tAox0wGXthgWAIXXobspotAdZp0PxdK5n+TBYrDlOG0a3cFqwI1tBaMqnUl5jbm0oHSd2XXHmnHgPU67qdadB0t08cT1aTEMDpp0mpXBeNcisXuVlUSwreuylnNz0uWBKM6kMoh6QUiYMdkO86TLd70LWBDuk7oagqtWaVcdMah2dUb37YKTfdu0OU3Q88rlqlNqcWfxCITHZDRt4dYXS2NYaNQ616B9iBaY0bGh4Zh3j0btfodCxLEqeRuYUaWUmlSj+xfbeYMsR/2To+06B+6umock+hVasTbgqeZ1/PVap1Kl1mVN6TBAiqFNMsYr4hhF0BpA9G0I7RCA6gxLURBklSK1qRTa3CrsK6qNdNuXQ1bVQYqnKIuSHSA3YATmJATnX8HXRNp1sNoIpO7uJ8GgCdUKV75bP2vaNxQG7xgjcx1uM9NuDP+6afRmJdNmdDKK1Ud90HXJDus2NYNa2gIuAuBb8PJlpLVRj3WzmNd7d4tV5+vvXLhhAOY+87CGCbRNHFKKLXRmmgEQZHTo1auI9X7pHJpYtmgPWzamcV/wBJpz82qynWScp04HRqEjF+Q0Yyobonhum6QGeBO99MSMw4EHnzMPMDKWxK1V6U+V8c9qUuBUq/EncoC441SxKQx0go9OjBMdGe6DRB/rWgMjEQIl6VY5OOWkpluQxc+aZtujqEsM17q9sflFcNL5Mdv2lhHiZd3/eNoQMKTTKNPiUuVGPCoR4DGDDBG5IYddad2RFonWCaIgEfCETHaUGU+xpy798mavzr3V9Yp7GnLv3yZq/OvdX1itWRBlPsacu/fJmr8691fWKexpy798mavzr3V9YrVkQZT7GnLv3yZq/OvdX1insacu/fJmr8691fWK1ZEGU+xpy798mavzr3V9Yp7GnLv3yZq/OvdX1itWRBlPsacu/fJmr8691fWK8B55/wW2ZucnKeu+6KPUTpVkSHYAQ6jX7ifqU2U0FOjg6YuvlJlOEL4ujof0YaBw0lp04L/VJEHh7Jr+DNyryAlQr3j3vd065WX4UUn6XU36REPW+2BHtNOk74RcJOkH4q9gOWnR3SbNx2qFi0etoiq8rhLRiOoe+eKRL63T/JTXwlT/pjSkd3+9ZVsrhX6pTGaM0xNgSqlg5jMiNY4PVF98SF18GyHS6ZD1SxVqw9xV+5D1U+P8JU/wClNKwYe4nGxT+oiLVIiIgIiICIiAiIgIiICIiAiIgIiICIiAiIgIiICIiAiIgIiICIiAiIg4ZkJuXKgvGeIlCkE+GHjd6Nv/uLuUPWiMajQhwPHDAp5iX432K+phAREQEREBERAREQEREBERAREQEREBERAREQEREBERAREQFC3l96db+DpP6IlNKFvL70638HSf0RKK1ez9v5rUXdR/xXrH+AkfoiXZu/3qLuh3+LNW/wEj9ES56r4tpld0RF18MBERAREQEREBERAREQEREBERAREQEREBERAREQEREBERBB3f8AyO3/AI+B9LaX33V8Lx/kYf8AHwPpbS/mr/csK2aTq5bgL7Dj/CNP+lNKzeCqnXS54kXD/wAxp/0ppWzwV7j2TT+oiLZIiIgIiICIiAiIgIiICIiAiIgIiICIiAiIgIiICIiAiIgIiICIiAiIg5JMWK+/Ddfx447+LrHF4e0Y/mkS61k2f+clsZF2tTL/ALtp1anQotS0k1TYWLx6jjPjxlwtND/4jpgH4yrFCqWZOa7tNr92XVUbSt2Y7CkRKFacCY+7KB8MHWumVUmPtej7aMUWhaLhOQepB6ARVrt4o+30rodwbfR+k6e1+fr07u11djVr1eB1tHHp0cS/R3ZSgcJo4tZ1NPSGccQo00h1MBrPmLBriHxD6rhcIYkXtILGirgXZSjcFoItZ1OvR2cMTo00R1PhrDnLFrhHxz6rZcJ4iXtL89vFH2+ldDuDb6P0nT2vz9end2ursaterwOto49OjiQWVFXDuylA4TRxazqaekM44hRppDqYDWfMWDXEPiH1XC4QxIvaQLspRuC0EWs6nXo7OGJ0aaI6nw1hzli1wj459VsuE8RL2kENmw3XnbcamUzMxmwadAkdMrtbNiObseng2ZHg0UoSjtFiW3qddAwENfDqxEgx+PcGYb+Q72aF8Zw35brNDfqsiA/SqPR2qlcFN6VoppyI82C6DUl0NvQDYMYFi+OoBx4Qu+b1sW5nBQ6REmXPmFbrNGmtXA0VJt0nCedZdJpoX2JsF8HdLpbotE1q5wB3m0iJr61G0qVW7ZhWdfF7Zg3MVKuOPW+nTKCLbr7tMkNTAYLokFpg2NbIadIaneqBkWCC2ZUU2/KNl7QafmdcJ1u6Ai66rNNphrVIM8S0d4bbaLRq29QgGrRq08Sw3MvM+oQuUHdFk13lA3RYVHpFr0Ko0mLRaJAnYSZMp+oBIJ3fgSnT+5o2kQIPDW5dmIUm5YtabqF2tgMYKf2M7DyghuHKxB1t89TGrAwFsh1axBrdMXdJadMNSY1nUq+rizVjN3aU+5KJTIUpl2hzNsY8B+WLW21sbu6RzHdYFqLQIHpEeIgzWx+UdmOxT7fpGYuXuDNSYsjtzuioyXzp/Q4QPvtkXQ9oy3yBpt3YIg06zEjDRxfep8q6r2VQmLlzLywCkxa3ac27Lfaptc6c/KCP0csYb4kw0LEgumMdU3Wuvx8PFbbkcyiwzP6XdlUqIV68KFNtBiiSYb4hU4kPXKlbDW1rdLS+XEBEJjzaNRKgt5SZKVacOVd5ZjXrdVRC0MaBR6NVIuDc2j0Sfi0HSGhZhtO9aKw2Ux/XtE0IGQGR6w/lTz6zNsnNavMZh2lDiR4tDtIGaPTK30uLg/VLgdp5ShkFGaPUO4GsCa/1HCXFqV2uzlBPUK8qpl1RbJ7JV5ivUq36S27UcY0ebKmQX5xG87tGTDTTEZ8iIQdItPtBxKr1PI+y7ij1utXZmDmtW6vXKPSYp1OTRMG5URum1TpMN1hhqnCAvhKx3dJNFqHDWQYhxLsk5H2U7Oq9WnXvmXKuqZW49aG4saV9kQ6hS4pMC7HEIPR9JR3Ta07RNv6jENZYkglqdmvnBJzosrLusZc0ahRKxQK/UawLteOU6BwZkFgHYpAxpdaIJQEG7tEWDp6xaJrQ78rtezEu3lGycuaDm7cVn0an2TErYsUmBS39+W7PkskThTYb5adDQcIEC6KHlzb9Ouy07txvvMmdXbf6bDdmz6c672UZq5sSXGpGuHoaaE4rH3PsAxp0Fo1aV+bysilXPfWGa9AzKzSs+qHbrNLkDRLcacGRCamOEIk1Npkgxd3XT4Q0no4tOniQUZnlaVaymcLGvkrWl3jFumsW1jUqnVuwNIksQI8Z/GY67g3IJoyamRR2gA++mfVAeHhkcr2MzLjZpS8JDFstWJV5smjNymTbcqsetxaeGh/HSBtk6RiD/CBNuiavhZN5eUeFQGLRq1+W/W7Zn1eUxcMSmPzJ0qRIHXUTlFKiutSN/HQWoh4iaAWOpoX6reTuW92ttRrqq+YVblO0DtXObNhygfcGbKanBKJ0YwaHWno7Rah0tMadBgHCKCk1fle3TVaXLhWPbtjTrjp9w2lCcchXa5UKS/Cq9UGHwyghiQviYkBgTPehdB0d37UU0HLLoRZgY2ljTKCcFi7AsuRt3IJVkahvhGN8KbscUUZBadzdE9Ak7taVO1mwKXc1mz6PdOZ+a1XkSpNJrUaqP2/g1KpztOng7FJiK1Twj6+kNiZibBGYcRd6ENHVScvaNal0S6jRb8zLiUqTW5dan0OPSixhyqgAbsp3cGHv7bp47uhp0WXXSMWxLUQIKnGz3zBvi7cnarSrZaodl3leVThx5jdV336hCYpNWMAlR9gOj7rsZp8NDrv2rj09Vem158tjJGx7fuO1Z8O78x36bZledq1uUJ+lGECnu1KNKAmtWEMXTaEJjv210tjmACIOIS17t4o+30rodwbfR+k6e1+fr07u11djVr1eB1tHHp0cSCyoq4d2UoHCaOLWdTT0hnHEKNNIdTAaz5iwa4h8Q+q4XCGJF7SBdlKNwWgi1nU69HZwxOjTRHU+GsOcsWuEfHPqtlwniJe0gsaKtdvFH2+ldDuDb6P0nT2vz9end2ursaterwOto49OjiX6O7KUDhNHFrOpp6QzjiFGmkOpgNZ8xYNcQ+IfVcLhDEi9pBYsP6f96h7x+9Kt/B0n9ES5W7spRuC0EWs6nXo7OGJ0aaI6nw1hzli1wj459VsuE8RL2lF3JdlPqNr1RqNCrpFJpb5tj2vz9XERMCOjY1a9fgdfRx6dHEovUl1bqjbmd/i3Vv8ABSPzSXyerDcdo5EuFVGAbHU4R0t/SI/laVG3bW2o1q1iSVJrrotQJBkLFEmOunwl1ABrWZfihxrjp1NWRearXzuvTlD03szlrPcsWzXZMqN2WcpZ1KuySYHU6LTAAcSF7XPoJ8nzMtQbAGOlbDbNWoFCotOoLVYrs/GKEVgZVUZlPSXzfHU2brph7ZF7er+gefTwe0K7+HKuiKtYX5awx+lHUDFvBg5PFGdw5mhc29enTz9f2l93LytltxxlysMA427IZPAseqccNbv/ACjxIJ5FXgvWz3SabauKn6nTitNDvDxnIHUwI/jGPtj/AFr445gWMLHTXL1oQs7BStwqi0I9HF3a3et1N3g1eNw+6gs6KBxu61cHyjlclJF0Xn2Cbxmt6hcaDW6HNq6wBxF4or6tXRbjxC3Gr9NdxPZERGW2WrdHU14Xhj1fG/oQRl+Xo1YdGaq2Ft1uvSZUxqBDptHii7JkSHSx0DhrIGmg8InXTABwHiJUiNykbcl0gXGbGuwrmO43bV7U9qH2U7JNMdJcDV0jou2MfS/vb+1oIOPWWhdedl+3fScvyl5O01u4KzMfaZxcjToGqnwiPTIniEySw08TWnQIE4PfSDVw61jNYysYqdJsatt5L3VLYtO4qq7cVt1+t0l2rXD0yH9kTzNqcUWQYv7RE0661wgegBEGgMPT1nXGd229Erp0CsURyRrB6n1aLsSo5gZAYmIkQdYcdJARgY6SAiEhLGrZ050WdkXbUe6Lwj1STHkzMIrbFMYF5/SLTr77ukiHvTUdh990uf2gaLre0Kr3J+p962PZ9JtK4Lcltxpk+tTmG3KrHk9rkB2aTtOpzp7pE6XR3dI7W6AbWjXp0EUZmLlLmJmrnH2bOvna9s2xb5U6kudCh1AKrIn6unmTTuvSINNR2gIhEu+yPALiDVrpzEy/seJEqF8Xzb9vxJ57MR+qVRiI0+54jZOmOoubHwVEUzNi05Vw3ZQp77VLbtCfAp8ibNkttsPuzWGnmdBavC3wD2+sSwGzsu858tZdtzLlyyn5iRrYtKr5ex22J1OwdkxBmNFAmkEh8QFuVFaaakYYlrA2sOAg40peRma1DziezfjWZEcpMCpULotlRpsU4AtYUeNDkTIZntcz8MxMGt3QJNA7oADdEkHoymZp5aVa5Rs+k5i21Orxi6Q0qPV2HJhi0RC6WwJa8dBCQlw8OI486+cLN3KipzapAp+Z9oyZVD9uqMs1yKbsDj2u/iJd648cB4ubi4VhVIyLvyFZOXVLYt7sbVaPmfctx1SS0/H3Y0KZ2cBqVqE+MiGZD4R1FxDzjwFpgKXkBfd+Wbl1lPdGW8m0otiWPVLXq1YKbDdYnOyKcEIeh4MOk6QE6PStToNEBNNeH1Q9VSLytOI5U2Zd00hg6Js9lBdntCUHd+1b/F3rX4OrrKm0DP8Ayxn2TS72uq6qNZ8StTJsKGNdqkeITz0WU6wYjrIdeOprVzDz9bBYHbeSGd9buO2bovi0m4MrMOrhUcz2wnRXcIIUia1JorXAf2QBtMCwW1q07vFw6lwUfIjOC051Fr0uiXe80VvVigSqfbEyglKYN2uSZYbvZLU1ixIYfa1bR6h2g1D4gek82s8sucoLaqtaua6aO3UYFDm12JRSqjDU+psxWDdIYzRlqd1beI8OHNzqWkZtZZU2pM0CsZgW3Taw/Fal9jJlVYalYNOdUtoz1af7/cXlu58icyLay4zLyytfKWpXS3e+WdKtqhyHKzAc7GSYcB+N0WW/IdaM9p0weacba0EZn9qUDmwzLt6k5kZfVC2YFXqFdzItKrMVQKvBdKMZlR2mozzGDvTBkj0chARa0k0YFr04mg9mYZj5fHdx5fBfVvFdAjuFRBqjHZAQ06tXR9W71eLq+4rQvIto5HX5CvvsNdVNviZTGMyp97RajEqNEaomGDkx2Uw6fO32S3RB0YxteFxjrFn3PXSAiIgIiICIiCBvT+Qv/roP0ppc2r+5dN7fyBj/AI2F9KaUZrXLk3axq+dYLvMX4Rp/0ppXVUSplwQ/hGF9KaV7VYU5BERdCBERAREQEREBERAREQEREBERAREQEREBERAREQEREBERAREQEREBERBxzBgm9FGWLZOE6Wxq8fbPn/8As1LMjyJpNt1cq/lFcUywJDkjB6bTqc0LlGnc5ce7Ti70Bl7u7H2nSLrmXVWg1v8AlGgfCJ/RX1MICIiAiIgIiICIiAiIg8s8rS263WszstqlabBP3JatEuW5aG2PXflw3qU70f8A+eAuRy/EfNZFWbpvKs3RdfKRy6an4169Mrbqn2v3jVIYo8SbR2IRNNaT4jEH5gjpPildXwF/oGiDw9Ta5W5Nq3mdvcoy3KdbvQqGRS49/Va4mocs5/Hv1Z1oXaeEpjUweh3vHA6Ih4XzLMFur2nEbjZoR6LDot2T40mJVc1KiNHruiAw5tQbpaEZGhondW07qMncJAGOlrg9wC00AkIAI4FxFpH3V/Ojs7PR9lvRzdXTwoPAuYedEy4rHbOgXJdlGq1NyzbrFGCsX9Ip8ydNdcmA07DjwmNdZfA4Y6idPaIDj9676ZL+Zm50dlbTzQuybndWqRdUWmUKRY0SjXA6w1Mp79NhuvymIbRbUsSlOzgdkaD2ga4Ta0a17+IAIsDIRxxHq4rN77ySt3MKpvzq9cV1FTJnReyNCZqxjTp/Rz1NYG0XPiA8/XFomxc8PWg83u3hmROzrrkSXmTSqFcsLMVin0ulz7yqLTr1EwcY0MN0Btgo8hp+Lul0rriZme6G1pD22vltBubugdenTq5uJfVAREQEREBERAREQEREHHUuhdjpfT9HQ9g9/V1drTxc/wDl512KHu/70618GyP0RKYQZld2SVv1quPXvaNSnWVeL2A4HXaJoEpeA8+gZjBjizND/wDNEiHwCDrK/wAEJzURhuoSG5EoGxF11traBwvCIR1Fp/J1YruRAREQEREHxKPHPn1Mtlq/FXwxp0A8B+wmOAgIe9jwkPV/5V2ogizoFEdHETo8Ih29rSTA9TXq0/k6uLmX4ctugumZPUOAZE48ZEUUMdRujpcL/OPCXjKXRBBYWjagEDo2vS8CbOO6JDEaw0nHHTHLq+62PU8XwVzlYFiG0UTtNoW0TBRdvsazp2d3d2ur1N3vmnx+L3VZUQeN8wJ9dtu9bvmZhXhceWsRmsPvW9UWLIh1K0nYL7TQk/UJIRjfbN3voyMXZUX8Uh65aO7mjacOdULfj5eMY3PTb5pFqQ6a3O0jJAmm34s8SwHhaCAT7+jSX3K6HOWnUp66OT1hdA3DSTzhzBg2tdTsg6tbrMqE7FdGR90MtPvxTlx2ndRcLT46NXetpR9Fydkz+US5m3PtkaJTbbt9q36M1hLBzsg6BO6ZhNBwtbTD77DWrjxGVI1CGkNQZRU+UC9V8qcxrktTLq2IdQs+0avURpr95ulV6Z0U9/aqcHYB2OZ6SdHQTokQaCdAT1ruvnlRW5YdWrFKr9rUEana8Bqq3LDC/H2JTjs+NuOt0tgmBKoEMfQXHscRiDXGtNrHJct26RltX1mHed0R3rcq1qw8Ki7C3YUKpN4NSNL7UYHXj0CIiT5u+5qLWfEuxrk94xKg9U6Vm5fNNmVaHDiXA/EKA0VZxijoadcLCL3h3ax2sTi7XCI+EIlgGf1nO6fS67VDt7KuZUqNRL3pFl9NO8pTDr096LG6E4EYmiDY1zmhe1mPj6HyHStCynnYZh0q4YFeplVoNXtWryLZqMaJd0+e1rDalC61JLaM9QPtcZNCYjqa6ntKSl5EWfNKqk5VawONYvWn32/gLrXMNQh9DwaaHvf2j7Aa1DjznxHzGPDpsdn2NSbMqFzVClyZrrl01s67NGQQYi3INhhjS3pEeDRHDHi1Y6tXEg6jtiK68492TrTeDj0h7EcKk/p1OhoLw+ER9vEBw4QLiHDDFRbuVVnyLhh3a/CckVmn7GEae+e5JaFoSHQLpcekteOvi4ldkQVrG03Njo7d018cdnY3MZQkf2zc1cQ9fwfyPaX1ct6abhuYXXWWtT0h3SBMaR3Q0iOGprqtdYMPG62tWBEFdChVNkwLtwrbggccyAgi4iYtDpIC7z1XesenmLxNC/GNt13o+xhf1a1bG1v4x4GvVu6937n069Pe+rp0eDq41ZUQV5yi1w3TJu7prYk7IMB6KxiIiY6Wg9sP9UXEPjeFqX9bo9wg42Z3Y44IuxjIcYbeGoQHmdH/AOYXF+L4KsCIK12Ku3CLsjd7e9sbe7jSx+3burd06vE4NP8AmX1cgXZi44bVwwBwxdkEI40wi0iYczA/bfALiLx/xFYEQVCqW/eFVg9BduilCGL0N3XhSTwx71xO83f/AAnREh8UeHi6y+TtArcd1hly4qaJSD2mh7FnxHpIv9v4okrooat4f6RoHwif0V9RWOb2VNdfpFt2pUyfYKp1iK+wy+1IxbZhk2REBYEPETp+EIq2YL+Yc2P9a/STMzqVXb7ERFaRERAREQEREBERAREQEREBERAREQEREBERAREQEREBERAREQEREBERBySZUVh+G0/hxyH8WmOHw9oy/NEl1qHrQmVRoRYBjjgM8yL8X7FfUwgIiICIiAiIgIiICIiAiIgIiICIiAiIgIiICIiAiIgIiICIiDjqMqNCp8mXOw1MMMm67hp1cAjzkuxQ92CZ2tWW2xxIjgSBEcP69olMICIiAiIgIiICIiAiIgIiICIiAiIgIiICIiAiIgIiICIiAiIgLkkyorD8Np/DjkP4tMcPh7Rl+aJLrUPWhMqjQiwDHHAZ5kX4v2K+gmEREBERAREQEREBERAREQEREBERAREQEREBERAREQEREBERAREQEREBERAREQcMya3ElQWTDEimyCYDHxe9G5/213KJq8d9+oUR5kcSCPPN17HxQ6M+P5xCpZAREQEREBERAREQERebJlEqz+e9Ng2Ff961evQLgOrXe8/Wn+wlKo7rLu1TDh4F0TB8sCj7Qi10jT390+LDWHpNF4vyKu29Zd8ZX16rVq7MKfeUmug9X6jcDkyk3f3p+RDwhwDdPsfztNFIHvTGkGCa77qW88qSrVahcmzNSuW/UJtPqdPs+ryocuE+bD8Z4IrhC82YcQEHW1D/AFINXRYxnFX6tAruRzNIrM2NhWr7ajTBjSjHCZF7CVN0mndH21vW22ekuHUAF4OCyil8qvNig5c2Xm/mDSLUnUS9LdrVVCl0aLJYlQZEClyKiOp9190HQdahujp2g2jIOJ3+kPXyLyJU8zc17MzLi3TmNdFn4k3lLVa5HGKxOh0xuWU+nCDT7QuynXdBkIA60Ot3dIQaHHrclxcoHOuo0q5bYptbpFMrtv1+xMBq79l1GmA/CrVXwhm0UCVK3Q0m0eot3jaIxHaPjAPYyLy7A5SGaNXvydFoloO1Si0i9MLPlQoloVQ3XGmpAxpVR7JiXRGRaM3XdggLvTX23WS9RICIiAiIgIiICIiAiIg4apPCmUuZU3G8TGGwb5CPhaB1LuURc0d6VblWiRQxcdfgvttjh4RkBYYYf+ql0BERAREQEREBERAREQEREBERAREQEREBERAREQEREBERAREQFwzJrcSVBZMMSKbIJgMfF70bn/bXcomrx336hRHmRxII883XsfFDoz4/nEKCWREQEREBERAREQEREBERAREQEREBERAREQEREBERAREQEREBERAREQEREBERBUr7vmn2FChVarQKvJiyZnRCGk0ebVJI97cPULENp10sODxeYVVvZLZd+9vNX5qLq+rlolThvSZtJda06YswnnfyNh0PzjFSSDKfZLZd+9vNX5qLq+rk9ktl37281fmour6uWrIgyn2S2XfvbzV+ai6vq5PZLZd+9vNX5qLq+rlqyIMp9ktl37281fmour6uT2S2XfvbzV+ai6vq5asiDKfZLZd+9vNX5qLq+rk9ktl37281fmour6uWrIgyn2S2XfvbzV+ai6vq5ZhRZ3Jyt25n7roVv8oSBMlVZ2uvsMUHMQYD8113ddcOHtdGISPHHUBNacfc08y9Sog8nWzeHJHtK6Dfolu5pBULUjuy2qc/Zd5yI9Aamg4JOsQnYpNQhdEXxEgAOHdEOYdWCuNq8oHISrZe0yjWvRsyK7aD9JbiQnO5tdVSYmQdvQPO+cE+kCQe1iREWvn4tS5DsDNOq8pHMiuWpedSs6ly7ftqOM7GhNy2p7rfZHWLTsjg1taw1adX20NSqUnk6v2xetWolh0OoSXrVykj02zaxUQ1g1XOkVPTI3cRwa6ZgToHrDQQC+fVE0ExZ9R5Nli1uDcFCsnOp6ZSI5xaRjVLGvmptUpoh0EENqXFdCLzhwd6EODg6nCqDki9ycrCo9AsG6LazKr112zawxJsd2w7wlQmo83cYfdYgOw9EcX9h0Sd2A199HAse+qErdh1WZabrHJ8ysuq2nGssqhAvZgaFKpEirVA3adoY1Oi102ftNVPv4ER99+299Fdtx2lTGLtu66sncnLoo1oQ4uW04I0O0ptPGV2OueRKn9Fhm0JkQR9BE0LWoutpLXxhd49H5KDEZ9h3LfOad0ihlbmLk+yr6mOt03dadGM047GM2RB2O0YaMRJshxINOotXymP8kVyp1CkzrUzkdrd0U6OUzetO+iqNQZpsxp+PKxM2N03Ysh1jRIw42twAwIRIRUPdEGrXfflx3jV8vLrm5azcwKLMrMCXbk3VVaQ3bzrAu9AJvdkMNVDopm1tF9q1kOkVP2TY9ixs+8s70t7JWu0Oh4W1dFLo8iqW5IJ2nSOykV1jrCZ01g2jnlHB3Y0NOm0IN6tCCXZrnJ1iXNjdUey86m5JTWam7HGx746G/OaEQCU7F6NsOv8wBji6YEZEImXOY6lo3slsu/e3mr81F1fVy1ZEGU+yWy797eavzUXV9XJ7JbLv3t5q/NRdX1ctWRBlPslsu/e3mr81F1fVyeyWy797eavzUXV9XLVkQZT7JbLv3t5q/NRdX1cnslsu/e3mr81F1fVy1ZEGU+yWy797eavzUXV9XJ7JbLv3t5q/NRdX1ctWRB/l7y1f4R3N7JPlAUSJk/i8dqyLXjypdEvCz51N3JpSpYk8ISm40vTtg0OoS2tQF7pCa0TIb+FltDMiXTqBmJkxeVvVOofc8iiQ3KzDdAcON3S0IyBHn8EGnfyl6DzY5HOSed+aUHNvMulVCr1On0mPSY0TCZsRgbYfffB3U1ofwPVJPVpd0EIjzir21l1YWXNhV+lWFZdHt6KVPkE41TIbcfB08Gi4z04cZfjFxKa+Il3rzguUo59Kp9XkOmxi7GbKjzA3C0844cTXDzrrxuukj9sCosYc3Pg49TJLQD+UZN4CP8AxUzuf3KHvAv4pVzH/wAtkfoiUVVKTqIi1SIiICIiAiIgIiICIiAiIgIiICIiAiIgIiICIiAiIgIiICj58/GFLpsbABLCdKJjHHxe9OOc/wD01IKNqcN6TNpLrWnTFmE87+RsOh+cYoJJERAREQEREBERAREQEREBERAREQEREBERAREQEREBERAREQEREBERAREQEREEbU5j0abSWmtOmVMJl38jYdP84BUko+fAxmy6bJwMRwgyifxw8bvTjfN/1FIICIiAiIgIiICIiAiIgIiICIiAiIgIiICIiAiIgIiICIiAoW8vvTrfwdJ/REppQt5fenW/g6T+iJRWr2ft17iibud/irWvg6R+iJdm6ou7Hf4r1j/ASP0RLOq+LSVtREW/DIREQEREBERAREQEREBERAREQEREBERAREQEREBERAREQFG1OY9Gm0lprTplTCZd/I2HT/OAVJKPnwMZsumycDEcIMon8cPG7043zf8AUQSCIiAiIgIiICIiAiIgIiICIiAiIgIiICIiAiIgIiICIiAiIgIiICIiAiIgIiIImryH2KhRGWSxEJE82nsPGDoz5fnCKllwzITcuVBeM8RKFIJ8MPG70bf/AHF3ICIiAiIgIiICIs2zYrGZtFabnWdcFlW5QoEGXUK1XLmivzG4u1o2mxYafj8Jc7pG6TvBtYYaD1cIaSi8ou8pDOOtUZ+rwKVZ1nT7ey1pl/1inXLGkunOKV0rVFYIX2uitB0TESfMXSAn2hJrh4977qFtNZSN5y1N04VA7XxuR4nes1E6Pv8A/NoQXNF56sHlJVym5cXfcef9vRaBcVlYRJlUptJbP7knsNOwtO6fW1OnFIyIQ3YrpcAdXuvDlA1ChOWNOqNuVCyoFTu86TXsbmGNgA0/CiVCdvtSI77sch1xWuMHS06TEsBQbuizqqZmPO5MV3NSgW9Ng4xKLPq1OjVyNiwTotNuG0640JawB3SJ6C0u4CXEIFw4ZFZXKGv8a1luzct8ZbXlGv8AbPGTT7Wp78Ko0XTTnZZPmJzpQusATWyZFtaSea/JQeokWH27yo6Fd1v2pWbZywvqoS74iu1SgUkGIDEydTWmmHXZ/fZYNNMCUpprvroGRlwAQEBl8pvKlteo0ZmTYtq3PcMuTQJVwSmocNgSosZp11gymA6+2WoZDD7W0xuukTDugS5udBuqLBbF5TVGlZNyswLwiTzn2hl/SL0uboMYNDgSqcUohjCZ9bvTvAWn3Q4lZ389Kc5dk62aLYt4VuJTqmxRKjWaZDjuw4dQeaadGOfO+Mj2gfa1ug0TLevjcDSekNTRZxkTmjPzky6jX1PsqfbOMuXKZaiS32HScaadJsXRJpw/a4dOOrSWoT4dOki0dAREQEREBERAULeX3p1v4Ok/oiU0oW8vvTrfwdJ/REorV7Oz4bqi7od/izWP8BI/REurd/vUbczv8W6t/gJH5pLlrVuvqIi7eHOIiICIiAiIgIiICIiAiIgIiICIiAiIgIiICIiAiIgIiICiavIfYqFEZZLEQkTzaew8YOjPl+cIqWXDMhNy5UF4zxEoUgnww8bvRt/9xB3IiICIiAiIgIiICIiAiIgIiICIiAiIgIiICIiAiIgIiICIiAiIgIiICIiAiIgql+3PQLPjUy4borsGjUqJMM5c2dKBhhoOiv8AWI+FUqJmlfOY8tkMorEdChE6G9dNztuwYjrfPxYw4ftSpX4pFgw1j1hdPBWbNPKTLrOSgsWzmVbjFZgR5XS4wm6bTseQIkIutOAQm0YiZ8QEJLP6dllmBllUIbVDpNAzHtwZEQ8AqkOLBr9O2AwbYdakg2MebsBziAuiw6A/648faxDekVZ7n1g7HQ+0igdH2eibXYxjR0fc3drTo6m733T7mvi91fQ7Js5103nbQo5m67IdIigtYkRyA0Pl1es6PCfjD1kFiRV0LJs5p0HmrQo4G07HdEhgtYEJxw0MF1es0PCHij1V8+59YOx0PtIoHR9nom12MY0dH3N3a06Opu990+5r4vdQWZFXTsmznXTedtCjmbrsh0iKC1iRHIDQ+XV6zo8J+MPWQLJs5p0HmrQo4G07HdEhgtYEJxw0MF1es0PCHij1UFiWP5yZSX1mVcFt1Kg31bsGlW6bsl2iV62n6tCnTdQdHlOC1Oi6iY0noA9Yaj16dYNEF67n1g7HQ+0igdH2eibXYxjR0fc3drTo6m733T7mvi91fQ7Js5103nbQo5m67IdIigtYkRyA0Pl1es6PCfjD1kGUZo5B3tmsxSwuO8rJclN0wqdMlvWGEh2I6ZFqmUk3ZJuwn9Jae+nIDgAtPCWBzN65GPXxabOV0i5o0awGnqK0dEGmFi65AgHgbsM5G7xA+TccSLTwtg6HFu6gvwWTZzToPNWhRwNp2O6JDBawITjhoYLq9ZoeEPFHqr59z6wdjofaRQOj7PRNrsYxo6Pubu1p0dTd77p9zXxe6gy6VyYKHbtxybkydqNPs1ypUKRRKtFdpOFSi1Id9pyObrTjo6tvTIb0+EEt3iEtJqqN8iW26rCj0i9ZluSaDhdjVyyLZpFuFBomIhTJkLaYilJd6OZnK3zdAuu0HMA9ZSGc2WOWt2corKO3rqy8tus02bCu2oyIc+kx32HZemnd/MDHSTv4/WWP1mdGy3vC77RyRt1iXbU7MC2KJAk0+PAklRakcOS7KZguTfscSa2ooNAZaGHZhiIeAg9UwMs693G6nlLcF9P1h2XTZ1EYrUmH9lDEdA24+L/fPsh5toxE3eDdIdekNXMu+y8srTy8suLQKVTaTCdiUdqmyalGgNRifFprAMXT0fk6usvLkS2Lsq98ZXWxewYUWNEvyq0YGMIlvuSqpSmqI/UAj1JuK06wBDI3+9NbQ6TB3QLu06MVBzNrEmp0it6DqtFzFtm77jpxV23KFHYdDoe61KhsR9UoQda0i6Mw3SdAw16S4EG7ULIyqWzQsr2cucyqS3cmV9pBZ2M2fSCmw6lAdjwxI3IzUpo2iI4LDod9x5uMeLVqwjaTyXLhs3Bl6wc0I0GXUrelW/ccqoUDpRTN+fJnHKiiD7Qx3cJE+ZpEt0MBdHhLRxY9a7N21OVWp9hwqW1Wpr9iyZTEKPS49Rdaat0nNNKCa10IZQHpIBMdAtC9p0cK9EZF02x7zy4YkSaPFqjsN+oUGYFWtyHCls9Hnu6ochmPh0fW06HFtd6Mx3REdSCiT+SHdeFi1vLq2c3IUCmXRl7SrDrb8m28ZMgzgQ3Yoyo/2UAtC4D3G0YudXhMcS1K/wBKygvu2Lzq9Rs3MuPSbYuO4Y9y1WnHQ8JE4pAtMNPsMSTe0NMP7Aa9TBGOp3QY6hINBOybOddN520KOZuuyHSIoLWJEcgND5dXrOjwn4w9ZAsmzmnQeatCjgbTsd0SGC1gQnHDQwXV6zQ8IeKPVQV3JfLyrZV2QFiz7gi1mNDny3ac+zTziE1EdeJwWncDdd3XRIz76OgS4eAfC0RVnufWDsdD7SKB0fZ6JtdjGNHR9zd2tOjqbvfdPua+L3V9DsmznXTedtCjmbrsh0iKC1iRHIDQ+XV6zo8J+MPWQWJFXQsmzmnQeatCjgbTsd0SGC1gQnHDQwXV6zQ8IeKPVXz7n1g7HQ+0igdH2eibXYxjR0fc3drTo6m733T7mvi91BZkVdOybOddN520KOZuuyHSIoLWJEcgND5dXrOjwn4w9ZAsmzmnQeatCjgbTsd0SGC1gQnHDQwXV6zQ8IeKPVQWJFWe59YOx0PtIoHR9nom12MY0dH3N3a06Opu990+5r4vdX0OybOddN520KOZuuyHSIoLWJEcgND5dXrOjwn4w9ZBYMMP6VEXgOq060I9bsdI/REuYLJs5p0HmrQo4G07HdEhgtYEJxw0MF1es0PCHij1V8+55YGx0TtIoGxs9F2uxbGjY3N3Z06Opu990+5r4vdXnPHmOAXQMRMT1CfhKPuQ9dv1QPHhOj/9isk6yrQfjPhIt6mNC4JanRitiQ/jatPCuhm0rZjPDIi25S2XRLnFxuG0Jj/x0rk9Gm3qSmURF2MRERAREQEREBERAREQEREBERAREQEREBERAREQEREBERAUPWiMajQhwPHDAp5iX432K+phckmLFffhuv48cd/F1ji8PaMfzSJB1oiICIiAiIgIiICIiAiIgIiICIiAiIgIiICIiAiIgIiICIiAiIgIiICIiAiIgh63/KNA+ET+ivqYXHK6DvROladzfx6Nq/2u0XV/ya//AHXYgIiICIiAiIgIiICIiCoXvlZljmaERvMnLm2brCBiZQxrtIYnDHI9OvFreEtGrSPPp8VfcsuMvitHufFYtv8Aaxo2+wnYtjoGjVq09H07XW4uqrQiCmN5TZWNUamW01lrbOFJo08apToQ0iPsQ5o6vsloNOkHeMuMeLiL2/bXHFyMyUg449EyisuPicoppYBQYuHPIITEnep19Lro6v8AxD8bFX9EFOqmU2V1apz1GquW1tTYMjo+LsZ+ksE2XRw22OHEObvQcIeKPtCpm37Zt606NFt62KFT6PTIeGliFAjAxHa4tXA2HMI8XtqYRAREQEREBERAREQEREBERBD3f96da+DZH6IlMLjqXQux0vp+joewe/q6u1p4uf8Ay867EBERAREQEREBERAREQEREBERAREQEREBERAREQEREBERAREQFD1v+UaB8In9FfUwuOV0HeidK07m/j0bV/tdour/AJNf/ug7EREBERAREQEREBERAREQEREBERAREQEREBERAREQEREBERAREQEREBERAREQQ9b/AJRoHwif0V9TC5JMqKw/Dafw45D+LTHD4e0ZfmiS60BERAREQEREBERAREQEREBERAREQEREBERAREQEREBERAREQQ93/enWvg2R+iJTC46jKjQqfJlzsNTDDJuu4adXAI85LsQEREBERAREQEREBERAREQEREBERAREQEREBERAREQEREBERAUPW/5RoHwif0V9TC5JMqKw/Dafw45D+LTHD4e0ZfmiSDrREQEREBERAREQEREBERAREQEREBERAREQEREBERAREQEREBERAREQEREBERBD1oTKo0IsAxxwGeZF+L9ivqYXDMmtxJUFkwxIpsgmAx8XvRuf9tdyAiIgIiICIiAiIgIsZzozmvrKiJXrqhZXxKnalrUwapUalOuEKe7Jw4tbEBjYd6Q+IB1HTY1EYCBFq4Y25eUhWKNULlrFOy+ZmWNZdYh0S4ay9VyYmMvPBFN11iHsELrTAzG93E32i4HdIlpw1BvCIsIpeeWa140Z6+8t8kodw2ZhIkNwn3ro6HVqqwy6TZvxYZRSY0GYFtC7KaIw0ljo5+ZBu6LPAzYtZjMB+wKrXIceoSJcSDBiYNv7vSnYb8radPTtCRNRXTHSXt6Cw63tLlqvKAyso0g4TtwT5stqoTaZjDpdFn1CUT8PR0rQxFZN022sXGwN0RxaAi0EWrhQaaiqM/M6wafly7mxIuaJ2pNU3ssVWb1uNdC0693hw1adPt+4qsfKXyZYp1Xq8265MCPQnKeM7shR58RwAnv7EN4W3WBN1h13gB8BJrHHAuPhxQauiy6oco3KSkSmIdUrtTik5HiSpRvW/URapYSvtHT3djRAI/FlE0ShcxeUtZlqVSJbtCcfq1Yxu+hWnKw6BMGExInzYzDrXTNro5SGmX93Fjc18PEOCDa0VKg5s2BPh0OoRbj3I9yVmVb9Ldwju80mfH6TvNdTg09ClcRaR737vEOqh3LyucmKBatZumFVKtV2qPTSqjceNQ54lUouDoNdIhkbGASo+640BPtEbQboaiw1DzhuKKNpdSarNNi1WOEsGJrAPthJiuxXRE8NQ4G06IuNlhhjhzgQiQ82OrDnwUkgIiICIiAiIgh7sEztasttjiRHAkCI4f17RKYXDVJ4UylzKm43iYw2DfIR8LQOpdyAiIgIiICIiAiIgIiICIiAiIgIiICIiAiIgIiICIiAiIgIiICh60JlUaEWAY44DPMi/F+xX1MLhmTW4kqCyYYkU2QTAY+L3o3P+2g7kREBERAREQEREBERAREQEREBERAREQEREBERAREQEREBERAREQEREBERAREQRNXjvv1CiPMjiQR55uvY+KHRnx/OIVLKpXxWbyo1OgYWHb1GrVWnS8I4xqxV3aZH07TrhlvtRZBau99Xa/5VVu2LlTeZzKr5y6j9RINWRZT2xcqbzOZVfOXUfqJO2LlTeZzKr5y6j9RINWRZT2xcqbzOZVfOXUfqJO2LlTeZzKr5y6j9RINWRZT2xcqbzOZVfOXUfqJO2LlTeZzKr5y6j9RINWRZT2xcqbzOZVfOXUfqJO2LlTeZzKr5y6j9RIKrygcqM0MzzqVDpdr5e12nSIXNQKtWZUiJU7RqRCYnNik1HdJ0vtTgaHY5iQaNektYRFeyCzPfh3lltT6jb8+z8wazCrFWrUyY61VIneobU9oIosEy9v8ARCIT3WtHSD4S0Dq0Hti5U3mcyq+cuo/USdsXKm8zmVXzl1H6iQX2jOXIbs/tgi0tgRlujA6G+buJxOHQbuoB0O9bUA6h6vEvN8/IDNiFl0eQ8GhWRXbWprsobar9Qr8+nz6VHdJ3FrciR4pDIdjg9iIkMhoXdA4loJan2xcqbzOZVfOXUfqJZfymb25UdE5Pt/1bGwbHt3otBlO9lqJmPUSnwuYftzA9iGudwfdw76H5SCRncm28mIdzPUm5KXKrWDVpzLWnzHHQLsnRW+vK0geINPkGg9G6W067/comTyWLpoeFhVmlFFuKs0O36jS7ijFdVRt8ZtQnyWpkie1KhAbvFKF8jbMeIXQLrtcxVS56ryi+T1dtm1SkW5S3qdcNQlUqXb1QzdrVx9P0QJMrfF2oUw5EXa6KRa2iIS1aCb5yEwrTHKu5aNzZf1u6aZlLZcSmVW1plw0ipjHuCIFFYCJ0oSffkQejzHCa4Q2iEDd8LSg2zPCxSszkO3lYcCkwozkK0JbHRYG++wLpBiRi1vmTpBrIuuWpc15ZFZrZm3RULyupu0qPNI7ShQokKpyJjbsWmXA3U5TzrpxmtBGA4i01oLi6zvFwZTenKp5W+W1oxarKtrKGsybWtdm4rqYguXBNfdikBuiW61BGPT3XGmj5hfdPi4+oumq5r8ouoZ3UmnwMsbIZlUzMp+EcOLf1R2qlIKyHJQsOunT9G1tOi6Bi0I7rQjtdaUQapmbkVmXcTubNqWtjbTtuZy9H7JVKfNfbmUXngMU+RtRwYMJHeIwG1zut6XSLVziuOqZDZvYypVo0rtRK13c06fmKNVk1CQE8o41RifIh9GFgg3RNp3S7u6SHQGkNRGELkpn5yub1q9Qt28cuMqGLgjsDN7ASatXbfnRGNWIERdIpr7cscCIB3Y5E1q8LHUK2Hti5U3mcyq+cuo/USDMqbyf828MbQsusnardqWffFduXCpRqnIKfNiz2qqLQ7HRhBh1vsphgWG6YnoxLUPUL6Hkpn1VMhXchqj2hxYNFssLbpc9mdLccqstjYCO+7hsB0JraY4wHfLW7wlpa77pPbFypvM5lV85dR+ok7YuVN5nMqvnLqP1Eg0OkFV3abEdrUWNEqBsgcmPHklJaadxHjAXSACMcC9rAtA6ubqipNZT2xcqbzOZVfOXUfqJO2LlTeZzKr5y6j9RINWRZT2xcqbzOZVfOXUfqJO2LlTeZzKr5y6j9RINWRZT2xcqbzOZVfOXUfqJO2LlTeZzKr5y6j9RINU5/b08y/S/xk/hJrt5RNE5VNr1+E3jY9zs2XAitP2ddUqS1snPn6N2UcaHiJGe4O1iGnhHiLVpHduS3nB/CiOwI86+cvqLc1qtNbsqbdzRUSYww0HgOtN6ndY8W70d/V4yD/Q65o70u3atDihi46/BkNtjh4RkBYYYf+qltWCrzMu9XIrZu0CjsyCb4x7LOkIF//A4l+JVbuKmRnqjUaNT+iRmycf2KgZmIjhzliIkwOr/mUdpe+SyoiK3giIgIiICIiAiLx/att2Ja+f2V9w2BRbeh2tdrNWYpN0UGpHOq11yDglJd7LGYgW0G1IMS1yu+g1xMa9CD2AiwHk10CiWJXM8aTT3nmKbTcwBccenTTfc58bdo7rrzr7pEZkRERGRkrFylr0uSxcqO2G0bgj0Wc7cVu00ai8w2+0wxMrMOK+ZCfDp2n3Pb/NQa4i8iXFmHnTScwJGTdLzWmysBvih0gbjlU2nFPahz6TMkvxyAI4x91oozbrR7XP30NeBj1uyZmhmlCh17MUMxZZjbuZkKxGrSOBB6POiHUocEicPY6V0p0HzkgQOi1xh3rQg9SPymIxsg8820UlzZaEi04uHpxLSP42kS/wCVda8XRrpvW+qhkXmJc1/vS3K/mhWAatwokVpimYRYFdYAY5g0MgiaFsQd3Tc1GXgdVdc3lM5j0bJrKi+49RhVet1rKKuXpVYWLDX+kahCpcV8SxEBwIB33XdQtaetp/oQexkXkjNk78p9qUSkx+VHUqrJqtzWHK+w4dLYqMZibWWmDdDaY0FDdx0k0BtEWtgxN11ozaWrZzXHdkC5Ms8vbcu2ZbuF6V6RBm1tiNGdlA2xTpUraaGQ0bAuOkwOGomy4BPSOriANXYlxpImcV9t3BoyaPbLVpMesP5S6l4SsPMDM6nVeNlhZdYrk46/emYU+fV7ebowT5hwKiw0ANdkvsQdXSidd0gZd64BEdWicjZl5lUq4gzDzPzHnUXG38p6xVp8GCzBqFOdkM1AmGpRNR9W6ZiDDpNtSB4+96xDUCD2PJmxoTW9KfbZDAhHUZaR4i0ijEyPLEiivg4IGbREBasBMS0kOP439C8Y1bN7Ny33rzsi5qtVZ0mlU6zqs2N0w6I7MjOza50aQG1TROPtE0AEAnrdAuLAi4CX3tutZrQYFRj2BVq0NKava/5VZiWt2Jdrusa86MeQLFUHFp2KPf8AdFrS7rNrR4iD2iiqmXFzRryy8te76dWcKzFrdHiVJqoDFKKMwHWhPB3YLUTWrVq0Y+2PtD/QrWgIiICIiAomrx336hRHmRxII883XsfFDoz4/nEKllHz5+MKXTY2ACWE6UTGOPi96cc5/wDpoJBERAREQEREBERAREQEREBERAREQEREBERAREQEREBERAREQEREBERAREQEREEbU4b0mbSXWtOmLMJ538jYdD84xUko2pzHo02ktNadMqYTLv5Gw6f5wCpJAREQEREBERAREQEREBV+9bLtzMS0arY14U3GbRK3GKHPjYSHWd1k8OMNbRCY/wC8S51YEQZ1aORuXVm17C6qbBq8+tjGOG1Ua/X6jXJLDB44a22nJ77xtCWkdQhiOrT7fOuSicnrKe225NOpdDqBwJFKk0YKbLrc+VChwH8cN2PFjuuk1FbLSI6WhDDQAiPMI4CtQRBjknkq5KVCDIpNStuszoM6ktUSfGk3NU3GqhDawMWhlCUj7IJsXD0G7qMOHSXAGmaZyGyujS254W09KlN1HCq7sypTJRuy+xOFI3XCedLcx6B3kterVz4njzucS0lEGfWRkzZGX9ZKv0CJVnqh0HCltSarXp1TOLC1CWMdjpTru03qAC0hp1aQ1c+gebQURAREQEREBERAREQQLln2o5c4Xq9bVLK4cIowQqxQ2imDHAjIWhe068A1OOFp5+bnMl9Ly+9Ot/B0n9ESmlC3l96db+DpP6IlFavePtJ6v7lA3xMiwrMr8mVIaZYapcpxxxwtIgAtFqIiUxq/3KJu4/4p1r4NkfoiU3q9n/Kl+yx5LP4S+VfplTv3qeyx5LP4S+VfplTv3q1dFqllHsseSz+EvlX6ZU796nsseSz+EvlX6ZU796tXRBlHsseSz+EvlX6ZU796nsseSz+EvlX6ZU796tXRBlHsseSz+EvlX6ZU796nsseSz+EvlX6ZU796tXRBlHsseSz+EvlX6ZU796qZS8y+QDQa9UboouYeQEGsVcXW586LWKM0/KF3HvoumJ6i1+Fz9bm4l6KRB5loN0/wb9slOK2ri5NlKKpQXqZOKDLoLHSoTv22O7oLjaLDDDAgLhL2uddWaWcHJIzQsqPZM3lM5TxYLVWo9TxDG6aW60QQJ7EzBjb39Og+j4N4/ilj7q9IIg8+UHN/kI2xBYp9uZp5EUuJEqHZZhiHXKOyDU3TiHSQET4XdBEGvraeH3F+5Gb/ACFJV4N5gyc2MinLmb04jWSr9JKaOkNA8z+5r6nD7vV9pWvlD23c90Zew8LRoblZqVFue3biGmsyGmnZjUCrRZjrTRPEDW4TTBYDrIR1eFgvPl/0a/mMyKTfty5UzWxuXOOhVSj0R6fAcmPtRbXlNEXA+UcHQdYIwEndOoA4vCQalFzT5A8K5Hrzg5lZCR6+/KKe5VGq3RxllJISEnsXcD17mki5y59WOov68VAZV568g/Gm9udBuXJWyqlLmVBpwDqVGiTeGQ60bpaCEtL+jd/GB0cfCUVbGXOaVsZmwM6nsqKtLgzLluqcVsR5lO6dTGqjHpzceUWt8I+JkVOfIxB0iHp/9xqBtbJ7Pa37St20isOVSmOwlyQNFAdoZHDlTay++DEqVKEzGBsEwWmKBHwlqDUACgvNPzS/g7orNey2gXfkREpNSYiT6pECZSWqdP767siRatp11omNejrNami4dYq0XPnryKLzobdsXdnRklWqQybTrUCfcdJfjibWPAQtm5iIkPg4/wBCxDDInPGqZbSrKesCpU2fVMp7IoDrxVGmkOFQoM+Y7Lhuluuj9lNugLR6HWtLvfdOkhVmqGUF/VJ+RmXHs2/anVIlzWxUplLuWp0QZtYi0118sRabhaIoE10nWBOu63doR4RBrUEzTM7eQPdke4MvavceScSg2xWAGJHm1GjDAnOuw2HymRR1aC+6DYMx8Np0VYpmbfIPqONMwnZmZCSOwkF+l0zdrVHPoUJ5raeYZ4+9NG1wEA8wkPD7incgrauyk3BmtdFx2K7arN43e1WqdBckRnHTY7FQGCdd6O4YC4TrDusdXW1dbDjLaEHm+FmD/B7UpqOxTL45PMZuMO00LVUog7QboO6R4/8AatNH+WAl7o4L6V3Mz+D+ulgIlzZhcn+qMNSpE0W5dZozwjIkHrkO4aj6zpcRl4fhL0YiDIInKi5KFPiswoXKLymjx2GwaaZbu+nADYj1REcHeEV0eyx5LP4S+VfplTv3q1dEGUeyx5LP4S+VfplTv3qeyx5LP4S+VfplTv3q1dEGUeyx5LP4S+VfplTv3q8WZu/wuEfKXlFXTY9NtW2cw8vYPQcKXW7erHfiwciMOvluji6xI0um8GkdrqaSLhxX+lS8fZl/wbmVWcnKAufPLMq4ajO7PPQjapESO00LQsQWI2LbrruDu6J7GvgFox1dZBNZMfwj/JQznkxqZBv07WrMo9DVMuZjoRljz4YD3/UUciLwR3dePirfanctsSplKeauqjaIssnnfs5rqbDoeN4xiqRb3J6yUyho0Xuf5dUimSGpNPi9NJnpMwmelNDtlJe1ukP4uta5uf3KO3y8lI+JcdAqD+EaDXKfIdLDhbalAR4/5cMVJKGujECp8cscMOcajA0/i/ZTSm8cMMUmvN5y/qIit4IiICIiAiIgIiICIiAiIgIiICIiAiIgIiICIiAiIgIiICIiAiIgIiII+fAxmy6bJwMRwgyifxw8bvTjfN/1FIKJq8h9ioURlksRCRPNp7Dxg6M+X5wipZAREQEREBERAREQEREBERAREQEREBERAREQEREBERAREQFC3l96db+DpP6IlNKFvL70638HSf0RKK1ez9vrq/3KJuw/4q1j/ASP0RLu1f7lF3Uf8V6x/gJH6IljVfFpK4oiLp4ZCIiAiIgIiICIiAiIgLgmUynVByI5PgxpDkCR0uMTrQmTDugg3B8UtJmOrDxiXeiAiIgIiICIiAiIgIiICIiAiIgg7t/kpr4Rp/0xpd+6uC8P5Hb/AMfA+ltL67iyrZf8HLch6oMf4Sp/0ppWDD3FV6+eqFF+Eaf9KaVow9xONnlP6iItUiIiAiIgIiICIiAiIgIiICIiAiIgIiICIiAiIgIiICIiAiIgIiICIiDhmQm5cqC8Z4iUKQT4YeN3o2/+4u5Q9aIxqNCHA8cMCnmJfjfYr6mEBERAREQEREBERARebb7u/M6x85rVpj+ZdYk4XPdDUYKO7brEW22KK7uiLRVE2NZVHvWoGxlEZmQd4EDX8h3fmba/KCtWw65mXWK2dedqTlZgzrcj0yiR4/RnX4rdJlEyDsqSJbQm10iVjowfM9rRzIPSaLP887irlm5JZgXhbkrGHV6Ha1WqUGTtg5syGYbrrR6D1CekxHHSXDisHsPOG7m7htWVaubd2Zn0uVS5s6641Zt+HEapLTUEn2nWpUWDGECKSLbG2e7iYumQ/a8UHrhF59tnlEZg3nEs+JbuUlKG4L1oTt2w4VQuomI8aiiMXS6++ENwxkG7MEQYBox0gZE6PUUNO5Ulx3xadXfysy+3ZNMsk7mrbk6tDGfpRm7MjgwwAsOhKkC7T5XWJoO9DxcaD02i85W3ylptLybue7K3QHKtPy9tSi1eY6UwWiqrsqmtyi/1feeIubwv/wBCtlPzevu57orESxsso1Xtui19625dTcr4x5IzGmx3XcIpMEPRgdLaM93d4TIWj9rUGwosNy4zWv8AvTkuu5s3NApVJuGTb9QqkXCmSCktBpacJo++tBpLh6vGPD1yXHW8zL3g5H5PXjEremsXTWLKiVaT0ZrHpLM+RGGUOjRpDWLh9UR06uHSg35F54o3KirL4UO57iy3YpNm1256paTVUGt70xqXDdmNYOnF6OI7DhQDDVu6xIx4MR41C0nlAZk3JeeVtzT7OC37Tuy2K7csWGzW2n3Z0cIsZ+KMvB1poIr+h3Vo3SaHUWp3hQeoUXkWvcsy45Fj3k7bNt2VIuaiW5EuKCdNvDsvTcWH5OwQuvtRh0vtFpLQIm0erDS6p+7eWdTrPumr23WKHbQ9qU2n064WMLr01LpUhph13sdDKNqmtNDJDiMmCPSeAhqHSg9NovMV4585h1qVRZlo2yzTbU7qcOzDrGFXxOZL2Kl0aZriYsaQjk60+0Ji+R48OOgBLEh9OoCIiAoW8vvTrfwdJ/REppQt5fenW/g6T+iJRWr2dnJq/wByi7oL+LNW/wABI/REuzdUbczv8W6t/gpH5pLjrV1L+iIu/hyCIiAiIgIiICIiAipN+Zgv2Y7S4FMsS5rsqlVedCLBorDGBCDY6jcdflOtR2hw4cON0SLVwCWPOqgzyj6XWKDQ67ZeWd93UdbizpZQqbDitPQBhv7EgHzlPtNYOg/qa2gdMyIC0CQcSDZUUBZV30O/7Pol822+b1IuGnR6pBcMdBFHfaFwCIfBx0lh7SqmZOeNm5V3Hatr3KNTdlXXN6Mw7DZA2oje8wxvyiIh2mOkSorGrDVjrkB+MQhpSKsV7MWwrXrFNt+574t+jVSsHop0GfUmGJEwtWnS00ZYE7xeKoi1s2rVuaJPlzJjFG6Hc1StdoZ8lpvGTLhuuCe1xcWoWjPAetpEva9pBfkVSt3NHLS658ql2tmLbNZnQIoTJUWDVo8l2PHLqumIFiQCXjF7S+VAzaytu1on7XzKtWsthNCBidPrEaSPSj59EfnA/tpaS0h1sdOKC5IqnW8ybNo1CqldO5KXIZpL70J8WZzWJYTmg1FD632/mw+1dZRdIzsy4mUm0JdXvOh2/PvSnRKjSaRVKmwxNkBIASAAaI9ThcWnh5+JBoCLM8xM98uctjwpU+5aVNuHp9KhlQI9Sj9kRCfPYhtPdH1a9sSkgerT1RU+xmhlo/cT9ns5hW05XWHxjP0saswUxt0uq2TGvWJY+LpQW1FV6HmPl9cteqFrW5fdv1atUrEun02FU2H5UTSWkt1oC1t8XDxYe6rQgIiICIiCDvH+Rh/x8D6W0vxugv7ef8hf/XQvpTS5Na5cm7WNXwrZfY0X4Rp/0ppW7wVSquXOxE+Eaf8ASmldfBV4k2/SIi3QIiICIiAiIgIiICIiAiIgIiICIiAiIgIiICIiAiIgIiICIiAiIgIiIIC7a3a1r0zC57xr1Po1OpJFJObPlBGYa72Y46jPHT1SJZ9EzSvnMeWyGUViOhQidDeum523YMR1vn4sYcP2pUr8UiwYax6wungpnOPK6ws3KZRbTzCtlms00qni8AEZtuMOjFf0utOgQm0Y+MBCSplOyyzAyyqENqh0mgZj24MiIeAVSHFg1+nbAYNsOtSQbGPN2A5xAXRYdAf9cePtYhvSKs9z6wdjofaRQOj7PRNrsYxo6Pubu1p0dTd77p9zXxe6vodk2c66bztoUczddkOkRQWsSI5AaHy6vWdHhPxh6yCxIq6Fk2c06DzVoUcDadjuiQwWsCE44aGC6vWaHhDxR6q+fc+sHY6H2kUDo+z0Ta7GMaOj7m7tadHU3e+6fc18XuoLMirp2TZzrpvO2hRzN12Q6RFBaxIjkBofLq9Z0eE/GHrIFk2c06DzVoUcDadjuiQwWsCE44aGC6vWaHhDxR6qCxIqz3PrB2Oh9pFA6Ps9E2uxjGjo+5u7WnR1N3vun3NfF7q+h2TZzrpvO2hRzN12Q6RFBaxIjkBofLq9Z0eE/GHrIKDN5O9NqVyDUqlmResugN3E1djVrvy4zkAamEjpIHg4THStoZAi6DHSNoSHDh0cC/lB5O9OpFzUGr1LMe869TLTqEiqUCh1WXGdi06W60+1iWDosDKf0tSngDB953SJ4/1Dpv4WTZzToPNWhRwNp2O6JDBawITjhoYLq9ZoeEPFHqr59z6wdjofaRQOj7PRNrsYxo6Pubu1p0dTd77p9zXxe6g4KrlzEuPKqoZUXFctbqsaq0WRQZ1VkutdkX2n2CZN0iFoWt3QeJfatOrwVMla8ErTxtDF9/oeNP7G7nOO7s7e3q6unVp/F5l8TsmznXTedtCjmbrsh0iKC1iRHIDQ+XV6zo8J+MPWQLJs5p0HmrQo4G07HdEhgtYEJxw0MF1es0PCHij1UGaFlPYo1O1rRs3Nep0C8MvLYCixzpkyA/VMKK6LQfZTEhh0CAzhtELu0PG1jp9rWJQlN5OmU9TwqFr5dZnVylHTKENkXTGolThvvy4/O6+Lc7dadNqVzzJDm4G0f2Uf4mnJc1qXa2Vefd5ZxN2XEmW/Z1Gt2l1yjxKcBC/R55ztQAxgOgiGe1Af6vgOqhy7RuDL6n3VErMWktT6pf1DdvyqS55U9qKFUo5Sal/pFlo3YTDs11pgnQ/1R6NQDxCHqCv8kS0a1R6rbDGYN70uiXBQafb9Zp8J+FgM8IbGxHfN04pOg7o069swA9Aah06hK1MZG0+Deku6KLft30yl1GtYXFMt6FKYZgSKlpECdM9rpGg9AkbG7tGQ8Q8RiXloqRTWLMpE2bmhYBUePd8qRSI5XpUYMKdHiw2gjxe2cGBkG7FdN8muvqAtrUWwWmFu6s2E1a1Cvh2pBhSWbDiDHtObdB0avCAzZTvSoG010Wvm+6DWhh0dBG00fWf4g9rZa5VUfLWwhy2j1ep1qitbzcdmqYMGTMVz/wCF700GtodRe2eo+YuIyVRtzk00SgvW5BnZiXlXrZsuQ1Jty2qm9DKFTnWB0x++NMBKkbA49633ndOkC4jESw80ZiXnakXNqTdUZ+JSHqZmfT6TVmKpc7m6xTJbsaHUnX6ILAxY8N9p37qkETp7oGTvE0C/tszrd7Y8tpdPud9/MqoZl1KLc9slPI2owQ49WGAw7D6kNpgWoox9INaw4+PriG6ZUcm2dEpdJLMyvVt5ij3VX7iiWzi9FcpoSJU+cUd/Ega3y+x5evbJ3QJl1eHDT1hyPbLl0mBa9w37e1aotItqpWhSYEyTFFqDSprAx3WQNpgHTIWgbEXXTM8MADnIuctWIclGmFdFfsg6rWbMmVGbbUoL0t12vSqrMMtYOm05S3Ywx6P0ef8A6prQHEY99IQNezzsmznXTedtCjmbrsh0iKC1iRHIDQ+XV6zo8J+MPWQZPWOSbQ7mwqMm6M0b6qsyq26dqypDjlPaxKFui6zpaahg0BtOjqEhAdWst3dHABGei5Edjq9Lr1NzUvWn9mpMKbX40Q4DbVamx2mmOlO6YuuObrUdkHejEyBCHVHi570Fk2c06DzVoUcDadjuiQwWsCE44aGC6vWaHhDxR6q+fc+sHY6H2kUDo+z0Ta7GMaOj7m7tadHU3e+6fc18XuoM7f5MlvvVwKgF+XfHo8e7xvmPQGXYowWqxv4vungWxvk066bhm0TuI6nTIdPBp2pV07Js5103nbQo5m67IdIigtYkRyA0Pl1es6PCfjD1kCybOadB5q0KOBtOx3RIYLWBCccNDBdXrNDwh4o9VBYkVZ7n1g7HQ+0igdH2eibXYxjR0fc3drTo6m733T7mvi91fQ7Js5103nbQo5m67IdIigtYkRyA0Pl1es6PCfjD1kFgww/pUReA6rTrQj1ux0j9ES5gsmzmnQeatCjgbTsd0SGC1gQnHDQwXV6zQ8IeKPVXz7nlgbHRO0igbGz0Xa7FsaNjc3dnTo6m733T7mvi91ec8efA4BdAxExPUJ+Eo+5D/i7VNZ//AATv5hKXuq1LZaturymrdpQPjAkGLow2tQltFxatK6Knl3YVZp0qk1azKHLhTWjjyIz1OaNt1oh0kBDiPEOK5PRpt6qjz8+o9flu0LJG2Xswai04Ud+cxI6LQobo82rB+okJARjj1mo4vuj4QCtEtnC5QosLtsepztWxax6aVPAwjbnP/qsDIj0/lY/8vVWJM8n6oZRMiWStMoVdttgpBdptyNAQsi+OAyOgVHQTrGtodG0/utEOkNTQrXoNn2pi1El42NTIUr7FkbeMOPuMusN6WMNQcOpoSIAxEuHweFdjFaUVZ7QLG6N0XtTpGxsdE2+hhp2t3d2/c6m7x6fGX2csm0HnHHXbbphG67IdMiiBjqOQOh8v/mDwn439KCwIq+3ZNoMuNutW3TBNp2O6BDEDDSccdDBf/LHhDxf6F8sLBsjY6CNr0wWNjou2McRDa3d3Rp8Xd4/ykFlRV9yzLTedcddoEIjcdkumW1hxG+Oh8v8AOPCSN2ZabLrbrVAhCbbsZ0C2sOE2B0MF/kHhFBYEVa7QbJ6P0Ltap+zsdF29rDTtbu7o/J3eP8pfY7Mtd4zeco7BE87IdPHi4jfHQ6X+YUFPzoK6X6ZGo8DLuv3Zb1V3GK01blwdiKxG6hMGw70iNwahIHcBfA9JD1x1isRh23n/AG5lhZmUj+VF0u2yTNSxro2rUqI1U2Kf0x3oFKJ12ZFAXeikHSJTGsyIC0FrPF0fTzdm2u04283SGBJl2O6BYc/CbAaWcf8AKK+XaFaPR+idgo+zsdF08xfad3d0/wD8XiQcVmzpjESnW5Dy0n2rR4lEilEbfeh4BDPDU30DbjuuYCTQAHEGpriHQZe2sSvfk7ZiZ13jmTWblvWbZ1MrUBq0aPDZhw5xOUlocXemaz1kw67KddLg0FoYj6uIcNO/nZlsvEbpUsdTrkh0yF0h1G+Ol0vaLwhQLMttpxtwKdpJt1h0eZ1z2iYHS1j1vBFB5uoltZ2RanWa5mLkK1etTv62qBTZ8TGpU3Cnw5sPfCU3KJ1zWMUjd6SBNNPl30x0CeGAl8LMyNzYs3Mi476mUZy4IFyVu6oUenPyo2B0CLMkOvx6jDx1COIyOpIA+/ccfTwtEJw9uyq9TblplKzdv+7rIrcmu9izo1Utdp206jCOeRMw4dRaa1C66BN7Ruzd3dLiaP7Ur+WdFuS6RTJUbKmoTrmnT7qaq1BiTidlQSprTozyHh79umMNpodIa+mxy4EFBuLk0ZlVnJ/LexKFQIlIqNKyWrtm1YsZLQNsVOVGpWmK6TRcYuuxpOBuhgQ9cvCHVYL1y0zMzNuGq5j0nKmdaUu3LYpjVDpM+bTxkVKrwKoNRjtiUd91oGB2NgSdIPup3hEOJRk3Pqu1TLXG+bBs2xZU2LcNpwhCFfz85iP0qotwdiSHRQdiymt0RNo2tPfCPU6bW0XW9ylMvWL0fspy26O5TKfcEex5gt3o4VZGQUpoHXWqdt63YrUp3STu6LugDLa0Cgibd5OebMWqxIFXt9saTUKNIvqsuYTo5a76lQZMORF0a+IPsoHQd6mtjrdVRA8nPNBmnVm2a/b18VCmXpZ1t0WRGt6qUNmKwcSnDFkRZjs0TkNCDok6DsXd+2mQ8fWvkLO64LiqdBGj5Hx3WL0uC5aDRpEi85DeuoQjlNySlAMYujsG1AfITDcISERFri1rVMn6vQMzLCpN9O25Io8p6STMiDhU3pAxpdOfdhkIu8O4Am05hq0jrHmIhQYvdWVOaOLN1WHDyumVzGsZq0O9o1zFPgDH6A1OpzrpFgb4yOkNNRXWtO1pIB4Sx1aFToAyY1YysyxetyC/VKJnRXZRXDGq0CTjKJ0qtIdJppp05QugLo9IF9prQbXhcK9jdotvdH6JzVHTsdF5uysrVo3dzrbvW1eF1tPD1eFcA5T5dtXFJuuPbDAVubi/jIqTbrgynN8dJiTolr06eqPVDwNKDz9ydMjr6s6o5c0u+6Ne+EnLanSoYz5NRonYY3TY2DKMMVvproP6t3TIxDSQgR6zFetlABZ9EaMDEJmpt2O6P+kZGPGwGlrw/F63j+HqXx7SKBhGxhidWEej9G5hrMweDd3etu9bV4XW08HU4UFlRV07TpBOmROVLDFx2Q4Wmqyh4nw0n/rP6uqPuB1g0oFp0gXQIXKlji27HcHVVZRcTAaQ/wBZ/V1h9w+sepBYkVa7SKF0To+5WNPR+jfy3M1aN3d6+7q1avC62ng59PCv0dp0o3CdOVWdTr0h7HAKzNEdT4aD5hwd4R8QOq2XEGAl7aD93r/IGP8AjIX0ppRmtdT1jUKSzjFlvVl5rE454iVbmmOOLA6Q913/AIn/ALQuI9Re2uaqWpSI86kMsHURCVMNp4eykriDo7x/7TxhFc+TFVV2lpFdHJUi4YfwjC+lNK+KCi2jRIb7chtiUTjZax3pr7oiXjYCZkPOp5Ximp2TVdxERapEREBERAREQEREBERAREQEREBERAREQEREBERAREQEREBERAREQEREHHK6DvROladzfx6Nq/2u0XV/ya//AHXYoet/yjQPhE/or6mEBERAREQEREBERAREQEREBfggExxAh1CS/aIPkTDJtbBtAQeLp4UJoDxEzESIeIdXgr6og/GAAJYngI4Yl1sVm7OSNuDekS851w3XVsaXU5VZpdMqVWORBp82QDjbrzQnhr6j74AJkQNC6WDQhw82log+QtABEYgIkfWx8ZfVEQEREBERAREQEREHHUuhdjpfT9HQ9g9/V1drTxc/+XnXYoe7/vTrXwbI/REphAREQEREBERAREQEREBERAREQYrhybY0uPDt6tZs3/VrQgz49RYtmfKhOx9ceQL7DTsrovTXWgdEC0nILn06SIg4Vw2DkxPkZjZnZo3JTJdsTb2ZCmQIsSp65MNgY7TUiaDrXCw++bEfqYlwQ45c+rEgHeEQYXV+S7SbjCtTLmzJu2r16rs0mO3W3QpzEqIFNnhOikAMQwZMhfETLdaPV1eEfaVgo2RwW5cT9YomZd5QadUasNdqNDYehhEmVDg3XTPY3wF0w3XWmnQaItXDpMwLVEQZlQcibRtwrR6DU6sXaZXa1cEHdcax3X6l0zfF3vXEA9Pd0adJ8IaiPi12LLmxqRlxa42pQJMt+G1NnTAKWYm7gcqU7Jd9sBHDTrfPT7XtDpVrRAREQEREBERAREQFxyug70TpWnc38ejav9rtF1f8mv8A912KHrf8o0D4RP6K+gmEREBERAREQEREBERAREQEREBERAREQEREBERAREQEREBERAREQEREBERAREQckmVFYfhtP4cch/Fpjh8PaMvzRJdah60JlUaEWAY44DPMi/F+xX1MICIiAiIgIiICIiAiIgIiICIiAiLC+UBZln37NZp2Nm2TfF6wqPKepdvXhUTbgNRDMAfmA1tOiTgGLQ69AFhr07rWBc6DdEX+deZWYg3XyYrWtN13MV+1LesmiVPGrvWvUX+2Gpd7FkHZUdp1gWmNG6et3idKPxHoPX7/AKTXIFcityoDrg7jTb+LL7JsPtC4OoN1hwRdaL8UxEv68OdBKosX5OH8sZy//wBzah9AgLK6ZnTmrEtiwc3pF3yK4V83BWKTKszoEMI8NphiouiMU2mulbzBQGwd3XXRLv3CHBpD14i8s5R5kZkzL6ybh3Bmz20QsyLEqF1VOnlTYbWEaSIwDa6OTDQmMb7KdERdIz4eIz8D1MgIiICIiAiIg46jKjQqfJlzsNTDDJuu4adXAI85LsUPdgmdrVltscSI4EgRHD+vaJTCAiIgIiICIiAiIgIiICIiAiIgIiICIiAiIgIiICIiAiIgIiIC5JMqKw/Dafw45D+LTHD4e0ZfmiS61D1oTKo0IsAxxwGeZF+L9ivoJhERAREQEREBERAREQEREBERAREQEREBERAREQEREBERAREQEREBERAREQEREFVvi7KjaNPjTKTY9buuTIlYRgp9IchtyCx0GeJ88x9hrSODeP8ArOf21U+7FmL+Cfmr8pWr9crQKvHffqFEeZHEgjzzdex8UOjPj+cQqWQZT3YsxfwT81flK1frlO7FmL+Cfmr8pWr9crVkQZT3YsxfwT81flK1frlO7FmL+Cfmr8pWr9crVkQZT3YsxfwT81flK1frlO7FmL+Cfmr8pWr9crVkQZT3YsxfwT81flK1frlO7FmL+Cfmr8pWr9crVkQZT3YsxfwT81flK1frlO7FmL+Cfmr8pWr9crVkQZT3YsxfwT81flK1frlO7FmL+Cfmr8pWr9crVkQZT3YsxfwT81flK1frlO7FmL+Cfmr8pWr9crVkQZT3YsxfwT81flK1frlVW9qk1mQ1GjZichK8bnbhkZxQrIWhMBky62IYO1YtOpegEQYpJv8AuWdQsbXl8jXMN+kbQMdj3ZFplF2h6obXZjRoHSPCq3SOUvb7131+HQMgrgeuiO1ruBqJcFllUG2o/D9lCFa3cBa1EPfOpqXo9eOrcyVzSmWfljlTOsF+jP5at1oKjdD8yGUWrYv0ydCHY2nCkF0p6Y1Kd3WmtO0Wrj0IP3mBmBkDbeMjObMHkS4NzGIhXQdwy2LHfmvsRya+zGneypOu6TdjiJBqLU60I8Rjhjc7Vu+hTKr3VrI5FNzu1GvNHIG46W5ZxOzBd5tTnSW6vznr5h4tWOrSs2ruVGeN/wBgRrYPKadQn6VkPctgc8+qU48JVblNUwGgb2Xy7wXQ3dLp6erxiHDq9gW9PmVSgQZ8+hTqJJfjgbkCaTRPxj8Q9k3GtX5Jkg8oZWWLdeXF8Rr3c5NOYUuRT4M2BCGnUyyaRu4ynWjflTOi1URkSS6O0OvAGg6/BxLce7FmL+Cfmr8pWr9crVkQZT3YsxfwT81flK1frlO7FmL+Cfmr8pWr9crVkQZT3YsxfwT81flK1frlO7FmL+Cfmr8pWr9crVkQf5G8v3lc8pnLXlM24/lm/fuXDr1oRue3Km9Tp7Us+mTeeT0aNIlxi1Dho1F33vXuYDpJanyYf4Q7lQ5gixFvXktz7vgDjiMqv2qXRhig17TvSG5B7Au/iE8x4XCva128n7Ju/b5bzFvfL6l1+vx4LFLaeqQlKZGO06661hsHji1qE33S1aNfF1laLniRoVlVeHDjNsx2qXIBtpoNIiO0XCI4KK56yDNxVZ+M3JwsatNuON69pxyGJDj4pd/X9duWRBaxfn25VI0ZscScecOOQtjh4RaHSL/2UzuKJvAv4p1r4OkfoiU12V5J1ERapEREBERAREQEREBERAREQEREBERAREQEREBERAREQEREBcMya3ElQWTDEimyCYDHxe9G5/213KJq8d9+oUR5kcSCPPN17HxQ6M+P5xCglkREBERAREQEREBERAREQEREBERAREQEREBERAREQEREBERAREQEREBERAREQR8+fjCl02NgAlhOlExjj4venHOf/pqQUbU4b0mbSXWtOmLMJ538jYdD84xUkgIiICIiAiIgIiICIiAiIgIiICIiAiIgIiICIiAiIgIiIChby+9Ot/B0n9ESmlC3l96db+DpP6IlFavZ+3XuKJu4/wCKta+DZH6Il2bqi7qP+K9Y/wABI/REsar4tJW1ERdPDIREQEREBERAREQEREBERAREQEREBERAREQEREBERAREQFHz5+MKXTY2ACWE6UTGOPi96cc5/wDpqQUbU4b0mbSXWtOmLMJ538jYdD84xQSSIiAiIgIiICIiAiIgIiICIiAiIgIiICIiAiIgIiICIiAiIgIiICIiAiIgIiII2pzHo02ktNadMqYTLv5Gw6f5wCpJR8+BjNl02TgYjhBlE/jh43enG+b/AKikEBERAREQEREBERARFC3RFuGXblTiWrU4tPrTsV1uBMlRt9iPIIcdDptah1iJcWnUgmkXjmpZm51RmsyrTsm+78uJ+hN21hEl1G1Ica4GXZFV2Kk7DgdDa34YRR1A+7FMNe7pN0R4NnyIuwqwNw27VL0vqsV+hTGOyMG8qbTok6ADzWpnT0CMw0407gJEJ4a+ITHVw6UGvosqzKvC5LezPyft2k1EmKfc9w1KBVmcWwLGS01Rp0kB1GOoe+sNlwaer4q+99Zm3PSb8puWVgWdT7huCZSX67IwqVYKmxo0Nl1toe+gw+Rum47wDo08B6jDg1BpyLzY3yu59xW5Uruy8ysOs0+2rOj3fcDU2tDClRge6VphsALTovyB6DI16jaDqaTPUtGu/OHC2suKDe8S3jn1K6H6TBpNMwlbTbsyeTYtAb+ngbHd1GeksdIFpAi5gxDTUWF07lEVKPecDLq7bDZp9zv3ZHtiazCrBTIbTUikyqjHmNOkw0TokMM2iE2miE9fWERxON7v98VzNy17Ltm0KK1SZVz1+g1aROqzuEghprQFi6yIMEHt7urQReDp1D1kHoZERAREQEREBERAULeX3p1v4Ok/oiU0oW8vvTrfwdJ/REorV7Oz4bqi7od/izVv8BI/REurd/vUbczv8W6t/gpH5pLlrVuvqIi7eHOIiICIiAiIgIiICIiAiIgIiICIiAiIgIiICIiAiIgIiICjanMejTaS01p0yphMu/kbDp/nAKklHz4GM2XTZOBiOEGUT+OHjd6cb5v+ogkEREBERAREQEREBERAREQEREBERAREQEREBERAREQEREBERAREQEREBERAREQZ5nBm3ZGTlKpNyX7dTNFpb9R6LjiYG45JMmHiFppoBI3TxIR4QEi9pUinZm5gZm1CG7Q6tQMuLcKREDA6pMizq/Ud8MHGGmowOFHhb4c5ATpPumP+pDH28NZu2zrcvmmjQ7rosGr0zFwjfgToovsSBxbMNBAfOJdfn/4KgRMrb5y4lsnlFfbp0IXQ3rWudx2dEab5+LCHM9uVF/FEsX2sOqLQYIL13QbB2Omdu9A6Ps9L3eybGjo+5tburX1N3vWr3NfD7q+h3tZzTpsu3fRwNp2Q0QlOawITjhrfHrdZoeI/FHrKxIgroXtZzroMtXfRzN12O0IjOaxIjkBrYHrdZ0eIPGHqr590GwdjpnbvQOj7PS93smxo6PubW7q19Td71q9zXw+6rMiCune1nNOmy7d9HA2nZDRCU5rAhOOGt8et1mh4j8UesgXtZzroMtXfRzN12O0IjOaxIjkBrYHrdZ0eIPGHqqxIgrPdBsHY6Z270Do+z0vd7JsaOj7m1u6tfU3e9avc18Pur6He1nNOmy7d9HA2nZDRCU5rAhOOGt8et1mh4j8UesrEiCuhe1nOugy1d9HM3XY7QiM5rEiOQGtget1nR4g8YeqoO7q1lreVo1S36lf9NjU6q0492ZCrYRnWo5u7G+0+BcGl3gE/c14af7lfkQYAGVtjtzazU7h5RVy1K6ZsUKO3XXK1ToU6mNU57phtNDFYaZ4S0nI3WndQcLveuBSto2XZFvz59WDPKpVa5rgqdHkVKsv1GmjKnC2GuFA2mmBZFh1rd0g00JmLrpierHWnKFxqkqt5SW1AuStUaJcF+djqoVKnuw3ZUXsJVnSYxdaITESNhr2xLUOIiQ6TESwxS05t92/2l3BQ76u6u1V7M697Jbh1SvypUWTTIDFf6FHdaN3Q66J06KXSD+yC4tTulBueZtFy8zJcti4m87nLWnWjIer1Lq1GqNLMhB1p2CZmMxh9omsd91rVo6/halFTrCtpypQa+9ylq81d1GZqdGeuDpVDCa/E70/KhvsjDGL3jaad1bAuteEWkjwLz/lVd9/121cakOf1PpFUnZe1OXdBjdFTuOo06oFHawCe7THWAapTsV8j1MNbQ8RhpLa1DIw79GoWnclswM4ItIOmz6A/IrDeZ1SrVuVEHSk/Yo1v7tpbrvR++jq0h9j6NW6esJfM7KCm0ymSrJyNqRNwa/ZUKyTKJeUGO3LdMZRQgqISGDkaSCU64L0V3fd1ujo5hAltdeomVdyZW0ex6xmVTmW6RGplRg1iBVIzciM9CkNAxOaI9YcMhoB4xICLvZatWI4+f3M4aVXbfs+1ZNwVylwjmXFj02o5rSodLmFDdYa2otaisdNqvFK+xw1gZaHd3UTQAoK1s5pt12jR5eaec9docuFlS1JorkStuwZE+52pMxqaJtNEHTZjQsQPsV0D4ny71xoN+m5OZaP702fnhU+3ELl7YiuY6hTBntVCBAOKbW30footNRHXBNrY4RdMy4y1r929k/lVQqtQKvSM5qm7WKXdD9wdLcq1OedqEirt6nYzo7GjalCOsBaED/2RCK84ysw80arAaGuZsQ7aqYWFasy0Z1Yvao0w3pEinCTs0IDDDoVp0pmoTad3eoIaB3dR/wCgsXpXRmel7fSNA7mjq6/C0oILug2DsdM7d6B0fZ6Xu9k2NHR9za3dWvqbvetXua+H3V9DvazmnTZdu+jgbTshohKc1gQnHDW+PW6zQ8R+KPWViRBXQvaznXQZau+jmbrsdoRGc1iRHIDWwPW6zo8QeMPVXz7oNg7HTO3egdH2el7vZNjR0fc2t3Vr6m73rV7mvh91WZEFdO9rOadNl276OBtOyGiEpzWBCccNb49brNDxH4o9ZAvaznXQZau+jmbrsdoRGc1iRHIDWwPW6zo8QeMPVViRBWe6DYOx0zt3oHR9npe72TY0dH3Nrd1a+pu961e5r4fdX0O9rOadNl276OBtOyGiEpzWBCccNb49brNDxH4o9ZWJEFdbvWznHQZau+jmbjsdoRCc1iRHIDWwPW6zo8QeMPVUPdN9WPKtKruMXhQXQdpMh8SwqLOkmuJjX1uru961ePw+6r0i8rjsM67Zre8twR/FKUIrjrFZpVSpM6BAqsOTIkRXWmmmpAkRGYaQERWh1SCFTpkumuOYgMxg2CIfB1DpXZz/AN65/R/7NPU5fpERdLMREQEREBERAREQEREBERAREQEREBERAREQEREBERAREQFE1eQ+xUKIyyWIhInm09h4wdGfL84RUsuGZCblyoLxniJQpBPhh43ejb/7iDuREQEREBERAREQEREBERAREQEREBERAREQEREBERAREQEREBERAREQEREBERBD1ojGo0IcDxwwKeYl+N9ivqYXJJixX34br+PHHfxdY4vD2jH80iXWgIiICIiAiIgIiICIiAiIg+QtABEYgIkfWx8ZfzCOyIYs4NDgBe6OnhX2RB8tprARHQPMHV4eqqJmFlNTcxcRGZd120Vp2G9TpjFHqxx2pcZ3rg4GOoRL3eZ0NLvF11oCII2lUSlUOlwKJSYTUWDSmGosNgR4WGgDQIj/AJeFSSIgIiICIiAiIgIiICIiCHuwjC1qy42WIkECQQlh/XtEphcdRixptPkxJ2Olh9k2ncdWngIeYl2ICIiAiIgIiICIiAiIgIiICIiAiIgIiICIiAiIgIiICIiAiIgKHrRGNRoQ4HjhgU8xL8b7FfUwuSTFivvw3X8eOO/i6xxeHtGP5pEg60REBERAREQEREBERAREQEREBERAREQEREBERAREQEREBERAREQEREBERAREQQ9b/lGgfCJ/RX1MLjldB3onStO5v49G1f7XaLq/5Nf/ALrsQEREBERAREQEREBERAREQEREBERAREQEREBERAREQEREBERBD3f96da+DZH6IlMLjqXQux0vp+joewe/q6u1p4uf/LzrsQEREBERAREQEREBERAREQEREBERAREQEREBERAREQEREBERAUPW/wCUaB8In9FfUwuOV0HeidK07m/j0bV/tdour/k1/wDug7EREBERAREQEREBERAREQEREBERAREQEREBERAREQEREBERAREQEREBERAREQQ9b/lGgfCJ/RX1MLkkyorD8Np/DjkP4tMcPh7Rl+aJLrQEREBERAREQEREBERAREQEREBERAREQEREBERAREQEREBERBD3f96da+DZH6IlMLjqMqNCp8mXOw1MMMm67hp1cAjzkuxAREQEREBERAREQEREBERAREQEREBERAREQEREBERAREQEREBQ9b/lGgfCJ/RX1MLkkyorD8Np/DjkP4tMcPh7Rl+aJIOtERAREQEREBERAREQEREBERAREQEREBERAREQEREBERAREQEREBERAREQEREEPWhMqjQiwDHHAZ5kX4v2K+phcMya3ElQWTDEimyCYDHxe9G5/wBtdyAiIgIiICIiAiIgIiICIiAiIgIiICIiAiIgIiICIiAiIgIiIIe7BM7WrLbY4kRwJAiOH9e0SmFw1SeFMpcypuN4mMNg3yEfC0DqXcgIiICIiAiIgIiICIiAiIgIiICIiAiIgIiICIiAiIgIiICIiAoetCZVGhFgGOOAzzIvxfsV9TC4Zk1uJKgsmGJFNkEwGPi96Nz/ALaDuREQEREBERAREQEREBERAREQEREBERAREQEREBERAREQEREBERAREQEREBERBE1eO+/UKI8yOJBHnm69j4odGfH84hUsiICIiAiIgIiICIiAiIgIiICIiAiIgIiICIiAiIgIiICIiAiIgiLmjvSrcq0SKGLjr8F9tscPCMgLDDD/ANVLqPrVQKmUefUWwEiiRnZAjj4WgdSkEBERAREQEREBERAREQEREBERAREQEREBERAREQEREBERAREQFE1eO+/UKI8yOJBHnm69j4odGfH84hUsiAiIgIiICIiAiIgIiICIiAiIgIiICIiAiIgIiICIiAiIgIiICIiAiIgIiICIiAiIgIiICIiAiIgIiICIiAiIgIiICIiAiIgIiICIiAiIgIiICIiDlmw406G9BlN4OMyGzacHn5tQF7RLqREBERAREQEREBERAREQEREBERAREQEREBERAREQEREBERAREQEREBERAREQEREBERAREQEREBERAREQEREBERAREQEREBERAREQEREBERAREQEREBERAREQEREBERAREQEREBERAREQEREBERAREQEREBERAREQEREBERAREQEREBERAREQEREBERAREQEREBERAREQEREBERAREQEREBERAREQEREBERAREQEREBERAREQEREH/9k=;" vertex="1" parent="1">
          <mxGeometry x="72" y="20" width="627" height="1100" as="geometry" />
        </mxCell>
      </root>
    </mxGraphModel>
  </diagram>
</mxfile>
